Space-Mono-Regular_QUADRATIC.ufo
<glyph name="percent" format="1">
  <advance width="612"/>
  <unicode hex="0025"/>
  <outline>
    <contour>
      <point x="346" y="556" type="qcurve"/>
      <point x="346" y="520"/>
      <point x="322" y="465"/>
      <point x="281" y="426"/>
      <point x="228" y="406"/>
      <point x="199" y="406" type="qcurve"/>
      <point x="170" y="406"/>
      <point x="117" y="426"/>
      <point x="76" y="465"/>
      <point x="52" y="520"/>
      <point x="52" y="556" type="qcurve"/>
      <point x="52" y="592"/>
      <point x="76" y="647"/>
      <point x="117" y="686"/>
      <point x="170" y="706"/>
      <point x="199" y="706" type="qcurve"/>
      <point x="228" y="706"/>
      <point x="281" y="686"/>
      <point x="322" y="647"/>
      <point x="346" y="592"/>
    </contour>
    <contour>
      <point x="199" y="460" type="qcurve"/>
      <point x="238" y="460"/>
      <point x="286" y="513"/>
      <point x="286" y="556" type="qcurve"/>
      <point x="286" y="599"/>
      <point x="238" y="652"/>
      <point x="199" y="652" type="qcurve"/>
      <point x="160" y="652"/>
      <point x="112" y="599"/>
      <point x="112" y="556" type="qcurve"/>
      <point x="112" y="508"/>
      <point x="160" y="460"/>
    </contour>
    <contour>
      <point x="561" y="144" type="qcurve"/>
      <point x="561" y="108"/>
      <point x="537" y="53"/>
      <point x="496" y="14"/>
      <point x="443" y="-6"/>
      <point x="414" y="-6" type="qcurve"/>
      <point x="385" y="-6"/>
      <point x="332" y="14"/>
      <point x="291" y="53"/>
      <point x="267" y="108"/>
      <point x="267" y="144" type="qcurve"/>
      <point x="267" y="180"/>
      <point x="291" y="235"/>
      <point x="332" y="274"/>
      <point x="385" y="294"/>
      <point x="414" y="294" type="qcurve"/>
      <point x="443" y="294"/>
      <point x="496" y="274"/>
      <point x="537" y="235"/>
      <point x="561" y="180"/>
    </contour>
    <contour>
      <point x="414" y="48" type="qcurve"/>
      <point x="453" y="48"/>
      <point x="501" y="101"/>
      <point x="501" y="144" type="qcurve"/>
      <point x="501" y="187"/>
      <point x="453" y="240"/>
      <point x="414" y="240" type="qcurve"/>
      <point x="375" y="240"/>
      <point x="327" y="187"/>
      <point x="327" y="144" type="qcurve"/>
      <point x="327" y="96"/>
      <point x="375" y="48"/>
    </contour>
    <component base="fraction"/>
  </outline>
</glyph>
<glyph name="quotesingle" format="1">
  <advance width="612"/>
  <unicode hex="0027"/>
  <outline>
    <contour>
      <point x="236" y="644" type="qcurve"/>
      <point x="236" y="673"/>
      <point x="277" y="714"/>
      <point x="306" y="714" type="qcurve"/>
      <point x="335" y="714"/>
      <point x="376" y="673"/>
      <point x="376" y="644" type="qcurve"/>
      <point x="376" y="622"/>
      <point x="352" y="587"/>
      <point x="333" y="579" type="qcurve"/>
      <point x="333" y="468" type="line"/>
      <point x="279" y="468" type="line"/>
      <point x="279" y="579" type="line"/>
      <point x="260" y="587"/>
      <point x="236" y="622"/>
    </contour>
  </outline>
</glyph>
<glyph name="parenleft" format="1">
  <advance width="612"/>
  <unicode hex="0028"/>
  <outline>
    <contour>
      <point x="546" y="-82" type="line"/>
      <point x="546" y="-156" type="line"/>
      <point x="510" y="-156" type="line"/>
      <point x="440" y="-156"/>
      <point x="312" y="-104"/>
      <point x="214" y="-5"/>
      <point x="156" y="135"/>
      <point x="156" y="224" type="qcurve"/>
      <point x="156" y="476" type="line"/>
      <point x="156" y="564"/>
      <point x="214" y="705"/>
      <point x="312" y="804"/>
      <point x="440" y="856"/>
      <point x="510" y="856" type="qcurve"/>
      <point x="546" y="856" type="line"/>
      <point x="546" y="782" type="line"/>
      <point x="510" y="782" type="line"/>
      <point x="456" y="782"/>
      <point x="356" y="739"/>
      <point x="280" y="659"/>
      <point x="234" y="544"/>
      <point x="234" y="472" type="qcurve"/>
      <point x="234" y="228" type="line"/>
      <point x="234" y="156"/>
      <point x="280" y="41"/>
      <point x="356" y="-39"/>
      <point x="456" y="-82"/>
      <point x="510" y="-82" type="qcurve"/>
    </contour>
  </outline>
</glyph>
<glyph name="parenright" format="1">
  <advance width="612"/>
  <unicode hex="0029"/>
  <outline>
    <contour>
      <point x="102" y="-82" type="line"/>
      <point x="156" y="-82"/>
      <point x="256" y="-39"/>
      <point x="332" y="41"/>
      <point x="378" y="156"/>
      <point x="378" y="228" type="qcurve"/>
      <point x="378" y="472" type="line"/>
      <point x="378" y="544"/>
      <point x="332" y="659"/>
      <point x="256" y="739"/>
      <point x="156" y="782"/>
      <point x="102" y="782" type="qcurve"/>
      <point x="66" y="782" type="line"/>
      <point x="66" y="856" type="line"/>
      <point x="102" y="856" type="line"/>
      <point x="172" y="856"/>
      <point x="300" y="804"/>
      <point x="398" y="705"/>
      <point x="456" y="564"/>
      <point x="456" y="476" type="qcurve"/>
      <point x="456" y="224" type="line"/>
      <point x="456" y="135"/>
      <point x="398" y="-5"/>
      <point x="300" y="-104"/>
      <point x="172" y="-156"/>
      <point x="102" y="-156" type="qcurve"/>
      <point x="66" y="-156" type="line"/>
      <point x="66" y="-82" type="line"/>
    </contour>
  </outline>
</glyph>
<glyph name="comma" format="1">
  <advance width="612"/>
  <unicode hex="002C"/>
  <outline>
    <contour>
      <point x="236" y="56" type="qcurve"/>
      <point x="236" y="85"/>
      <point x="277" y="126"/>
      <point x="306" y="126" type="qcurve"/>
      <point x="335" y="126"/>
      <point x="376" y="85"/>
      <point x="376" y="56" type="qcurve"/>
      <point x="376" y="-42" type="line"/>
      <point x="376" y="-76"/>
      <point x="333" y="-120"/>
      <point x="299" y="-120" type="qcurve"/>
      <point x="248" y="-120" type="line"/>
      <point x="248" y="-66" type="line"/>
      <point x="295" y="-66" type="line"/>
      <point x="322" y="-66"/>
      <point x="322" y="-36" type="qcurve"/>
      <point x="322" y="-11" type="line"/>
      <point x="314" y="-14"/>
      <point x="305" y="-14" type="qcurve"/>
      <point x="277" y="-14"/>
      <point x="236" y="27"/>
    </contour>
  </outline>
</glyph>
<glyph name="hyphen" format="1">
  <advance width="612"/>
  <unicode hex="002D"/>
  <outline>
    <contour>
      <point x="156" y="296" type="line"/>
      <point x="456" y="296" type="line"/>
      <point x="456" y="224" type="line"/>
      <point x="156" y="224" type="line"/>
    </contour>
  </outline>
</glyph>
<glyph name="period" format="1">
  <advance width="612"/>
  <unicode hex="002E"/>
  <outline>
    <contour>
      <point x="236" y="56" type="qcurve"/>
      <point x="236" y="85"/>
      <point x="277" y="126"/>
      <point x="306" y="126" type="qcurve"/>
      <point x="335" y="126"/>
      <point x="376" y="85"/>
      <point x="376" y="56" type="qcurve"/>
      <point x="376" y="27"/>
      <point x="335" y="-14"/>
      <point x="306" y="-14" type="qcurve"/>
      <point x="277" y="-14"/>
      <point x="236" y="27"/>
    </contour>
  </outline>
</glyph>
<glyph name="three" format="1">
  <advance width="612"/>
  <unicode hex="0033"/>
  <outline>
    <contour>
      <point x="237" y="348" type="line"/>
      <point x="237" y="464" type="line"/>
      <point x="465" y="610" type="line"/>
      <point x="465" y="622" type="line"/>
      <point x="69" y="622" type="line"/>
      <point x="69" y="700" type="line"/>
      <point x="537" y="700" type="line"/>
      <point x="537" y="572" type="line"/>
      <point x="309" y="426" type="line"/>
      <point x="309" y="414" type="line"/>
      <point x="349" y="414" type="line"/>
      <point x="389" y="414"/>
      <point x="463" y="388"/>
      <point x="520" y="338"/>
      <point x="555" y="265"/>
      <point x="555" y="217" type="qcurve"/>
      <point x="555" y="199" type="line"/>
      <point x="555" y="154"/>
      <point x="519" y="76"/>
      <point x="455" y="19"/>
      <point x="368" y="-14"/>
      <point x="317" y="-14" type="qcurve"/>
      <point x="258" y="-14"/>
      <point x="164" y="22"/>
      <point x="98" y="85"/>
      <point x="63" y="170"/>
      <point x="63" y="218" type="qcurve"/>
      <point x="63" y="272" type="line"/>
      <point x="147" y="272" type="line"/>
      <point x="147" y="224" type="line"/>
      <point x="147" y="186"/>
      <point x="172" y="127"/>
      <point x="217" y="86"/>
      <point x="279" y="64"/>
      <point x="315" y="64" type="qcurve"/>
      <point x="348" y="64"/>
      <point x="405" y="86"/>
      <point x="447" y="125"/>
      <point x="471" y="178"/>
      <point x="471" y="208" type="qcurve"/>
      <point x="471" y="214" type="line"/>
      <point x="471" y="277"/>
      <point x="391" y="348"/>
      <point x="331" y="348" type="qcurve"/>
    </contour>
  </outline>
</glyph>
<glyph name="four" format="1">
  <advance width="612"/>
  <unicode hex="0034"/>
  <outline>
    <contour>
      <point x="294" y="700" type="line"/>
      <point x="457" y="700" type="line"/>
      <point x="457" y="210" type="line"/>
      <point x="565" y="210" type="line"/>
      <point x="565" y="132" type="line"/>
      <point x="457" y="132" type="line"/>
      <point x="457" y="0" type="line"/>
      <point x="373" y="0" type="line"/>
      <point x="373" y="132" type="line"/>
      <point x="49" y="132" type="line"/>
      <point x="49" y="248" type="line"/>
    </contour>
    <contour>
      <point x="121" y="222" type="line"/>
      <point x="121" y="210" type="line"/>
      <point x="373" y="210" type="line"/>
      <point x="373" y="664" type="line"/>
      <point x="361" y="664" type="line"/>
    </contour>
  </outline>
</glyph>
<glyph name="five" format="1">
  <advance width="612"/>
  <unicode hex="0035"/>
  <outline>
    <contour>
      <point x="78" y="330" type="line"/>
      <point x="78" y="700" type="line"/>
      <point x="516" y="700" type="line"/>
      <point x="516" y="622" type="line"/>
      <point x="160" y="622" type="line"/>
      <point x="160" y="372" type="line"/>
      <point x="172" y="372" type="line"/>
      <point x="182" y="392"/>
      <point x="214" y="429"/>
      <point x="257" y="457"/>
      <point x="311" y="474"/>
      <point x="344" y="474" type="qcurve"/>
      <point x="392" y="474"/>
      <point x="473" y="442"/>
      <point x="531" y="384"/>
      <point x="564" y="302"/>
      <point x="564" y="252" type="qcurve"/>
      <point x="564" y="234" type="line"/>
      <point x="564" y="184"/>
      <point x="532" y="95"/>
      <point x="470" y="26"/>
      <point x="378" y="-14"/>
      <point x="318" y="-14" type="qcurve"/>
      <point x="257" y="-14"/>
      <point x="163" y="22"/>
      <point x="99" y="86"/>
      <point x="66" y="173"/>
      <point x="66" y="224" type="qcurve"/>
      <point x="66" y="252" type="line"/>
      <point x="150" y="252" type="line"/>
      <point x="150" y="230" type="line"/>
      <point x="150" y="147"/>
      <point x="243" y="64"/>
      <point x="318" y="64" type="qcurve"/>
      <point x="358" y="64"/>
      <point x="419" y="93"/>
      <point x="460" y="142"/>
      <point x="480" y="207"/>
      <point x="480" y="242" type="qcurve"/>
      <point x="480" y="248" type="line"/>
      <point x="480" y="279"/>
      <point x="459" y="333"/>
      <point x="422" y="373"/>
      <point x="369" y="396"/>
      <point x="338" y="396" type="qcurve"/>
      <point x="317" y="396"/>
      <point x="282" y="384"/>
      <point x="256" y="365"/>
      <point x="239" y="341"/>
      <point x="236" y="330" type="qcurve"/>
    </contour>
  </outline>
</glyph>
<glyph name="six" format="1">
  <advance width="612"/>
  <unicode hex="0036"/>
  <outline>
    <contour>
      <point x="453" y="496" type="line"/>
      <point x="453" y="561"/>
      <point x="373" y="640"/>
      <point x="302" y="640" type="qcurve"/>
      <point x="268" y="640"/>
      <point x="211" y="616"/>
      <point x="170" y="571"/>
      <point x="147" y="509"/>
      <point x="147" y="472" type="qcurve"/>
      <point x="147" y="368" type="line"/>
      <point x="159" y="368" type="line"/>
      <point x="183" y="412"/>
      <point x="272" y="462"/>
      <point x="327" y="462" type="qcurve"/>
      <point x="375" y="462"/>
      <point x="457" y="431"/>
      <point x="516" y="371"/>
      <point x="549" y="286"/>
      <point x="549" y="232" type="qcurve"/>
      <point x="549" y="220" type="line"/>
      <point x="549" y="168"/>
      <point x="512" y="82"/>
      <point x="447" y="20"/>
      <point x="358" y="-14"/>
      <point x="306" y="-14" type="qcurve"/>
      <point x="254" y="-14"/>
      <point x="165" y="20"/>
      <point x="100" y="81"/>
      <point x="63" y="166"/>
      <point x="63" y="217" type="qcurve"/>
      <point x="63" y="472" type="line"/>
      <point x="63" y="527"/>
      <point x="101" y="617"/>
      <point x="167" y="680"/>
      <point x="254" y="714"/>
      <point x="304" y="714" type="qcurve"/>
      <point x="354" y="714"/>
      <point x="440" y="684"/>
      <point x="502" y="627"/>
      <point x="537" y="546"/>
      <point x="537" y="496" type="qcurve"/>
    </contour>
    <contour>
      <point x="306" y="60" type="qcurve"/>
      <point x="342" y="60"/>
      <point x="401" y="83"/>
      <point x="443" y="125"/>
      <point x="465" y="183"/>
      <point x="465" y="218" type="qcurve"/>
      <point x="465" y="230" type="line"/>
      <point x="465" y="265"/>
      <point x="441" y="323"/>
      <point x="399" y="365"/>
      <point x="340" y="388"/>
      <point x="306" y="388" type="qcurve"/>
      <point x="272" y="388"/>
      <point x="214" y="364"/>
      <point x="171" y="322"/>
      <point x="147" y="266"/>
      <point x="147" y="234" type="qcurve"/>
      <point x="147" y="215" type="line"/>
      <point x="147" y="182"/>
      <point x="169" y="125"/>
      <point x="211" y="83"/>
      <point x="270" y="60"/>
    </contour>
  </outline>
</glyph>
<glyph name="equal" format="1">
  <advance width="612"/>
  <unicode hex="003D"/>
  <outline>
    <contour>
      <point x="97" y="458" type="line"/>
      <point x="515" y="458" type="line"/>
      <point x="515" y="386" type="line"/>
      <point x="97" y="386" type="line"/>
    </contour>
    <contour>
      <point x="97" y="314" type="line"/>
      <point x="515" y="314" type="line"/>
      <point x="515" y="242" type="line"/>
      <point x="97" y="242" type="line"/>
    </contour>
  </outline>
</glyph>
<glyph name="greater" format="1">
  <advance width="612"/>
  <unicode hex="003E"/>
  <outline>
    <contour>
      <point x="97" y="130" type="line"/>
      <point x="97" y="214" type="line"/>
      <point x="485" y="344" type="line"/>
      <point x="485" y="356" type="line"/>
      <point x="97" y="486" type="line"/>
      <point x="97" y="570" type="line"/>
      <point x="515" y="426" type="line"/>
      <point x="515" y="274" type="line"/>
    </contour>
  </outline>
</glyph>
<glyph name="question" format="1">
  <advance width="612"/>
  <unicode hex="003F"/>
  <outline>
    <contour>
      <point x="352" y="366" type="line"/>
      <point x="397" y="366"/>
      <point x="456" y="432"/>
      <point x="456" y="486" type="qcurve"/>
      <point x="456" y="492" type="line"/>
      <point x="456" y="522"/>
      <point x="435" y="574"/>
      <point x="397" y="613"/>
      <point x="343" y="636"/>
      <point x="310" y="636" type="qcurve"/>
      <point x="238" y="636"/>
      <point x="156" y="548"/>
      <point x="156" y="476" type="qcurve"/>
      <point x="156" y="434" type="line"/>
      <point x="72" y="434" type="line"/>
      <point x="72" y="482" type="line"/>
      <point x="72" y="528"/>
      <point x="103" y="612"/>
      <point x="163" y="676"/>
      <point x="253" y="714"/>
      <point x="312" y="714" type="qcurve"/>
      <point x="362" y="714"/>
      <point x="446" y="680"/>
      <point x="506" y="621"/>
      <point x="540" y="544"/>
      <point x="540" y="501" type="qcurve"/>
      <point x="540" y="483" type="line"/>
      <point x="540" y="444"/>
      <point x="513" y="373"/>
      <point x="465" y="321"/>
      <point x="400" y="290"/>
      <point x="362" y="290" type="qcurve"/>
      <point x="348" y="290" type="line"/>
      <point x="320" y="290"/>
      <point x="320" y="260" type="qcurve"/>
      <point x="320" y="186" type="line"/>
      <point x="240" y="186" type="line"/>
      <point x="240" y="280" type="line"/>
      <point x="240" y="318"/>
      <point x="288" y="366"/>
      <point x="326" y="366" type="qcurve"/>
    </contour>
    <contour>
      <point x="211" y="56" type="qcurve"/>
      <point x="211" y="85"/>
      <point x="252" y="126"/>
      <point x="281" y="126" type="qcurve"/>
      <point x="310" y="126"/>
      <point x="351" y="85"/>
      <point x="351" y="56" type="qcurve"/>
      <point x="351" y="27"/>
      <point x="310" y="-14"/>
      <point x="281" y="-14" type="qcurve"/>
      <point x="252" y="-14"/>
      <point x="211" y="27"/>
    </contour>
  </outline>
</glyph>
<glyph name="at" format="1">
  <advance width="612"/>
  <unicode hex="0040"/>
  <outline>
    <contour>
      <point x="78" y="510" type="line"/>
      <point x="78" y="582" type="line"/>
      <point x="368" y="582" type="line"/>
      <point x="460" y="582"/>
      <point x="564" y="486"/>
      <point x="564" y="386" type="qcurve"/>
      <point x="564" y="78" type="line"/>
      <point x="564" y="44"/>
      <point x="521" y="0"/>
      <point x="487" y="0" type="qcurve"/>
      <point x="407" y="0" type="line"/>
      <point x="370" y="0"/>
      <point x="336" y="39"/>
      <point x="336" y="66" type="qcurve"/>
      <point x="324" y="66" type="line"/>
      <point x="312" y="28"/>
      <point x="255" y="-14"/>
      <point x="208" y="-14" type="qcurve"/>
      <point x="171" y="-14"/>
      <point x="109" y="16"/>
      <point x="64" y="72"/>
      <point x="38" y="153"/>
      <point x="38" y="203" type="qcurve"/>
      <point x="38" y="221" type="line"/>
      <point x="38" y="271"/>
      <point x="64" y="351"/>
      <point x="109" y="408"/>
      <point x="171" y="438"/>
      <point x="206" y="438" type="qcurve"/>
      <point x="252" y="438"/>
      <point x="301" y="403"/>
      <point x="318" y="370" type="qcurve"/>
      <point x="330" y="370" type="line"/>
      <point x="330" y="424" type="line"/>
      <point x="408" y="424" type="line"/>
      <point x="408" y="102" type="line"/>
      <point x="408" y="72"/>
      <point x="435" y="72" type="qcurve"/>
      <point x="459" y="72" type="line"/>
      <point x="486" y="72"/>
      <point x="486" y="102" type="qcurve"/>
      <point x="486" y="378" type="line"/>
      <point x="486" y="443"/>
      <point x="425" y="510"/>
      <point x="360" y="510" type="qcurve"/>
    </contour>
    <contour>
      <point x="223" y="60" type="qcurve"/>
      <point x="253" y="60"/>
      <point x="294" y="82"/>
      <point x="319" y="121"/>
      <point x="330" y="173"/>
      <point x="330" y="203" type="qcurve"/>
      <point x="330" y="221" type="line"/>
      <point x="330" y="249"/>
      <point x="319" y="301"/>
      <point x="294" y="341"/>
      <point x="253" y="364"/>
      <point x="223" y="364" type="qcurve"/>
      <point x="198" y="364"/>
      <point x="158" y="342"/>
      <point x="131" y="303"/>
      <point x="116" y="251"/>
      <point x="116" y="221" type="qcurve"/>
      <point x="116" y="203" type="line"/>
      <point x="116" y="140"/>
      <point x="172" y="60"/>
    </contour>
  </outline>
</glyph>
<glyph name="A" format="1">
  <advance width="612"/>
  <unicode hex="0041"/>
  <outline>
    <contour>
      <point x="456" y="174" type="line"/>
      <point x="156" y="174" type="line"/>
      <point x="105" y="0" type="line"/>
      <point x="15" y="0" type="line"/>
      <point x="227" y="700" type="line"/>
      <point x="385" y="700" type="line"/>
      <point x="597" y="0" type="line"/>
      <point x="507" y="0" type="line"/>
    </contour>
    <contour>
      <point x="300" y="664" type="line"/>
      <point x="179" y="252" type="line"/>
      <point x="433" y="252" type="line"/>
      <point x="312" y="664" type="line"/>
    </contour>
  </outline>
</glyph>
<glyph name="D" format="1">
  <advance width="612"/>
  <unicode hex="0044"/>
  <outline>
    <contour>
      <point x="73" y="700" type="line"/>
      <point x="303" y="700" type="line"/>
      <point x="433" y="700"/>
      <point x="553" y="576"/>
      <point x="553" y="440" type="qcurve"/>
      <point x="553" y="260" type="line"/>
      <point x="553" y="124"/>
      <point x="433" y="0"/>
      <point x="303" y="0" type="qcurve"/>
      <point x="73" y="0" type="line"/>
      <point x="73" y="79" type="line"/>
      <point x="133" y="79" type="line"/>
      <point x="133" y="622" type="line"/>
      <point x="73" y="622" type="line"/>
    </contour>
    <contour>
      <point x="291" y="78" type="line"/>
      <point x="337" y="78"/>
      <point x="404" y="96"/>
      <point x="448" y="139"/>
      <point x="469" y="211"/>
      <point x="469" y="266" type="qcurve"/>
      <point x="469" y="434" type="line"/>
      <point x="469" y="489"/>
      <point x="448" y="561"/>
      <point x="404" y="604"/>
      <point x="337" y="622"/>
      <point x="291" y="622" type="qcurve"/>
      <point x="217" y="622" type="line"/>
      <point x="217" y="78" type="line"/>
    </contour>
  </outline>
</glyph>
<glyph name="G" format="1">
  <advance width="612"/>
  <unicode hex="0047"/>
  <outline>
    <contour>
      <point x="239" y="336" type="line"/>
      <point x="551" y="336" type="line"/>
      <point x="551" y="0" type="line"/>
      <point x="473" y="0" type="line"/>
      <point x="473" y="84" type="line"/>
      <point x="461" y="84" type="line"/>
      <point x="444" y="40"/>
      <point x="358" y="-14"/>
      <point x="301" y="-14" type="qcurve"/>
      <point x="188" y="-14"/>
      <point x="59" y="132"/>
      <point x="59" y="272" type="qcurve"/>
      <point x="59" y="428" type="line"/>
      <point x="59" y="564"/>
      <point x="189" y="714"/>
      <point x="305" y="714" type="qcurve"/>
      <point x="365" y="714"/>
      <point x="457" y="675"/>
      <point x="519" y="606"/>
      <point x="551" y="513"/>
      <point x="551" y="460" type="qcurve"/>
      <point x="551" y="448" type="line"/>
      <point x="467" y="448" type="line"/>
      <point x="467" y="460" type="line"/>
      <point x="467" y="494"/>
      <point x="448" y="558"/>
      <point x="409" y="607"/>
      <point x="348" y="636"/>
      <point x="305" y="636" type="qcurve"/>
      <point x="224" y="636"/>
      <point x="143" y="518"/>
      <point x="143" y="422" type="qcurve"/>
      <point x="143" y="278" type="line"/>
      <point x="143" y="175"/>
      <point x="224" y="64"/>
      <point x="307" y="64" type="qcurve"/>
      <point x="382" y="64"/>
      <point x="467" y="160"/>
      <point x="467" y="246" type="qcurve"/>
      <point x="467" y="258" type="line"/>
      <point x="239" y="258" type="line"/>
    </contour>
  </outline>
</glyph>
<glyph name="O" format="1">
  <advance width="612"/>
  <unicode hex="004F"/>
  <outline>
    <contour>
      <point x="60" y="428" type="line"/>
      <point x="60" y="564"/>
      <point x="190" y="714"/>
      <point x="306" y="714" type="qcurve"/>
      <point x="422" y="714"/>
      <point x="552" y="564"/>
      <point x="552" y="428" type="qcurve"/>
      <point x="552" y="272" type="line"/>
      <point x="552" y="132"/>
      <point x="422" y="-14"/>
      <point x="306" y="-14" type="qcurve"/>
      <point x="190" y="-14"/>
      <point x="60" y="132"/>
      <point x="60" y="272" type="qcurve"/>
    </contour>
    <contour>
      <point x="306" y="64" type="qcurve"/>
      <point x="387" y="64"/>
      <point x="468" y="175"/>
      <point x="468" y="278" type="qcurve"/>
      <point x="468" y="422" type="line"/>
      <point x="468" y="518"/>
      <point x="387" y="636"/>
      <point x="306" y="636" type="qcurve"/>
      <point x="225" y="636"/>
      <point x="144" y="518"/>
      <point x="144" y="422" type="qcurve"/>
      <point x="144" y="278" type="line"/>
      <point x="144" y="175"/>
      <point x="225" y="64"/>
    </contour>
  </outline>
</glyph>
<glyph name="P" format="1">
  <advance width="612"/>
  <unicode hex="0050"/>
  <outline>
    <contour>
      <point x="169" y="288" type="line"/>
      <point x="169" y="0" type="line"/>
      <point x="85" y="0" type="line"/>
      <point x="85" y="700" type="line"/>
      <point x="335" y="700" type="line"/>
      <point x="389" y="700"/>
      <point x="469" y="669"/>
      <point x="522" y="617"/>
      <point x="549" y="548"/>
      <point x="549" y="510" type="qcurve"/>
      <point x="549" y="480" type="line"/>
      <point x="549" y="442"/>
      <point x="522" y="372"/>
      <point x="468" y="319"/>
      <point x="388" y="288"/>
      <point x="335" y="288" type="qcurve"/>
    </contour>
    <contour>
      <point x="169" y="366" type="line"/>
      <point x="325" y="366" type="line"/>
      <point x="465" y="366"/>
      <point x="465" y="486" type="qcurve"/>
      <point x="465" y="504" type="line"/>
      <point x="465" y="557"/>
      <point x="396" y="622"/>
      <point x="325" y="622" type="qcurve"/>
      <point x="169" y="622" type="line"/>
    </contour>
  </outline>
</glyph>
<glyph name="Q" format="1">
  <advance width="612"/>
  <unicode hex="0051"/>
  <outline>
    <contour>
      <point x="60" y="428" type="line"/>
      <point x="60" y="564"/>
      <point x="190" y="714"/>
      <point x="306" y="714" type="qcurve"/>
      <point x="422" y="714"/>
      <point x="552" y="564"/>
      <point x="552" y="428" type="qcurve"/>
      <point x="552" y="272" type="line"/>
      <point x="552" y="144"/>
      <point x="443" y="-1"/>
      <point x="345" y="-12" type="qcurve"/>
      <point x="345" y="-54" type="line"/>
      <point x="345" y="-84"/>
      <point x="372" y="-84" type="qcurve"/>
      <point x="456" y="-84" type="line"/>
      <point x="456" y="-156" type="line"/>
      <point x="344" y="-156" type="line"/>
      <point x="310" y="-156"/>
      <point x="267" y="-112"/>
      <point x="267" y="-78" type="qcurve"/>
      <point x="267" y="-12" type="line"/>
      <point x="168" y="0"/>
      <point x="60" y="144"/>
      <point x="60" y="272" type="qcurve"/>
    </contour>
    <contour>
      <point x="306" y="64" type="qcurve"/>
      <point x="387" y="64"/>
      <point x="468" y="175"/>
      <point x="468" y="278" type="qcurve"/>
      <point x="468" y="422" type="line"/>
      <point x="468" y="518"/>
      <point x="387" y="636"/>
      <point x="306" y="636" type="qcurve"/>
      <point x="225" y="636"/>
      <point x="144" y="518"/>
      <point x="144" y="422" type="qcurve"/>
      <point x="144" y="278" type="line"/>
      <point x="144" y="175"/>
      <point x="225" y="64"/>
    </contour>
  </outline>
</glyph>
<glyph name="R" format="1">
  <advance width="612"/>
  <unicode hex="0052"/>
  <outline>
    <contour>
      <point x="525" y="0" type="line"/>
      <point x="441" y="0" type="line"/>
      <point x="441" y="234" type="line"/>
      <point x="441" y="260"/>
      <point x="417" y="288"/>
      <point x="387" y="288" type="qcurve"/>
      <point x="169" y="288" type="line"/>
      <point x="169" y="0" type="line"/>
      <point x="85" y="0" type="line"/>
      <point x="85" y="700" type="line"/>
      <point x="335" y="700" type="line"/>
      <point x="389" y="700"/>
      <point x="469" y="669"/>
      <point x="522" y="617"/>
      <point x="549" y="548"/>
      <point x="549" y="510" type="qcurve"/>
      <point x="549" y="480" type="line"/>
      <point x="549" y="441"/>
      <point x="506" y="363"/>
      <point x="461" y="342" type="qcurve"/>
      <point x="461" y="330" type="line"/>
      <point x="491" y="325"/>
      <point x="525" y="287"/>
      <point x="525" y="252" type="qcurve"/>
    </contour>
    <contour>
      <point x="169" y="366" type="line"/>
      <point x="325" y="366" type="line"/>
      <point x="396" y="366"/>
      <point x="465" y="427"/>
      <point x="465" y="486" type="qcurve"/>
      <point x="465" y="504" type="line"/>
      <point x="465" y="557"/>
      <point x="396" y="622"/>
      <point x="325" y="622" type="qcurve"/>
      <point x="169" y="622" type="line"/>
    </contour>
  </outline>
</glyph>
<glyph name="T" format="1">
  <advance width="612"/>
  <unicode hex="0054"/>
  <outline>
    <contour>
      <point x="60" y="700" type="line"/>
      <point x="552" y="700" type="line"/>
      <point x="552" y="622" type="line"/>
      <point x="348" y="622" type="line"/>
      <point x="348" y="0" type="line"/>
      <point x="264" y="0" type="line"/>
      <point x="264" y="622" type="line"/>
      <point x="60" y="622" type="line"/>
    </contour>
  </outline>
</glyph>
<glyph name="Y" format="1">
  <advance width="612"/>
  <unicode hex="0059"/>
  <outline>
    <contour>
      <point x="264" y="246" type="line"/>
      <point x="246" y="246" type="line"/>
      <point x="27" y="700" type="line"/>
      <point x="121" y="700" type="line"/>
      <point x="300" y="318" type="line"/>
      <point x="312" y="318" type="line"/>
      <point x="491" y="700" type="line"/>
      <point x="585" y="700" type="line"/>
      <point x="366" y="246" type="line"/>
      <point x="348" y="246" type="line"/>
      <point x="348" y="0" type="line"/>
      <point x="264" y="0" type="line"/>
    </contour>
  </outline>
</glyph>
<glyph name="Z" format="1">
  <advance width="612"/>
  <unicode hex="005A"/>
  <outline>
    <contour>
      <point x="77" y="700" type="line"/>
      <point x="545" y="700" type="line"/>
      <point x="545" y="574" type="line"/>
      <point x="125" y="90" type="line"/>
      <point x="125" y="78" type="line"/>
      <point x="557" y="78" type="line"/>
      <point x="557" y="0" type="line"/>
      <point x="53" y="0" type="line"/>
      <point x="53" y="126" type="line"/>
      <point x="473" y="610" type="line"/>
      <point x="473" y="622" type="line"/>
      <point x="77" y="622" type="line"/>
    </contour>
  </outline>
</glyph>
<glyph name="bracketright" format="1">
  <advance width="612"/>
  <unicode hex="005D"/>
  <outline>
    <contour>
      <point x="348" y="-78" type="line"/>
      <point x="348" y="-112"/>
      <point x="305" y="-156"/>
      <point x="271" y="-156" type="qcurve"/>
      <point x="174" y="-156" type="line"/>
      <point x="174" y="-84" type="line"/>
      <point x="243" y="-84" type="line"/>
      <point x="270" y="-84"/>
      <point x="270" y="-54" type="qcurve"/>
      <point x="270" y="754" type="line"/>
      <point x="270" y="784"/>
      <point x="243" y="784" type="qcurve"/>
      <point x="174" y="784" type="line"/>
      <point x="174" y="856" type="line"/>
      <point x="271" y="856" type="line"/>
      <point x="305" y="856"/>
      <point x="348" y="812"/>
      <point x="348" y="778" type="qcurve"/>
    </contour>
  </outline>
</glyph>
<glyph name="underscore" format="1">
  <advance width="612"/>
  <unicode hex="005F"/>
  <outline>
    <contour>
      <point x="73" y="-48" type="line"/>
      <point x="539" y="-48" type="line"/>
      <point x="539" y="-120" type="line"/>
      <point x="73" y="-120" type="line"/>
    </contour>
  </outline>
</glyph>
<glyph name="c" format="1">
  <advance width="612"/>
  <unicode hex="0063"/>
  <outline>
    <contour>
      <point x="551" y="176" type="line"/>
      <point x="543" y="135"/>
      <point x="504" y="65"/>
      <point x="444" y="14"/>
      <point x="364" y="-14"/>
      <point x="315" y="-14" type="qcurve"/>
      <point x="263" y="-14"/>
      <point x="170" y="20"/>
      <point x="100" y="85"/>
      <point x="59" y="179"/>
      <point x="59" y="240" type="qcurve"/>
      <point x="59" y="252" type="line"/>
      <point x="59" y="312"/>
      <point x="100" y="408"/>
      <point x="170" y="474"/>
      <point x="263" y="510"/>
      <point x="315" y="510" type="qcurve"/>
      <point x="362" y="510"/>
      <point x="442" y="482"/>
      <point x="503" y="431"/>
      <point x="542" y="361"/>
      <point x="549" y="320" type="qcurve"/>
      <point x="471" y="302" type="line"/>
      <point x="468" y="328"/>
      <point x="445" y="377"/>
      <point x="406" y="414"/>
      <point x="350" y="436"/>
      <point x="313" y="436" type="qcurve"/>
      <point x="277" y="436"/>
      <point x="214" y="409"/>
      <point x="166" y="360"/>
      <point x="139" y="292"/>
      <point x="139" y="252" type="qcurve"/>
      <point x="139" y="240" type="line"/>
      <point x="139" y="198"/>
      <point x="166" y="131"/>
      <point x="214" y="85"/>
      <point x="278" y="60"/>
      <point x="315" y="60" type="qcurve"/>
      <point x="352" y="60"/>
      <point x="407" y="83"/>
      <point x="446" y="120"/>
      <point x="469" y="168"/>
      <point x="473" y="194" type="qcurve"/>
    </contour>
  </outline>
</glyph>
<glyph name="e" format="1">
  <advance width="612"/>
  <unicode hex="0065"/>
  <outline>
    <contour>
      <point x="144" y="224" type="line"/>
      <point x="147" y="150"/>
      <point x="233" y="60"/>
      <point x="310" y="60" type="qcurve"/>
      <point x="345" y="60"/>
      <point x="397" y="76"/>
      <point x="434" y="104"/>
      <point x="457" y="141"/>
      <point x="464" y="162" type="qcurve"/>
      <point x="538" y="142" type="line"/>
      <point x="517" y="73"/>
      <point x="404" y="-14"/>
      <point x="308" y="-14" type="qcurve"/>
      <point x="255" y="-14"/>
      <point x="166" y="23"/>
      <point x="102" y="91"/>
      <point x="66" y="185"/>
      <point x="66" y="242" type="qcurve"/>
      <point x="66" y="266" type="line"/>
      <point x="66" y="318"/>
      <point x="103" y="408"/>
      <point x="169" y="473"/>
      <point x="258" y="510"/>
      <point x="310" y="510" type="qcurve"/>
      <point x="371" y="510"/>
      <point x="460" y="465"/>
      <point x="517" y="399"/>
      <point x="544" y="321"/>
      <point x="544" y="288" type="qcurve"/>
      <point x="544" y="224" type="line"/>
    </contour>
    <contour>
      <point x="310" y="436" type="qcurve"/>
      <point x="277" y="436"/>
      <point x="220" y="415"/>
      <point x="177" y="377"/>
      <point x="150" y="326"/>
      <point x="146" y="296" type="qcurve"/>
      <point x="466" y="296" type="line"/>
      <point x="464" y="328"/>
      <point x="437" y="380"/>
      <point x="394" y="416"/>
      <point x="339" y="436"/>
    </contour>
  </outline>
</glyph>
<glyph name="j" format="1">
  <advance width="612"/>
  <unicode hex="006A"/>
  <outline>
    <contour>
      <point x="307" y="644" type="qcurve"/>
      <point x="307" y="673"/>
      <point x="348" y="714"/>
      <point x="377" y="714" type="qcurve"/>
      <point x="406" y="714"/>
      <point x="447" y="673"/>
      <point x="447" y="644" type="qcurve"/>
      <point x="447" y="615"/>
      <point x="406" y="574"/>
      <point x="377" y="574" type="qcurve"/>
      <point x="348" y="574"/>
      <point x="307" y="615"/>
    </contour>
    <contour>
      <point x="141" y="496" type="line"/>
      <point x="417" y="496" type="line"/>
      <point x="417" y="-122" type="line"/>
      <point x="417" y="-156"/>
      <point x="374" y="-200"/>
      <point x="340" y="-200" type="qcurve"/>
      <point x="117" y="-200" type="line"/>
      <point x="117" y="-128" type="line"/>
      <point x="312" y="-128" type="line"/>
      <point x="339" y="-128"/>
      <point x="339" y="-98" type="qcurve"/>
      <point x="339" y="424" type="line"/>
      <point x="141" y="424" type="line"/>
    </contour>
  </outline>
</glyph>
<glyph name="n" format="1">
  <advance width="612"/>
  <unicode hex="006E"/>
  <outline>
    <contour>
      <point x="165" y="0" type="line"/>
      <point x="87" y="0" type="line"/>
      <point x="87" y="496" type="line"/>
      <point x="165" y="496" type="line"/>
      <point x="165" y="412" type="line"/>
      <point x="177" y="412" type="line"/>
      <point x="223" y="510"/>
      <point x="337" y="510" type="qcurve"/>
      <point x="423" y="510"/>
      <point x="525" y="403"/>
      <point x="525" y="296" type="qcurve"/>
      <point x="525" y="0" type="line"/>
      <point x="447" y="0" type="line"/>
      <point x="447" y="280" type="line"/>
      <point x="447" y="358"/>
      <point x="377" y="436"/>
      <point x="317" y="436" type="qcurve"/>
      <point x="246" y="436"/>
      <point x="165" y="339"/>
      <point x="165" y="258" type="qcurve"/>
    </contour>
  </outline>
</glyph>
<glyph name="r" format="1">
  <advance width="612"/>
  <unicode hex="0072"/>
  <outline>
    <contour>
      <point x="59" y="496" type="line"/>
      <point x="239" y="496" type="line"/>
      <point x="239" y="430" type="line"/>
      <point x="251" y="430" type="line"/>
      <point x="270" y="471"/>
      <point x="340" y="510"/>
      <point x="385" y="510" type="qcurve"/>
      <point x="460" y="510"/>
      <point x="552" y="412"/>
      <point x="555" y="318" type="qcurve"/>
      <point x="473" y="306" type="line"/>
      <point x="473" y="375"/>
      <point x="407" y="436"/>
      <point x="359" y="436" type="qcurve"/>
      <point x="328" y="436"/>
      <point x="283" y="412"/>
      <point x="253" y="370"/>
      <point x="239" y="314"/>
      <point x="239" y="282" type="qcurve"/>
      <point x="239" y="72" type="line"/>
      <point x="365" y="72" type="line"/>
      <point x="365" y="0" type="line"/>
      <point x="47" y="0" type="line"/>
      <point x="47" y="72" type="line"/>
      <point x="161" y="72" type="line"/>
      <point x="161" y="424" type="line"/>
      <point x="59" y="424" type="line"/>
    </contour>
  </outline>
</glyph>
<glyph name="u" format="1">
  <advance width="612"/>
  <unicode hex="0075"/>
  <outline>
    <contour>
      <point x="441" y="496" type="line"/>
      <point x="519" y="496" type="line"/>
      <point x="519" y="0" type="line"/>
      <point x="441" y="0" type="line"/>
      <point x="441" y="90" type="line"/>
      <point x="429" y="90" type="line"/>
      <point x="405" y="42"/>
      <point x="327" y="-14"/>
      <point x="267" y="-14" type="qcurve"/>
      <point x="226" y="-14"/>
      <point x="157" y="13"/>
      <point x="108" y="67"/>
      <point x="81" y="147"/>
      <point x="81" y="200" type="qcurve"/>
      <point x="81" y="496" type="line"/>
      <point x="159" y="496" type="line"/>
      <point x="159" y="210" type="line"/>
      <point x="159" y="132"/>
      <point x="223" y="60"/>
      <point x="289" y="60" type="qcurve"/>
      <point x="360" y="60"/>
      <point x="441" y="157"/>
      <point x="441" y="238" type="qcurve"/>
    </contour>
  </outline>
</glyph>
<glyph name="y" format="1">
  <advance width="612"/>
  <unicode hex="0079"/>
  <outline>
    <contour>
      <point x="447" y="90" type="line"/>
      <point x="435" y="90" type="line"/>
      <point x="411" y="42"/>
      <point x="333" y="-14"/>
      <point x="273" y="-14" type="qcurve"/>
      <point x="232" y="-14"/>
      <point x="163" y="13"/>
      <point x="114" y="67"/>
      <point x="87" y="147"/>
      <point x="87" y="200" type="qcurve"/>
      <point x="87" y="496" type="line"/>
      <point x="165" y="496" type="line"/>
      <point x="165" y="210" type="line"/>
      <point x="165" y="132"/>
      <point x="229" y="60"/>
      <point x="295" y="60" type="qcurve"/>
      <point x="366" y="60"/>
      <point x="447" y="157"/>
      <point x="447" y="238" type="qcurve"/>
      <point x="447" y="496" type="line"/>
      <point x="525" y="496" type="line"/>
      <point x="525" y="-122" type="line"/>
      <point x="525" y="-156"/>
      <point x="482" y="-200"/>
      <point x="448" y="-200" type="qcurve"/>
      <point x="165" y="-200" type="line"/>
      <point x="165" y="-128" type="line"/>
      <point x="420" y="-128" type="line"/>
      <point x="447" y="-128"/>
      <point x="447" y="-98" type="qcurve"/>
    </contour>
  </outline>
</glyph>
<glyph name="z" format="1">
  <advance width="612"/>
  <unicode hex="007A"/>
  <outline>
    <contour>
      <point x="523" y="72" type="line"/>
      <point x="523" y="0" type="line"/>
      <point x="91" y="0" type="line"/>
      <point x="91" y="124" type="line"/>
      <point x="445" y="412" type="line"/>
      <point x="445" y="424" type="line"/>
      <point x="97" y="424" type="line"/>
      <point x="97" y="496" type="line"/>
      <point x="511" y="496" type="line"/>
      <point x="511" y="376" type="line"/>
      <point x="155" y="84" type="line"/>
      <point x="155" y="72" type="line"/>
    </contour>
  </outline>
</glyph>
<glyph name="braceleft" format="1">
  <advance width="612"/>
  <unicode hex="007B"/>
  <outline>
    <contour>
      <point x="278" y="778" type="line"/>
      <point x="278" y="812"/>
      <point x="321" y="856"/>
      <point x="355" y="856" type="qcurve"/>
      <point x="452" y="856" type="line"/>
      <point x="452" y="784" type="line"/>
      <point x="383" y="784" type="line"/>
      <point x="356" y="784"/>
      <point x="356" y="754" type="qcurve"/>
      <point x="356" y="434" type="line"/>
      <point x="356" y="400"/>
      <point x="313" y="356"/>
      <point x="278" y="356" type="qcurve"/>
      <point x="266" y="356" type="line"/>
      <point x="266" y="344" type="line"/>
      <point x="278" y="344" type="line"/>
      <point x="313" y="344"/>
      <point x="356" y="300"/>
      <point x="356" y="266" type="qcurve"/>
      <point x="356" y="-54" type="line"/>
      <point x="356" y="-84"/>
      <point x="383" y="-84" type="qcurve"/>
      <point x="452" y="-84" type="line"/>
      <point x="452" y="-156" type="line"/>
      <point x="355" y="-156" type="line"/>
      <point x="321" y="-156"/>
      <point x="278" y="-112"/>
      <point x="278" y="-78" type="qcurve"/>
      <point x="278" y="267" type="line"/>
      <point x="278" y="296"/>
      <point x="251" y="296" type="qcurve"/>
      <point x="200" y="296" type="line"/>
      <point x="200" y="404" type="line"/>
      <point x="251" y="404" type="line"/>
      <point x="278" y="404"/>
      <point x="278" y="433" type="qcurve"/>
    </contour>
  </outline>
</glyph>
<glyph name="asciitilde" format="1">
  <advance width="612"/>
  <unicode hex="007E"/>
  <outline>
    <contour>
      <point x="338" y="316" type="qcurve"/>
      <point x="340" y="308"/>
      <point x="350" y="291"/>
      <point x="361" y="291" type="qcurve"/>
      <point x="369" y="291"/>
      <point x="381" y="300" type="qcurve"/>
      <point x="510" y="395" type="line"/>
      <point x="548" y="345" type="line"/>
      <point x="425" y="251" type="line"/>
      <point x="411" y="240"/>
      <point x="380" y="224"/>
      <point x="357" y="224" type="qcurve"/>
      <point x="318" y="224"/>
      <point x="284" y="265"/>
      <point x="273" y="300" type="qcurve"/>
      <point x="271" y="309"/>
      <point x="262" y="328"/>
      <point x="250" y="328" type="qcurve"/>
      <point x="241" y="328"/>
      <point x="227" y="317" type="qcurve"/>
      <point x="101" y="224" type="line"/>
      <point x="63" y="274" type="line"/>
      <point x="186" y="368" type="line"/>
      <point x="201" y="380"/>
      <point x="233" y="395"/>
      <point x="254" y="395" type="qcurve"/>
      <point x="292" y="395"/>
      <point x="327" y="352"/>
    </contour>
  </outline>
</glyph>
<glyph name="currency" format="1">
  <advance width="612"/>
  <unicode hex="00A4"/>
  <outline>
    <contour>
      <point x="56" y="350" type="qcurve"/>
      <point x="56" y="391"/>
      <point x="80" y="465"/>
      <point x="103" y="496" type="qcurve"/>
      <point x="44" y="555" type="line"/>
      <point x="101" y="612" type="line"/>
      <point x="160" y="553" type="line"/>
      <point x="191" y="575"/>
      <point x="264" y="600"/>
      <point x="306" y="600" type="qcurve"/>
      <point x="347" y="600"/>
      <point x="421" y="575"/>
      <point x="452" y="553" type="qcurve"/>
      <point x="511" y="612" type="line"/>
      <point x="568" y="555" type="line"/>
      <point x="509" y="496" type="line"/>
      <point x="531" y="465"/>
      <point x="556" y="391"/>
      <point x="556" y="350" type="qcurve"/>
      <point x="556" y="308"/>
      <point x="531" y="235"/>
      <point x="509" y="204" type="qcurve"/>
      <point x="568" y="145" type="line"/>
      <point x="511" y="88" type="line"/>
      <point x="452" y="147" type="line"/>
      <point x="421" y="124"/>
      <point x="347" y="100"/>
      <point x="306" y="100" type="qcurve"/>
      <point x="264" y="100"/>
      <point x="191" y="124"/>
      <point x="160" y="147" type="qcurve"/>
      <point x="101" y="88" type="line"/>
      <point x="44" y="145" type="line"/>
      <point x="103" y="204" type="line"/>
      <point x="80" y="235"/>
      <point x="56" y="308"/>
    </contour>
    <contour>
      <point x="134" y="350" type="qcurve"/>
      <point x="134" y="314"/>
      <point x="161" y="251"/>
      <point x="207" y="205"/>
      <point x="270" y="178"/>
      <point x="306" y="178" type="qcurve"/>
      <point x="342" y="178"/>
      <point x="405" y="205"/>
      <point x="451" y="251"/>
      <point x="478" y="314"/>
      <point x="478" y="350" type="qcurve"/>
      <point x="478" y="386"/>
      <point x="451" y="449"/>
      <point x="405" y="495"/>
      <point x="342" y="522"/>
      <point x="306" y="522" type="qcurve"/>
      <point x="270" y="522"/>
      <point x="207" y="495"/>
      <point x="161" y="449"/>
      <point x="134" y="386"/>
    </contour>
  </outline>
</glyph>
<glyph name="brokenbar" format="1">
  <advance width="612"/>
  <unicode hex="00A6"/>
  <outline>
    <contour>
      <point x="342" y="314" type="line"/>
      <point x="342" y="-156" type="line"/>
      <point x="270" y="-156" type="line"/>
      <point x="270" y="314" type="line"/>
    </contour>
    <contour>
      <point x="270" y="386" type="line"/>
      <point x="270" y="856" type="line"/>
      <point x="342" y="856" type="line"/>
      <point x="342" y="386" type="line"/>
    </contour>
  </outline>
</glyph>
<glyph name="degree" format="1">
  <advance width="612"/>
  <unicode hex="00B0"/>
  <outline>
    <contour>
      <point x="161" y="569" type="qcurve"/>
      <point x="161" y="599"/>
      <point x="184" y="652"/>
      <point x="223" y="691"/>
      <point x="276" y="714"/>
      <point x="306" y="714" type="qcurve"/>
      <point x="336" y="714"/>
      <point x="389" y="691"/>
      <point x="428" y="652"/>
      <point x="451" y="599"/>
      <point x="451" y="569" type="qcurve"/>
      <point x="451" y="539"/>
      <point x="428" y="486"/>
      <point x="389" y="447"/>
      <point x="336" y="424"/>
      <point x="306" y="424" type="qcurve"/>
      <point x="276" y="424"/>
      <point x="223" y="447"/>
      <point x="184" y="486"/>
      <point x="161" y="539"/>
    </contour>
    <contour>
      <point x="233" y="569" type="qcurve"/>
      <point x="233" y="539"/>
      <point x="276" y="496"/>
      <point x="306" y="496" type="qcurve"/>
      <point x="336" y="496"/>
      <point x="379" y="539"/>
      <point x="379" y="569" type="qcurve"/>
      <point x="379" y="599"/>
      <point x="336" y="642"/>
      <point x="306" y="642" type="qcurve"/>
      <point x="276" y="642"/>
      <point x="233" y="599"/>
    </contour>
  </outline>
</glyph>
<glyph name="twosuperior" format="1">
  <advance width="612"/>
  <unicode hex="00B2"/>
  <outline>
    <contour>
      <point x="405" y="460" type="line"/>
      <point x="405" y="412" type="line"/>
      <point x="210" y="412" type="line"/>
      <point x="210" y="466" type="line"/>
      <point x="210" y="508"/>
      <point x="258" y="553"/>
      <point x="306" y="564" type="qcurve"/>
      <point x="339" y="572"/>
      <point x="354" y="600"/>
      <point x="354" y="614" type="qcurve"/>
      <point x="354" y="631"/>
      <point x="332" y="658"/>
      <point x="308" y="658" type="qcurve"/>
      <point x="285" y="658"/>
      <point x="258" y="630"/>
      <point x="258" y="604" type="qcurve"/>
      <point x="258" y="586" type="line"/>
      <point x="204" y="586" type="line"/>
      <point x="204" y="604" type="line"/>
      <point x="204" y="646"/>
      <point x="259" y="706"/>
      <point x="310" y="706" type="qcurve"/>
      <point x="334" y="706"/>
      <point x="371" y="691"/>
      <point x="395" y="666"/>
      <point x="408" y="633"/>
      <point x="408" y="616" type="qcurve"/>
      <point x="408" y="580"/>
      <point x="372" y="528"/>
      <point x="324" y="518" type="qcurve"/>
      <point x="288" y="510"/>
      <point x="264" y="486"/>
      <point x="264" y="466" type="qcurve"/>
      <point x="264" y="460" type="line"/>
    </contour>
  </outline>
</glyph>
<glyph name="paragraph" format="1">
  <advance width="612"/>
  <unicode hex="00B6"/>
  <outline>
    <contour>
      <point x="269" y="424" type="line"/>
      <point x="239" y="424"/>
      <point x="186" y="447"/>
      <point x="147" y="486"/>
      <point x="124" y="539"/>
      <point x="124" y="569" type="qcurve"/>
      <point x="124" y="599"/>
      <point x="147" y="652"/>
      <point x="186" y="691"/>
      <point x="239" y="714"/>
      <point x="269" y="714" type="qcurve"/>
      <point x="449" y="714" type="line"/>
      <point x="449" y="218" type="line"/>
      <point x="377" y="218" type="line"/>
      <point x="377" y="642" type="line"/>
      <point x="341" y="642" type="line"/>
      <point x="341" y="218" type="line"/>
      <point x="269" y="218" type="line"/>
    </contour>
    <contour>
      <point x="269" y="642" type="line"/>
      <point x="239" y="642"/>
      <point x="196" y="599"/>
      <point x="196" y="569" type="qcurve"/>
      <point x="196" y="539"/>
      <point x="239" y="496"/>
      <point x="269" y="496" type="qcurve"/>
    </contour>
  </outline>
</glyph>
<glyph name="ordmasculine" format="1">
  <advance width="612"/>
  <unicode hex="00BA"/>
  <outline>
    <contour>
      <point x="157" y="556" type="qcurve"/>
      <point x="157" y="593"/>
      <point x="182" y="649"/>
      <point x="224" y="687"/>
      <point x="277" y="706"/>
      <point x="306" y="706" type="qcurve"/>
      <point x="334" y="706"/>
      <point x="388" y="687"/>
      <point x="430" y="649"/>
      <point x="455" y="593"/>
      <point x="455" y="556" type="qcurve"/>
      <point x="455" y="519"/>
      <point x="430" y="463"/>
      <point x="388" y="425"/>
      <point x="334" y="406"/>
      <point x="306" y="406" type="qcurve"/>
      <point x="277" y="406"/>
      <point x="224" y="425"/>
      <point x="182" y="463"/>
      <point x="157" y="519"/>
    </contour>
    <contour>
      <point x="306" y="466" type="qcurve"/>
      <point x="340" y="466"/>
      <point x="389" y="512"/>
      <point x="389" y="556" type="qcurve"/>
      <point x="389" y="600"/>
      <point x="340" y="646"/>
      <point x="306" y="646" type="qcurve"/>
      <point x="272" y="646"/>
      <point x="223" y="600"/>
      <point x="223" y="556" type="qcurve"/>
      <point x="223" y="512"/>
      <point x="272" y="466"/>
    </contour>
  </outline>
</glyph>
<glyph name="Ccedilla" format="1">
  <advance width="612"/>
  <unicode hex="00C7"/>
  <outline>
    <contour>
      <point x="310" y="64" type="qcurve"/>
      <point x="353" y="64"/>
      <point x="414" y="93"/>
      <point x="453" y="142"/>
      <point x="472" y="205"/>
      <point x="472" y="240" type="qcurve"/>
      <point x="472" y="252" type="line"/>
      <point x="556" y="252" type="line"/>
      <point x="556" y="240" type="line"/>
      <point x="556" y="187"/>
      <point x="524" y="94"/>
      <point x="462" y="25"/>
      <point x="370" y="-14"/>
      <point x="310" y="-14" type="qcurve"/>
      <point x="302" y="-14" type="line"/>
      <point x="290" y="-68" type="line"/>
      <point x="296" y="-68" type="line"/>
      <point x="309" y="-36"/>
      <point x="350" y="-36" type="qcurve"/>
      <point x="385" y="-36"/>
      <point x="426" y="-86"/>
      <point x="426" y="-121" type="qcurve"/>
      <point x="426" y="-163"/>
      <point x="372" y="-212"/>
      <point x="333" y="-212" type="qcurve"/>
      <point x="290" y="-212"/>
      <point x="244" y="-172"/>
      <point x="236" y="-142" type="qcurve"/>
      <point x="284" y="-124" type="line"/>
      <point x="287" y="-139"/>
      <point x="310" y="-164"/>
      <point x="332" y="-164" type="qcurve"/>
      <point x="347" y="-164"/>
      <point x="372" y="-144"/>
      <point x="372" y="-122" type="qcurve"/>
      <point x="372" y="-104"/>
      <point x="351" y="-84"/>
      <point x="337" y="-84" type="qcurve"/>
      <point x="319" y="-84"/>
      <point x="312" y="-98" type="qcurve"/>
      <point x="236" y="-98" type="line"/>
      <point x="236" y="-92" type="line"/>
      <point x="254" y="-9" type="line"/>
      <point x="163" y="7"/>
      <point x="64" y="149"/>
      <point x="64" y="272" type="qcurve"/>
      <point x="64" y="428" type="line"/>
      <point x="64" y="564"/>
      <point x="194" y="714"/>
      <point x="310" y="714" type="qcurve"/>
      <point x="370" y="714"/>
      <point x="462" y="675"/>
      <point x="524" y="606"/>
      <point x="556" y="513"/>
      <point x="556" y="460" type="qcurve"/>
      <point x="556" y="448" type="line"/>
      <point x="472" y="448" type="line"/>
      <point x="472" y="460" type="line"/>
      <point x="471" y="494"/>
      <point x="452" y="558"/>
      <point x="413" y="607"/>
      <point x="353" y="636"/>
      <point x="310" y="636" type="qcurve"/>
      <point x="229" y="636"/>
      <point x="148" y="518"/>
      <point x="148" y="422" type="qcurve"/>
      <point x="148" y="278" type="line"/>
      <point x="148" y="175"/>
      <point x="229" y="64"/>
    </contour>
  </outline>
</glyph>
<glyph name="Oslash" format="1">
  <advance width="612"/>
  <unicode hex="00D8"/>
  <outline>
    <contour>
      <point x="161" y="27" type="line"/>
      <point x="112" y="61"/>
      <point x="60" y="184"/>
      <point x="60" y="272" type="qcurve"/>
      <point x="60" y="428" type="line"/>
      <point x="60" y="564"/>
      <point x="190" y="714"/>
      <point x="306" y="714" type="qcurve"/>
      <point x="346" y="714"/>
      <point x="384" y="703" type="qcurve"/>
      <point x="407" y="774" type="line"/>
      <point x="477" y="752" type="line"/>
      <point x="450" y="671" type="line"/>
      <point x="499" y="636"/>
      <point x="552" y="513"/>
      <point x="552" y="428" type="qcurve"/>
      <point x="552" y="272" type="line"/>
      <point x="552" y="132"/>
      <point x="422" y="-14"/>
      <point x="306" y="-14" type="qcurve"/>
      <point x="262" y="-14"/>
      <point x="229" y="-4" type="qcurve"/>
      <point x="202" y="-86" type="line"/>
      <point x="131" y="-64" type="line"/>
    </contour>
    <contour>
      <point x="144" y="278" type="line"/>
      <point x="144" y="168"/>
      <point x="189" y="113" type="qcurve"/>
      <point x="359" y="628" type="line"/>
      <point x="333" y="636"/>
      <point x="306" y="636" type="qcurve"/>
      <point x="225" y="636"/>
      <point x="144" y="518"/>
      <point x="144" y="422" type="qcurve"/>
    </contour>
    <contour>
      <point x="306" y="64" type="qcurve"/>
      <point x="387" y="64"/>
      <point x="468" y="175"/>
      <point x="468" y="278" type="qcurve"/>
      <point x="468" y="422" type="line"/>
      <point x="468" y="526"/>
      <point x="422" y="584" type="qcurve"/>
      <point x="254" y="71" type="line"/>
      <point x="275" y="64"/>
    </contour>
  </outline>
</glyph>
<glyph name="germandbls" format="1">
  <advance width="612"/>
  <unicode hex="00DF"/>
  <outline>
    <contour>
      <point x="343" y="355" type="line"/>
      <point x="368" y="355" type="line"/>
      <point x="406" y="355"/>
      <point x="477" y="331"/>
      <point x="531" y="284"/>
      <point x="563" y="215"/>
      <point x="563" y="170" type="qcurve"/>
      <point x="563" y="164" type="line"/>
      <point x="563" y="124"/>
      <point x="537" y="59"/>
      <point x="490" y="12"/>
      <point x="425" y="-14"/>
      <point x="386" y="-14" type="qcurve"/>
      <point x="342" y="-14"/>
      <point x="277" y="14"/>
      <point x="234" y="59"/>
      <point x="213" y="116"/>
      <point x="212" y="146" type="qcurve"/>
      <point x="286" y="158" type="line"/>
      <point x="286" y="112"/>
      <point x="338" y="58"/>
      <point x="382" y="58" type="qcurve"/>
      <point x="427" y="58"/>
      <point x="485" y="110"/>
      <point x="485" y="167" type="qcurve"/>
      <point x="485" y="198"/>
      <point x="462" y="243"/>
      <point x="423" y="270"/>
      <point x="369" y="283"/>
      <point x="338" y="283" type="qcurve"/>
      <point x="284" y="283" type="line"/>
      <point x="284" y="430" type="line"/>
      <point x="306" y="430" type="line"/>
      <point x="357" y="430"/>
      <point x="415" y="484"/>
      <point x="415" y="532" type="qcurve"/>
      <point x="415" y="537" type="line"/>
      <point x="415" y="561"/>
      <point x="397" y="599"/>
      <point x="365" y="627"/>
      <point x="323" y="642"/>
      <point x="299" y="642" type="qcurve"/>
      <point x="243" y="642"/>
      <point x="176" y="568"/>
      <point x="176" y="502" type="qcurve"/>
      <point x="176" y="0" type="line"/>
      <point x="98" y="0" type="line"/>
      <point x="98" y="424" type="line"/>
      <point x="38" y="424" type="line"/>
      <point x="38" y="496" type="line"/>
      <point x="98" y="496" type="line"/>
      <point x="98" y="510" type="line"/>
      <point x="98" y="558"/>
      <point x="128" y="634"/>
      <point x="182" y="686"/>
      <point x="255" y="714"/>
      <point x="299" y="714" type="qcurve"/>
      <point x="341" y="714"/>
      <point x="412" y="689"/>
      <point x="464" y="643"/>
      <point x="493" y="578"/>
      <point x="493" y="537" type="qcurve"/>
      <point x="493" y="531" type="line"/>
      <point x="493" y="492"/>
      <point x="467" y="434"/>
      <point x="425" y="393"/>
      <point x="371" y="370"/>
      <point x="343" y="367" type="qcurve"/>
    </contour>
  </outline>
</glyph>
<glyph name="ae" format="1">
  <advance width="612"/>
  <unicode hex="00E6"/>
  <outline>
    <contour>
      <point x="306" y="510" type="line"/>
      <point x="367" y="510"/>
      <point x="456" y="465"/>
      <point x="513" y="399"/>
      <point x="540" y="321"/>
      <point x="540" y="288" type="qcurve"/>
      <point x="540" y="224" type="line"/>
      <point x="341" y="224" type="line"/>
      <point x="341" y="62" type="line"/>
      <point x="394" y="70"/>
      <point x="448" y="125"/>
      <point x="460" y="162" type="qcurve"/>
      <point x="534" y="142" type="line"/>
      <point x="513" y="73"/>
      <point x="401" y="-14"/>
      <point x="306" y="-14" type="qcurve"/>
      <point x="246" y="-14" type="line"/>
      <point x="205" y="-14"/>
      <point x="140" y="9"/>
      <point x="95" y="49"/>
      <point x="72" y="103"/>
      <point x="72" y="134" type="qcurve"/>
      <point x="72" y="146" type="line"/>
      <point x="72" y="181"/>
      <point x="99" y="237"/>
      <point x="146" y="276"/>
      <point x="210" y="296"/>
      <point x="248" y="296" type="qcurve"/>
      <point x="263" y="296" type="line"/>
      <point x="263" y="437" type="line"/>
      <point x="219" y="432"/>
      <point x="166" y="378"/>
      <point x="158" y="330" type="qcurve"/>
      <point x="84" y="348" type="line"/>
      <point x="90" y="381"/>
      <point x="120" y="439"/>
      <point x="170" y="484"/>
      <point x="239" y="510"/>
      <point x="283" y="510" type="qcurve"/>
    </contour>
    <contour>
      <point x="149" y="140" type="qcurve"/>
      <point x="149" y="103"/>
      <point x="203" y="58"/>
      <point x="253" y="58" type="qcurve"/>
      <point x="263" y="58" type="line"/>
      <point x="263" y="224" type="line"/>
      <point x="257" y="224" type="line"/>
      <point x="206" y="224"/>
      <point x="149" y="184"/>
    </contour>
    <contour>
      <point x="462" y="296" type="line"/>
      <point x="459" y="351"/>
      <point x="389" y="422"/>
      <point x="341" y="432" type="qcurve"/>
      <point x="341" y="296" type="line"/>
    </contour>
  </outline>
</glyph>
<glyph name="ccedilla" format="1">
  <advance width="612"/>
  <unicode hex="00E7"/>
  <outline>
    <contour>
      <point x="551" y="176" type="line"/>
      <point x="543" y="135"/>
      <point x="504" y="65"/>
      <point x="444" y="14"/>
      <point x="364" y="-14"/>
      <point x="315" y="-14" type="qcurve"/>
      <point x="307" y="-14" type="line"/>
      <point x="295" y="-68" type="line"/>
      <point x="301" y="-68" type="line"/>
      <point x="314" y="-36"/>
      <point x="355" y="-36" type="qcurve"/>
      <point x="390" y="-36"/>
      <point x="431" y="-86"/>
      <point x="431" y="-121" type="qcurve"/>
      <point x="431" y="-163"/>
      <point x="377" y="-212"/>
      <point x="338" y="-212" type="qcurve"/>
      <point x="295" y="-212"/>
      <point x="249" y="-172"/>
      <point x="241" y="-142" type="qcurve"/>
      <point x="289" y="-124" type="line"/>
      <point x="292" y="-139"/>
      <point x="315" y="-164"/>
      <point x="337" y="-164" type="qcurve"/>
      <point x="352" y="-164"/>
      <point x="377" y="-144"/>
      <point x="377" y="-122" type="qcurve"/>
      <point x="377" y="-104"/>
      <point x="356" y="-84"/>
      <point x="342" y="-84" type="qcurve"/>
      <point x="324" y="-84"/>
      <point x="317" y="-98" type="qcurve"/>
      <point x="241" y="-98" type="line"/>
      <point x="241" y="-92" type="line"/>
      <point x="259" y="-9" type="line"/>
      <point x="217" y="-1"/>
      <point x="144" y="39"/>
      <point x="90" y="102"/>
      <point x="59" y="187"/>
      <point x="59" y="240" type="qcurve"/>
      <point x="59" y="252" type="line"/>
      <point x="59" y="312"/>
      <point x="100" y="408"/>
      <point x="170" y="474"/>
      <point x="263" y="510"/>
      <point x="315" y="510" type="qcurve"/>
      <point x="362" y="510"/>
      <point x="442" y="482"/>
      <point x="503" y="431"/>
      <point x="542" y="361"/>
      <point x="549" y="320" type="qcurve"/>
      <point x="471" y="302" type="line"/>
      <point x="468" y="328"/>
      <point x="445" y="377"/>
      <point x="406" y="414"/>
      <point x="350" y="436"/>
      <point x="313" y="436" type="qcurve"/>
      <point x="277" y="436"/>
      <point x="214" y="409"/>
      <point x="166" y="360"/>
      <point x="139" y="292"/>
      <point x="139" y="252" type="qcurve"/>
      <point x="139" y="240" type="line"/>
      <point x="139" y="198"/>
      <point x="166" y="131"/>
      <point x="214" y="85"/>
      <point x="278" y="60"/>
      <point x="315" y="60" type="qcurve"/>
      <point x="352" y="60"/>
      <point x="407" y="83"/>
      <point x="446" y="120"/>
      <point x="469" y="168"/>
      <point x="473" y="194" type="qcurve"/>
    </contour>
  </outline>
</glyph>
<glyph name="divide" format="1">
  <advance width="612"/>
  <unicode hex="00F7"/>
  <outline>
    <contour>
      <point x="97" y="386" type="line"/>
      <point x="515" y="386" type="line"/>
      <point x="515" y="314" type="line"/>
      <point x="97" y="314" type="line"/>
    </contour>
    <contour>
      <point x="236" y="184" type="qcurve"/>
      <point x="236" y="213"/>
      <point x="277" y="254"/>
      <point x="306" y="254" type="qcurve"/>
      <point x="335" y="254"/>
      <point x="376" y="213"/>
      <point x="376" y="184" type="qcurve"/>
      <point x="376" y="155"/>
      <point x="335" y="114"/>
      <point x="306" y="114" type="qcurve"/>
      <point x="277" y="114"/>
      <point x="236" y="155"/>
    </contour>
    <contour>
      <point x="236" y="516" type="qcurve"/>
      <point x="236" y="545"/>
      <point x="277" y="586"/>
      <point x="306" y="586" type="qcurve"/>
      <point x="335" y="586"/>
      <point x="376" y="545"/>
      <point x="376" y="516" type="qcurve"/>
      <point x="376" y="487"/>
      <point x="335" y="446"/>
      <point x="306" y="446" type="qcurve"/>
      <point x="277" y="446"/>
      <point x="236" y="487"/>
    </contour>
  </outline>
</glyph>
<glyph name="Aogonek" format="1">
  <advance width="612"/>
  <unicode hex="0104"/>
  <outline>
    <contour>
      <point x="456" y="174" type="line"/>
      <point x="156" y="174" type="line"/>
      <point x="105" y="0" type="line"/>
      <point x="15" y="0" type="line"/>
      <point x="227" y="700" type="line"/>
      <point x="385" y="700" type="line"/>
      <point x="597" y="0" type="line"/>
      <point x="576" y="0" type="line"/>
      <point x="560" y="-68" type="line"/>
      <point x="559" y="-73"/>
      <point x="559" y="-76" type="qcurve"/>
      <point x="559" y="-98"/>
      <point x="582" y="-98" type="qcurve"/>
      <point x="624" y="-98" type="line"/>
      <point x="624" y="-164" type="line"/>
      <point x="568" y="-164" type="line"/>
      <point x="539" y="-164"/>
      <point x="490" y="-127"/>
      <point x="490" y="-90" type="qcurve"/>
      <point x="490" y="-81"/>
      <point x="493" y="-66" type="qcurve"/>
      <point x="507" y="0" type="line"/>
    </contour>
    <contour>
      <point x="300" y="664" type="line"/>
      <point x="179" y="252" type="line"/>
      <point x="433" y="252" type="line"/>
      <point x="312" y="664" type="line"/>
    </contour>
  </outline>
</glyph>
<glyph name="aogonek" format="1">
  <advance width="612"/>
  <unicode hex="0105"/>
  <outline>
    <contour>
      <point x="447" y="84" type="line"/>
      <point x="435" y="84" type="line"/>
      <point x="411" y="34"/>
      <point x="326" y="-14"/>
      <point x="279" y="-14" type="qcurve"/>
      <point x="230" y="-14"/>
      <point x="146" y="19"/>
      <point x="83" y="84"/>
      <point x="47" y="178"/>
      <point x="47" y="240" type="qcurve"/>
      <point x="47" y="256" type="line"/>
      <point x="47" y="317"/>
      <point x="83" y="411"/>
      <point x="146" y="476"/>
      <point x="230" y="510"/>
      <point x="277" y="510" type="qcurve"/>
      <point x="328" y="510"/>
      <point x="411" y="465"/>
      <point x="435" y="418" type="qcurve"/>
      <point x="447" y="418" type="line"/>
      <point x="447" y="496" type="line"/>
      <point x="525" y="496" type="line"/>
      <point x="525" y="102" type="line"/>
      <point x="525" y="72"/>
      <point x="552" y="72" type="qcurve"/>
      <point x="577" y="72" type="line"/>
      <point x="577" y="0" type="line"/>
      <point x="529" y="0" type="line"/>
      <point x="513" y="-68" type="line"/>
      <point x="512" y="-73"/>
      <point x="512" y="-76" type="qcurve"/>
      <point x="512" y="-98"/>
      <point x="535" y="-98" type="qcurve"/>
      <point x="577" y="-98" type="line"/>
      <point x="577" y="-164" type="line"/>
      <point x="521" y="-164" type="line"/>
      <point x="492" y="-164"/>
      <point x="443" y="-127"/>
      <point x="443" y="-90" type="qcurve"/>
      <point x="443" y="-81"/>
      <point x="446" y="-66" type="qcurve"/>
      <point x="466" y="25" type="line"/>
      <point x="447" y="46"/>
      <point x="447" y="78" type="qcurve"/>
    </contour>
    <contour>
      <point x="287" y="60" type="qcurve"/>
      <point x="322" y="60"/>
      <point x="381" y="86"/>
      <point x="423" y="134"/>
      <point x="447" y="201"/>
      <point x="447" y="242" type="qcurve"/>
      <point x="447" y="254" type="line"/>
      <point x="447" y="294"/>
      <point x="423" y="361"/>
      <point x="380" y="409"/>
      <point x="321" y="436"/>
      <point x="287" y="436" type="qcurve"/>
      <point x="252" y="436"/>
      <point x="194" y="410"/>
      <point x="151" y="363"/>
      <point x="127" y="296"/>
      <point x="127" y="256" type="qcurve"/>
      <point x="127" y="240" type="line"/>
      <point x="127" y="155"/>
      <point x="216" y="60"/>
    </contour>
  </outline>
</glyph>
<glyph name="Eogonek" format="1">
  <advance width="612"/>
  <unicode hex="0118"/>
  <outline>
    <contour>
      <point x="94" y="700" type="line"/>
      <point x="518" y="700" type="line"/>
      <point x="518" y="622" type="line"/>
      <point x="178" y="622" type="line"/>
      <point x="178" y="390" type="line"/>
      <point x="512" y="390" type="line"/>
      <point x="512" y="312" type="line"/>
      <point x="178" y="312" type="line"/>
      <point x="178" y="78" type="line"/>
      <point x="524" y="78" type="line"/>
      <point x="524" y="0" type="line"/>
      <point x="508" y="-68" type="line"/>
      <point x="507" y="-73"/>
      <point x="507" y="-76" type="qcurve"/>
      <point x="507" y="-98"/>
      <point x="530" y="-98" type="qcurve"/>
      <point x="572" y="-98" type="line"/>
      <point x="572" y="-164" type="line"/>
      <point x="516" y="-164" type="line"/>
      <point x="486" y="-164"/>
      <point x="438" y="-127"/>
      <point x="438" y="-90" type="qcurve"/>
      <point x="438" y="-81"/>
      <point x="441" y="-66" type="qcurve"/>
      <point x="455" y="0" type="line"/>
      <point x="94" y="0" type="line"/>
    </contour>
  </outline>
</glyph>
<glyph name="imacron" format="1">
  <advance width="612"/>
  <unicode hex="012B"/>
  <outline>
    <contour>
      <point x="351" y="570" type="line"/>
      <point x="117" y="570" type="line"/>
      <point x="117" y="636" type="line"/>
      <point x="351" y="636" type="line"/>
    </contour>
    <component base="dotlessi"/>
  </outline>
</glyph>
<glyph name="Iogonek" format="1">
  <advance width="612"/>
  <unicode hex="012E"/>
  <outline>
    <contour>
      <point x="84" y="700" type="line"/>
      <point x="528" y="700" type="line"/>
      <point x="528" y="622" type="line"/>
      <point x="348" y="622" type="line"/>
      <point x="348" y="78" type="line"/>
      <point x="528" y="78" type="line"/>
      <point x="528" y="0" type="line"/>
      <point x="512" y="-68" type="line"/>
      <point x="511" y="-73"/>
      <point x="511" y="-76" type="qcurve"/>
      <point x="511" y="-98"/>
      <point x="534" y="-98" type="qcurve"/>
      <point x="576" y="-98" type="line"/>
      <point x="576" y="-164" type="line"/>
      <point x="520" y="-164" type="line"/>
      <point x="490" y="-164"/>
      <point x="442" y="-127"/>
      <point x="442" y="-90" type="qcurve"/>
      <point x="442" y="-81"/>
      <point x="445" y="-66" type="qcurve"/>
      <point x="459" y="0" type="line"/>
      <point x="84" y="0" type="line"/>
      <point x="84" y="78" type="line"/>
      <point x="264" y="78" type="line"/>
      <point x="264" y="622" type="line"/>
      <point x="84" y="622" type="line"/>
    </contour>
  </outline>
</glyph>
<glyph name="IJ" format="1">
  <advance width="612"/>
  <unicode hex="0132"/>
  <outline>
    <contour>
      <point x="73" y="700" type="line"/>
      <point x="157" y="700" type="line"/>
      <point x="157" y="342" type="line"/>
      <point x="73" y="342" type="line"/>
    </contour>
    <contour>
      <point x="505" y="210" type="line"/>
      <point x="505" y="101"/>
      <point x="398" y="-14"/>
      <point x="295" y="-14" type="qcurve"/>
      <point x="192" y="-14"/>
      <point x="73" y="101"/>
      <point x="73" y="210" type="qcurve"/>
      <point x="73" y="264" type="line"/>
      <point x="157" y="264" type="line"/>
      <point x="157" y="210" type="line"/>
      <point x="157" y="144"/>
      <point x="225" y="64"/>
      <point x="295" y="64" type="qcurve"/>
      <point x="365" y="64"/>
      <point x="421" y="144"/>
      <point x="421" y="210" type="qcurve"/>
      <point x="421" y="622" type="line"/>
      <point x="349" y="622" type="line"/>
      <point x="349" y="700" type="line"/>
      <point x="565" y="700" type="line"/>
      <point x="565" y="622" type="line"/>
      <point x="505" y="622" type="line"/>
    </contour>
  </outline>
</glyph>
<glyph name="Eng" format="1">
  <advance width="612"/>
  <unicode hex="014A"/>
  <outline>
    <contour>
      <point x="443" y="36" type="line"/>
      <point x="455" y="36" type="line"/>
      <point x="455" y="700" type="line"/>
      <point x="539" y="700" type="line"/>
      <point x="539" y="-80" type="line"/>
      <point x="539" y="-139"/>
      <point x="478" y="-200"/>
      <point x="419" y="-200" type="qcurve"/>
      <point x="241" y="-200" type="line"/>
      <point x="241" y="-122" type="line"/>
      <point x="401" y="-122" type="line"/>
      <point x="431" y="-122"/>
      <point x="455" y="-94"/>
      <point x="455" y="-68" type="qcurve"/>
      <point x="455" y="0" type="line"/>
      <point x="371" y="0" type="line"/>
      <point x="169" y="664" type="line"/>
      <point x="157" y="664" type="line"/>
      <point x="157" y="0" type="line"/>
      <point x="73" y="0" type="line"/>
      <point x="73" y="700" type="line"/>
      <point x="241" y="700" type="line"/>
    </contour>
  </outline>
</glyph>
<glyph name="oe" format="1">
  <advance width="612"/>
  <unicode hex="0153"/>
  <outline>
    <contour>
      <point x="317" y="-14" type="qcurve"/>
      <point x="267" y="-14"/>
      <point x="177" y="20"/>
      <point x="109" y="85"/>
      <point x="68" y="180"/>
      <point x="68" y="242" type="qcurve"/>
      <point x="68" y="254" type="line"/>
      <point x="68" y="315"/>
      <point x="109" y="410"/>
      <point x="178" y="476"/>
      <point x="268" y="510"/>
      <point x="317" y="510" type="qcurve"/>
      <point x="378" y="510"/>
      <point x="467" y="465"/>
      <point x="524" y="399"/>
      <point x="551" y="321"/>
      <point x="551" y="288" type="qcurve"/>
      <point x="551" y="224" type="line"/>
      <point x="352" y="224" type="line"/>
      <point x="352" y="62" type="line"/>
      <point x="405" y="70"/>
      <point x="459" y="125"/>
      <point x="471" y="162" type="qcurve"/>
      <point x="545" y="142" type="line"/>
      <point x="524" y="73"/>
      <point x="412" y="-14"/>
    </contour>
    <contour>
      <point x="148" y="242" type="line"/>
      <point x="148" y="170"/>
      <point x="218" y="79"/>
      <point x="274" y="65" type="qcurve"/>
      <point x="274" y="430" type="line"/>
      <point x="219" y="416"/>
      <point x="148" y="323"/>
      <point x="148" y="254" type="qcurve"/>
    </contour>
    <contour>
      <point x="473" y="296" type="line"/>
      <point x="470" y="351"/>
      <point x="400" y="422"/>
      <point x="352" y="432" type="qcurve"/>
      <point x="352" y="296" type="line"/>
    </contour>
  </outline>
</glyph>
<glyph name="Sacute" format="1">
  <advance width="612"/>
  <unicode hex="015A"/>
  <outline>
    <contour>
      <point x="471" y="498" type="line"/>
      <point x="471" y="532"/>
      <point x="444" y="584"/>
      <point x="398" y="618"/>
      <point x="338" y="636"/>
      <point x="305" y="636" type="qcurve"/>
      <point x="276" y="636"/>
      <point x="224" y="621"/>
      <point x="183" y="593"/>
      <point x="159" y="552"/>
      <point x="159" y="525" type="qcurve"/>
      <point x="159" y="519" type="line"/>
      <point x="159" y="490"/>
      <point x="183" y="449"/>
      <point x="230" y="420"/>
      <point x="300" y="401"/>
      <point x="347" y="394" type="qcurve"/>
      <point x="457" y="377"/>
      <point x="561" y="282"/>
      <point x="561" y="202" type="qcurve"/>
      <point x="561" y="190" type="line"/>
      <point x="561" y="145"/>
      <point x="530" y="70"/>
      <point x="469" y="16"/>
      <point x="379" y="-14"/>
      <point x="320" y="-14" type="qcurve"/>
      <point x="253" y="-14"/>
      <point x="150" y="25"/>
      <point x="81" y="94"/>
      <point x="45" y="187"/>
      <point x="45" y="242" type="qcurve"/>
      <point x="45" y="272" type="line"/>
      <point x="129" y="272" type="line"/>
      <point x="129" y="248" type="line"/>
      <point x="129" y="156"/>
      <point x="230" y="64"/>
      <point x="320" y="64" type="qcurve"/>
      <point x="398" y="64"/>
      <point x="477" y="133"/>
      <point x="477" y="190" type="qcurve"/>
      <point x="477" y="196" type="line"/>
      <point x="477" y="251"/>
      <point x="396" y="309"/>
      <point x="305" y="322" type="qcurve"/>
      <point x="252" y="329"/>
      <point x="167" y="358"/>
      <point x="107" y="405"/>
      <point x="75" y="471"/>
      <point x="75" y="516" type="qcurve"/>
      <point x="75" y="528" type="line"/>
      <point x="75" y="569"/>
      <point x="109" y="637"/>
      <point x="170" y="687"/>
      <point x="255" y="714"/>
      <point x="306" y="714" type="qcurve"/>
      <point x="365" y="714"/>
      <point x="458" y="680"/>
      <point x="522" y="623"/>
      <point x="555" y="546"/>
      <point x="555" y="504" type="qcurve"/>
      <point x="555" y="462" type="line"/>
      <point x="471" y="462" type="line"/>
    </contour>
    <component base="acute" xOffset="28" yOffset="204"/>
  </outline>
</glyph>
<glyph name="Scedilla" format="1">
  <advance width="612"/>
  <unicode hex="015E"/>
  <outline>
    <contour>
      <point x="471" y="498" type="line"/>
      <point x="471" y="532"/>
      <point x="444" y="584"/>
      <point x="398" y="618"/>
      <point x="338" y="636"/>
      <point x="305" y="636" type="qcurve"/>
      <point x="276" y="636"/>
      <point x="224" y="621"/>
      <point x="183" y="593"/>
      <point x="159" y="552"/>
      <point x="159" y="525" type="qcurve"/>
      <point x="159" y="519" type="line"/>
      <point x="159" y="490"/>
      <point x="183" y="449"/>
      <point x="230" y="420"/>
      <point x="300" y="401"/>
      <point x="347" y="394" type="qcurve"/>
      <point x="457" y="377"/>
      <point x="561" y="282"/>
      <point x="561" y="202" type="qcurve"/>
      <point x="561" y="190" type="line"/>
      <point x="561" y="145"/>
      <point x="530" y="70"/>
      <point x="469" y="16"/>
      <point x="379" y="-14"/>
      <point x="320" y="-14" type="qcurve"/>
      <point x="312" y="-14" type="line"/>
      <point x="300" y="-68" type="line"/>
      <point x="306" y="-68" type="line"/>
      <point x="319" y="-36"/>
      <point x="360" y="-36" type="qcurve"/>
      <point x="395" y="-36"/>
      <point x="436" y="-86"/>
      <point x="436" y="-121" type="qcurve"/>
      <point x="436" y="-163"/>
      <point x="382" y="-212"/>
      <point x="343" y="-212" type="qcurve"/>
      <point x="300" y="-212"/>
      <point x="254" y="-172"/>
      <point x="246" y="-142" type="qcurve"/>
      <point x="294" y="-124" type="line"/>
      <point x="297" y="-139"/>
      <point x="320" y="-164"/>
      <point x="342" y="-164" type="qcurve"/>
      <point x="357" y="-164"/>
      <point x="382" y="-144"/>
      <point x="382" y="-122" type="qcurve"/>
      <point x="382" y="-104"/>
      <point x="361" y="-84"/>
      <point x="347" y="-84" type="qcurve"/>
      <point x="329" y="-84"/>
      <point x="322" y="-98" type="qcurve"/>
      <point x="246" y="-98" type="line"/>
      <point x="246" y="-92" type="line"/>
      <point x="264" y="-10" type="line"/>
      <point x="210" y="-2"/>
      <point x="129" y="42"/>
      <point x="73" y="108"/>
      <point x="45" y="193"/>
      <point x="45" y="242" type="qcurve"/>
      <point x="45" y="272" type="line"/>
      <point x="129" y="272" type="line"/>
      <point x="129" y="248" type="line"/>
      <point x="129" y="156"/>
      <point x="230" y="64"/>
      <point x="320" y="64" type="qcurve"/>
      <point x="398" y="64"/>
      <point x="477" y="133"/>
      <point x="477" y="190" type="qcurve"/>
      <point x="477" y="196" type="line"/>
      <point x="477" y="251"/>
      <point x="396" y="309"/>
      <point x="305" y="322" type="qcurve"/>
      <point x="252" y="329"/>
      <point x="167" y="358"/>
      <point x="107" y="405"/>
      <point x="75" y="471"/>
      <point x="75" y="516" type="qcurve"/>
      <point x="75" y="528" type="line"/>
      <point x="75" y="569"/>
      <point x="109" y="637"/>
      <point x="170" y="687"/>
      <point x="255" y="714"/>
      <point x="306" y="714" type="qcurve"/>
      <point x="365" y="714"/>
      <point x="458" y="680"/>
      <point x="522" y="623"/>
      <point x="555" y="546"/>
      <point x="555" y="504" type="qcurve"/>
      <point x="555" y="462" type="line"/>
      <point x="471" y="462" type="line"/>
    </contour>
  </outline>
</glyph>
<glyph name="scedilla" format="1">
  <advance width="612"/>
  <unicode hex="015F"/>
  <outline>
    <contour>
      <point x="190" y="368" type="qcurve"/>
      <point x="190" y="332"/>
      <point x="251" y="294"/>
      <point x="332" y="288" type="qcurve"/>
      <point x="419" y="281"/>
      <point x="510" y="212"/>
      <point x="510" y="146" type="qcurve"/>
      <point x="510" y="140" type="line"/>
      <point x="510" y="104"/>
      <point x="481" y="47"/>
      <point x="430" y="7"/>
      <point x="357" y="-14"/>
      <point x="314" y="-14" type="qcurve"/>
      <point x="306" y="-14" type="line"/>
      <point x="294" y="-68" type="line"/>
      <point x="300" y="-68" type="line"/>
      <point x="313" y="-36"/>
      <point x="354" y="-36" type="qcurve"/>
      <point x="389" y="-36"/>
      <point x="430" y="-86"/>
      <point x="430" y="-121" type="qcurve"/>
      <point x="430" y="-163"/>
      <point x="376" y="-212"/>
      <point x="337" y="-212" type="qcurve"/>
      <point x="294" y="-212"/>
      <point x="248" y="-172"/>
      <point x="240" y="-142" type="qcurve"/>
      <point x="288" y="-124" type="line"/>
      <point x="291" y="-139"/>
      <point x="314" y="-164"/>
      <point x="336" y="-164" type="qcurve"/>
      <point x="351" y="-164"/>
      <point x="376" y="-144"/>
      <point x="376" y="-122" type="qcurve"/>
      <point x="376" y="-104"/>
      <point x="355" y="-84"/>
      <point x="341" y="-84" type="qcurve"/>
      <point x="323" y="-84"/>
      <point x="316" y="-98" type="qcurve"/>
      <point x="240" y="-98" type="line"/>
      <point x="240" y="-92" type="line"/>
      <point x="258" y="-9" type="line"/>
      <point x="215" y="-2"/>
      <point x="153" y="33"/>
      <point x="111" y="81"/>
      <point x="90" y="137"/>
      <point x="88" y="166" type="qcurve"/>
      <point x="162" y="184" type="line"/>
      <point x="167" y="127"/>
      <point x="245" y="58"/>
      <point x="310" y="58" type="qcurve"/>
      <point x="365" y="58"/>
      <point x="432" y="101"/>
      <point x="432" y="140" type="qcurve"/>
      <point x="432" y="182"/>
      <point x="366" y="218"/>
      <point x="292" y="223" type="qcurve"/>
      <point x="206" y="229"/>
      <point x="114" y="297"/>
      <point x="114" y="362" type="qcurve"/>
      <point x="114" y="368" type="line"/>
      <point x="114" y="403"/>
      <point x="144" y="456"/>
      <point x="195" y="492"/>
      <point x="259" y="510"/>
      <point x="294" y="510" type="qcurve"/>
      <point x="343" y="510"/>
      <point x="417" y="483"/>
      <point x="467" y="440"/>
      <point x="494" y="384"/>
      <point x="498" y="356" type="qcurve"/>
      <point x="424" y="338" type="line"/>
      <point x="419" y="386"/>
      <point x="352" y="440"/>
      <point x="298" y="440" type="qcurve"/>
      <point x="277" y="440"/>
      <point x="238" y="431"/>
      <point x="208" y="413"/>
      <point x="190" y="386"/>
    </contour>
  </outline>
</glyph>
<glyph name="uni0162" format="1">
  <advance width="612"/>
  <unicode hex="0162"/>
  <outline>
    <contour>
      <point x="264" y="0" type="line"/>
      <point x="264" y="622" type="line"/>
      <point x="60" y="622" type="line"/>
      <point x="60" y="700" type="line"/>
      <point x="552" y="700" type="line"/>
      <point x="552" y="622" type="line"/>
      <point x="348" y="622" type="line"/>
      <point x="348" y="0" type="line"/>
      <point x="331" y="0" type="line"/>
      <point x="316" y="-68" type="line"/>
      <point x="322" y="-68" type="line"/>
      <point x="335" y="-36"/>
      <point x="376" y="-36" type="qcurve"/>
      <point x="411" y="-36"/>
      <point x="452" y="-86"/>
      <point x="452" y="-121" type="qcurve"/>
      <point x="452" y="-163"/>
      <point x="398" y="-212"/>
      <point x="359" y="-212" type="qcurve"/>
      <point x="316" y="-212"/>
      <point x="270" y="-172"/>
      <point x="262" y="-142" type="qcurve"/>
      <point x="310" y="-124" type="line"/>
      <point x="313" y="-139"/>
      <point x="336" y="-164"/>
      <point x="358" y="-164" type="qcurve"/>
      <point x="373" y="-164"/>
      <point x="398" y="-144"/>
      <point x="398" y="-122" type="qcurve"/>
      <point x="398" y="-104"/>
      <point x="377" y="-84"/>
      <point x="363" y="-84" type="qcurve"/>
      <point x="345" y="-84"/>
      <point x="338" y="-98" type="qcurve"/>
      <point x="262" y="-98" type="line"/>
      <point x="262" y="-92" type="line"/>
      <point x="282" y="0" type="line"/>
    </contour>
  </outline>
</glyph>
<glyph name="uni0163" format="1">
  <advance width="612"/>
  <unicode hex="0163"/>
  <outline>
    <contour>
      <point x="303" y="0" type="line"/>
      <point x="269" y="0"/>
      <point x="226" y="44"/>
      <point x="226" y="78" type="qcurve"/>
      <point x="226" y="424" type="line"/>
      <point x="70" y="424" type="line"/>
      <point x="70" y="496" type="line"/>
      <point x="226" y="496" type="line"/>
      <point x="226" y="700" type="line"/>
      <point x="304" y="700" type="line"/>
      <point x="304" y="496" type="line"/>
      <point x="496" y="496" type="line"/>
      <point x="496" y="424" type="line"/>
      <point x="304" y="424" type="line"/>
      <point x="304" y="102" type="line"/>
      <point x="304" y="72"/>
      <point x="331" y="72" type="qcurve"/>
      <point x="472" y="72" type="line"/>
      <point x="472" y="0" type="line"/>
      <point x="352" y="0" type="line"/>
      <point x="337" y="-68" type="line"/>
      <point x="343" y="-68" type="line"/>
      <point x="356" y="-36"/>
      <point x="397" y="-36" type="qcurve"/>
      <point x="432" y="-36"/>
      <point x="473" y="-86"/>
      <point x="473" y="-121" type="qcurve"/>
      <point x="473" y="-163"/>
      <point x="419" y="-212"/>
      <point x="380" y="-212" type="qcurve"/>
      <point x="337" y="-212"/>
      <point x="291" y="-172"/>
      <point x="283" y="-142" type="qcurve"/>
      <point x="331" y="-124" type="line"/>
      <point x="334" y="-139"/>
      <point x="357" y="-164"/>
      <point x="379" y="-164" type="qcurve"/>
      <point x="394" y="-164"/>
      <point x="419" y="-144"/>
      <point x="419" y="-122" type="qcurve"/>
      <point x="419" y="-104"/>
      <point x="398" y="-84"/>
      <point x="384" y="-84" type="qcurve"/>
      <point x="366" y="-84"/>
      <point x="359" y="-98" type="qcurve"/>
      <point x="283" y="-98" type="line"/>
      <point x="283" y="-92" type="line"/>
    </contour>
  </outline>
</glyph>
<glyph name="tcaron" format="1">
  <advance width="612"/>
  <unicode hex="0165"/>
  <outline>
    <contour>
      <point x="70" y="496" type="line"/>
      <point x="226" y="496" type="line"/>
      <point x="226" y="700" type="line"/>
      <point x="304" y="700" type="line"/>
      <point x="304" y="496" type="line"/>
      <point x="376" y="496" type="line"/>
      <point x="376" y="424" type="line"/>
      <point x="304" y="424" type="line"/>
      <point x="304" y="102" type="line"/>
      <point x="304" y="72"/>
      <point x="331" y="72" type="qcurve"/>
      <point x="472" y="72" type="line"/>
      <point x="472" y="0" type="line"/>
      <point x="303" y="0" type="line"/>
      <point x="269" y="0"/>
      <point x="226" y="44"/>
      <point x="226" y="78" type="qcurve"/>
      <point x="226" y="424" type="line"/>
      <point x="70" y="424" type="line"/>
    </contour>
    <contour>
      <point x="394" y="630" type="qcurve"/>
      <point x="394" y="659"/>
      <point x="435" y="700"/>
      <point x="464" y="700" type="qcurve"/>
      <point x="493" y="700"/>
      <point x="534" y="659"/>
      <point x="534" y="630" type="qcurve"/>
      <point x="534" y="502" type="line"/>
      <point x="534" y="468"/>
      <point x="491" y="424"/>
      <point x="457" y="424" type="qcurve"/>
      <point x="406" y="424" type="line"/>
      <point x="406" y="478" type="line"/>
      <point x="453" y="478" type="line"/>
      <point x="480" y="478"/>
      <point x="480" y="508" type="qcurve"/>
      <point x="480" y="563" type="line"/>
      <point x="472" y="560"/>
      <point x="463" y="560" type="qcurve"/>
      <point x="435" y="560"/>
      <point x="394" y="601"/>
    </contour>
  </outline>
</glyph>
<glyph name="tbar" format="1">
  <advance width="612"/>
  <unicode hex="0167"/>
  <outline>
    <contour>
      <point x="70" y="496" type="line"/>
      <point x="226" y="496" type="line"/>
      <point x="226" y="700" type="line"/>
      <point x="304" y="700" type="line"/>
      <point x="304" y="496" type="line"/>
      <point x="496" y="496" type="line"/>
      <point x="496" y="424" type="line"/>
      <point x="304" y="424" type="line"/>
      <point x="304" y="350" type="line"/>
      <point x="460" y="350" type="line"/>
      <point x="460" y="278" type="line"/>
      <point x="304" y="278" type="line"/>
      <point x="304" y="102" type="line"/>
      <point x="304" y="72"/>
      <point x="331" y="72" type="qcurve"/>
      <point x="472" y="72" type="line"/>
      <point x="472" y="0" type="line"/>
      <point x="303" y="0" type="line"/>
      <point x="269" y="0"/>
      <point x="226" y="44"/>
      <point x="226" y="78" type="qcurve"/>
      <point x="226" y="278" type="line"/>
      <point x="106" y="278" type="line"/>
      <point x="106" y="350" type="line"/>
      <point x="226" y="350" type="line"/>
      <point x="226" y="424" type="line"/>
      <point x="70" y="424" type="line"/>
    </contour>
  </outline>
</glyph>
<glyph name="Uogonek" format="1">
  <advance width="612"/>
  <unicode hex="0172"/>
  <outline>
    <contour>
      <point x="150" y="700" type="line"/>
      <point x="150" y="236" type="line"/>
      <point x="150" y="151"/>
      <point x="229" y="64"/>
      <point x="306" y="64" type="qcurve"/>
      <point x="383" y="64"/>
      <point x="462" y="151"/>
      <point x="462" y="236" type="qcurve"/>
      <point x="462" y="700" type="line"/>
      <point x="546" y="700" type="line"/>
      <point x="546" y="236" type="line"/>
      <point x="546" y="123"/>
      <point x="435" y="-3"/>
      <point x="338" y="-12" type="qcurve"/>
      <point x="325" y="-68" type="line"/>
      <point x="324" y="-73"/>
      <point x="324" y="-76" type="qcurve"/>
      <point x="324" y="-98"/>
      <point x="347" y="-98" type="qcurve"/>
      <point x="389" y="-98" type="line"/>
      <point x="389" y="-164" type="line"/>
      <point x="333" y="-164" type="line"/>
      <point x="304" y="-164"/>
      <point x="255" y="-127"/>
      <point x="255" y="-90" type="qcurve"/>
      <point x="255" y="-81"/>
      <point x="258" y="-66" type="qcurve"/>
      <point x="270" y="-12" type="line"/>
      <point x="174" y="-2"/>
      <point x="66" y="124"/>
      <point x="66" y="236" type="qcurve"/>
      <point x="66" y="700" type="line"/>
    </contour>
  </outline>
</glyph>
<glyph name="uogonek" format="1">
  <advance width="612"/>
  <unicode hex="0173"/>
  <outline>
    <contour>
      <point x="441" y="496" type="line"/>
      <point x="519" y="496" type="line"/>
      <point x="519" y="0" type="line"/>
      <point x="490" y="0" type="line"/>
      <point x="474" y="-68" type="line"/>
      <point x="473" y="-73"/>
      <point x="473" y="-76" type="qcurve"/>
      <point x="473" y="-98"/>
      <point x="496" y="-98" type="qcurve"/>
      <point x="538" y="-98" type="line"/>
      <point x="538" y="-164" type="line"/>
      <point x="482" y="-164" type="line"/>
      <point x="453" y="-164"/>
      <point x="404" y="-127"/>
      <point x="404" y="-90" type="qcurve"/>
      <point x="404" y="-81"/>
      <point x="407" y="-66" type="qcurve"/>
      <point x="441" y="90" type="line"/>
      <point x="429" y="90" type="line"/>
      <point x="405" y="42"/>
      <point x="327" y="-14"/>
      <point x="267" y="-14" type="qcurve"/>
      <point x="226" y="-14"/>
      <point x="157" y="13"/>
      <point x="108" y="67"/>
      <point x="81" y="147"/>
      <point x="81" y="200" type="qcurve"/>
      <point x="81" y="496" type="line"/>
      <point x="159" y="496" type="line"/>
      <point x="159" y="210" type="line"/>
      <point x="159" y="132"/>
      <point x="223" y="60"/>
      <point x="289" y="60" type="qcurve"/>
      <point x="360" y="60"/>
      <point x="441" y="157"/>
      <point x="441" y="238" type="qcurve"/>
    </contour>
  </outline>
</glyph>
<glyph name="uni018F" format="1">
  <advance width="612"/>
  <unicode hex="018F"/>
  <outline>
    <contour>
      <point x="60" y="362" type="line"/>
      <point x="468" y="362" type="line"/>
      <point x="468" y="422" type="line"/>
      <point x="468" y="470"/>
      <point x="448" y="549"/>
      <point x="407" y="606"/>
      <point x="346" y="638"/>
      <point x="306" y="638" type="qcurve"/>
      <point x="263" y="638"/>
      <point x="202" y="608"/>
      <point x="163" y="559"/>
      <point x="145" y="494"/>
      <point x="144" y="460" type="qcurve"/>
      <point x="144" y="448" type="line"/>
      <point x="60" y="448" type="line"/>
      <point x="60" y="460" type="line"/>
      <point x="60" y="513"/>
      <point x="92" y="606"/>
      <point x="154" y="675"/>
      <point x="246" y="714"/>
      <point x="306" y="714" type="qcurve"/>
      <point x="422" y="714"/>
      <point x="552" y="564"/>
      <point x="552" y="428" type="qcurve"/>
      <point x="552" y="272" type="line"/>
      <point x="552" y="132"/>
      <point x="422" y="-14"/>
      <point x="306" y="-14" type="qcurve"/>
      <point x="246" y="-14"/>
      <point x="154" y="25"/>
      <point x="92" y="94"/>
      <point x="60" y="187"/>
      <point x="60" y="240" type="qcurve"/>
    </contour>
    <contour>
      <point x="306" y="62" type="qcurve"/>
      <point x="387" y="62"/>
      <point x="468" y="175"/>
      <point x="468" y="278" type="qcurve"/>
      <point x="468" y="284" type="line"/>
      <point x="144" y="284" type="line"/>
      <point x="144" y="240" type="line"/>
      <point x="144" y="205"/>
      <point x="163" y="141"/>
      <point x="202" y="92"/>
      <point x="263" y="62"/>
    </contour>
  </outline>
</glyph>
<glyph name="uni01A1" format="1">
  <advance width="612"/>
  <unicode hex="01A1"/>
  <outline>
    <contour>
      <point x="466" y="426" type="qcurve"/>
      <point x="466" y="455"/>
      <point x="507" y="496"/>
      <point x="536" y="496" type="qcurve"/>
      <point x="565" y="496"/>
      <point x="606" y="455"/>
      <point x="606" y="426" type="qcurve"/>
      <point x="606" y="328" type="line"/>
      <point x="606" y="294"/>
      <point x="563" y="250"/>
      <point x="529" y="250" type="qcurve"/>
      <point x="466" y="250" type="line"/>
      <point x="466" y="242" type="line"/>
      <point x="466" y="181"/>
      <point x="435" y="86"/>
      <point x="380" y="20"/>
      <point x="301" y="-14"/>
      <point x="253" y="-14" type="qcurve"/>
      <point x="205" y="-14"/>
      <point x="126" y="20"/>
      <point x="71" y="86"/>
      <point x="40" y="181"/>
      <point x="40" y="242" type="qcurve"/>
      <point x="40" y="254" type="line"/>
      <point x="40" y="314"/>
      <point x="71" y="409"/>
      <point x="127" y="475"/>
      <point x="205" y="510"/>
      <point x="253" y="510" type="qcurve"/>
      <point x="338" y="510"/>
      <point x="451" y="402"/>
      <point x="463" y="304" type="qcurve"/>
      <point x="525" y="304" type="line"/>
      <point x="552" y="304"/>
      <point x="552" y="334" type="qcurve"/>
      <point x="552" y="359" type="line"/>
      <point x="544" y="356"/>
      <point x="535" y="356" type="qcurve"/>
      <point x="507" y="356"/>
      <point x="466" y="397"/>
    </contour>
    <contour>
      <point x="253" y="60" type="qcurve"/>
      <point x="320" y="60"/>
      <point x="386" y="157"/>
      <point x="386" y="242" type="qcurve"/>
      <point x="386" y="254" type="line"/>
      <point x="386" y="335"/>
      <point x="319" y="436"/>
      <point x="253" y="436" type="qcurve"/>
      <point x="187" y="436"/>
      <point x="120" y="335"/>
      <point x="120" y="254" type="qcurve"/>
      <point x="120" y="242" type="line"/>
      <point x="120" y="157"/>
      <point x="186" y="60"/>
    </contour>
  </outline>
</glyph>
<glyph name="uni01AF" format="1">
  <advance width="612"/>
  <unicode hex="01AF"/>
  <outline>
    <contour>
      <point x="124" y="700" type="line"/>
      <point x="124" y="206" type="line"/>
      <point x="124" y="129"/>
      <point x="182" y="62"/>
      <point x="238" y="62" type="qcurve"/>
      <point x="294" y="62"/>
      <point x="352" y="129"/>
      <point x="352" y="206" type="qcurve"/>
      <point x="352" y="700" type="line"/>
      <point x="436" y="700" type="line"/>
      <point x="436" y="508" type="line"/>
      <point x="531" y="508" type="line"/>
      <point x="558" y="508"/>
      <point x="558" y="538" type="qcurve"/>
      <point x="558" y="563" type="line"/>
      <point x="550" y="560"/>
      <point x="541" y="560" type="qcurve"/>
      <point x="513" y="560"/>
      <point x="472" y="601"/>
      <point x="472" y="630" type="qcurve"/>
      <point x="472" y="659"/>
      <point x="513" y="700"/>
      <point x="542" y="700" type="qcurve"/>
      <point x="571" y="700"/>
      <point x="612" y="659"/>
      <point x="612" y="630" type="qcurve"/>
      <point x="612" y="532" type="line"/>
      <point x="612" y="498"/>
      <point x="569" y="454"/>
      <point x="535" y="454" type="qcurve"/>
      <point x="436" y="454" type="line"/>
      <point x="436" y="202" type="line"/>
      <point x="436" y="92"/>
      <point x="333" y="-14"/>
      <point x="238" y="-14" type="qcurve"/>
      <point x="143" y="-14"/>
      <point x="40" y="92"/>
      <point x="40" y="202" type="qcurve"/>
      <point x="40" y="700" type="line"/>
    </contour>
  </outline>
</glyph>
<glyph name="uni01B0" format="1">
  <advance width="612"/>
  <unicode hex="01B0"/>
  <outline>
    <contour>
      <point x="352" y="496" type="line"/>
      <point x="430" y="496" type="line"/>
      <point x="430" y="304" type="line"/>
      <point x="525" y="304" type="line"/>
      <point x="552" y="304"/>
      <point x="552" y="334" type="qcurve"/>
      <point x="552" y="359" type="line"/>
      <point x="544" y="356"/>
      <point x="535" y="356" type="qcurve"/>
      <point x="507" y="356"/>
      <point x="466" y="397"/>
      <point x="466" y="426" type="qcurve"/>
      <point x="466" y="455"/>
      <point x="507" y="496"/>
      <point x="536" y="496" type="qcurve"/>
      <point x="565" y="496"/>
      <point x="606" y="455"/>
      <point x="606" y="426" type="qcurve"/>
      <point x="606" y="328" type="line"/>
      <point x="606" y="294"/>
      <point x="563" y="250"/>
      <point x="529" y="250" type="qcurve"/>
      <point x="430" y="250" type="line"/>
      <point x="430" y="0" type="line"/>
      <point x="352" y="0" type="line"/>
      <point x="352" y="68" type="line"/>
      <point x="340" y="68" type="line"/>
      <point x="323" y="32"/>
      <point x="264" y="-14"/>
      <point x="208" y="-14" type="qcurve"/>
      <point x="130" y="-14"/>
      <point x="40" y="78"/>
      <point x="40" y="166" type="qcurve"/>
      <point x="40" y="496" type="line"/>
      <point x="118" y="496" type="line"/>
      <point x="118" y="180" type="line"/>
      <point x="118" y="117"/>
      <point x="173" y="60"/>
      <point x="226" y="60" type="qcurve"/>
      <point x="291" y="60"/>
      <point x="352" y="140"/>
      <point x="352" y="208" type="qcurve"/>
    </contour>
  </outline>
</glyph>
<glyph name="uni01E7" format="1">
  <advance width="612"/>
  <unicode hex="01E7"/>
  <outline>
    <contour>
      <point x="464" y="76" type="line"/>
      <point x="452" y="76" type="line"/>
      <point x="428" y="31"/>
      <point x="345" y="-14"/>
      <point x="296" y="-14" type="qcurve"/>
      <point x="246" y="-14"/>
      <point x="158" y="20"/>
      <point x="91" y="84"/>
      <point x="52" y="179"/>
      <point x="52" y="240" type="qcurve"/>
      <point x="52" y="256" type="line"/>
      <point x="52" y="316"/>
      <point x="92" y="411"/>
      <point x="158" y="476"/>
      <point x="246" y="510"/>
      <point x="294" y="510" type="qcurve"/>
      <point x="348" y="510"/>
      <point x="429" y="463"/>
      <point x="452" y="418" type="qcurve"/>
      <point x="464" y="418" type="line"/>
      <point x="464" y="496" type="line"/>
      <point x="542" y="496" type="line"/>
      <point x="542" y="-122" type="line"/>
      <point x="542" y="-156"/>
      <point x="499" y="-200"/>
      <point x="465" y="-200" type="qcurve"/>
      <point x="142" y="-200" type="line"/>
      <point x="142" y="-128" type="line"/>
      <point x="437" y="-128" type="line"/>
      <point x="464" y="-128"/>
      <point x="464" y="-98" type="qcurve"/>
    </contour>
    <contour>
      <point x="298" y="60" type="qcurve"/>
      <point x="333" y="60"/>
      <point x="393" y="86"/>
      <point x="438" y="134"/>
      <point x="464" y="201"/>
      <point x="464" y="242" type="qcurve"/>
      <point x="464" y="254" type="line"/>
      <point x="464" y="294"/>
      <point x="438" y="361"/>
      <point x="393" y="409"/>
      <point x="332" y="436"/>
      <point x="298" y="436" type="qcurve"/>
      <point x="263" y="436"/>
      <point x="202" y="410"/>
      <point x="157" y="362"/>
      <point x="132" y="296"/>
      <point x="132" y="256" type="qcurve"/>
      <point x="132" y="240" type="line"/>
      <point x="132" y="198"/>
      <point x="157" y="132"/>
      <point x="202" y="85"/>
      <point x="262" y="60"/>
    </contour>
    <component base="caron" xOffset="-12"/>
  </outline>
</glyph>
<glyph name="uni0265" format="1">
  <advance width="612"/>
  <unicode hex="0265"/>
  <outline>
    <contour>
      <point x="446" y="496" type="line"/>
      <point x="524" y="496" type="line"/>
      <point x="524" y="-200" type="line"/>
      <point x="446" y="-200" type="line"/>
      <point x="446" y="90" type="line"/>
      <point x="434" y="90" type="line"/>
      <point x="411" y="42"/>
      <point x="328" y="-14"/>
      <point x="268" y="-14" type="qcurve"/>
      <point x="187" y="-14"/>
      <point x="86" y="93"/>
      <point x="86" y="200" type="qcurve"/>
      <point x="86" y="496" type="line"/>
      <point x="164" y="496" type="line"/>
      <point x="164" y="216" type="line"/>
      <point x="164" y="138"/>
      <point x="234" y="60"/>
      <point x="294" y="60" type="qcurve"/>
      <point x="365" y="60"/>
      <point x="446" y="157"/>
      <point x="446" y="238" type="qcurve"/>
    </contour>
  </outline>
</glyph>
<glyph name="uni028E" format="1">
  <advance width="612"/>
  <unicode hex="028E"/>
  <outline>
    <contour>
      <point x="237" y="496" type="line"/>
      <point x="267" y="496" type="line"/>
      <point x="267" y="622" type="line"/>
      <point x="267" y="656"/>
      <point x="310" y="700"/>
      <point x="344" y="700" type="qcurve"/>
      <point x="538" y="700" type="line"/>
      <point x="538" y="628" type="line"/>
      <point x="372" y="628" type="line"/>
      <point x="345" y="628"/>
      <point x="345" y="598" type="qcurve"/>
      <point x="345" y="496" type="line"/>
      <point x="375" y="496" type="line"/>
      <point x="556" y="0" type="line"/>
      <point x="464" y="0" type="line"/>
      <point x="312" y="436" type="line"/>
      <point x="300" y="436" type="line"/>
      <point x="148" y="0" type="line"/>
      <point x="56" y="0" type="line"/>
    </contour>
  </outline>
</glyph>
<glyph name="breve" format="1">
  <advance width="612"/>
  <unicode hex="02D8"/>
  <outline>
    <contour>
      <point x="414" y="688" type="line"/>
      <point x="414" y="678" type="line"/>
      <point x="414" y="630"/>
      <point x="356" y="570"/>
      <point x="306" y="570" type="qcurve"/>
      <point x="256" y="570"/>
      <point x="198" y="630"/>
      <point x="198" y="678" type="qcurve"/>
      <point x="198" y="688" type="line"/>
      <point x="267" y="688" type="line"/>
      <point x="267" y="676" type="line"/>
      <point x="267" y="660"/>
      <point x="287" y="637"/>
      <point x="306" y="637" type="qcurve"/>
      <point x="325" y="637"/>
      <point x="345" y="660"/>
      <point x="345" y="676" type="qcurve"/>
      <point x="345" y="688" type="line"/>
    </contour>
  </outline>
</glyph>
<glyph name="tilde" format="1">
  <advance width="612"/>
  <unicode hex="02DC"/>
  <outline>
    <contour>
      <point x="337" y="639" type="qcurve"/>
      <point x="342" y="629"/>
      <point x="352" y="619"/>
      <point x="361" y="619" type="qcurve"/>
      <point x="371" y="619"/>
      <point x="380" y="629" type="qcurve"/>
      <point x="428" y="684" type="line"/>
      <point x="477" y="642" type="line"/>
      <point x="436" y="593" type="line"/>
      <point x="422" y="576"/>
      <point x="384" y="551"/>
      <point x="358" y="551" type="qcurve"/>
      <point x="327" y="551"/>
      <point x="294" y="579"/>
      <point x="277" y="610" type="qcurve"/>
      <point x="270" y="622"/>
      <point x="261" y="632"/>
      <point x="253" y="632" type="qcurve"/>
      <point x="242" y="632"/>
      <point x="231" y="620" type="qcurve"/>
      <point x="185" y="567" type="line"/>
      <point x="136" y="609" type="line"/>
      <point x="177" y="658" type="line"/>
      <point x="191" y="675"/>
      <point x="229" y="700"/>
      <point x="256" y="700" type="qcurve"/>
      <point x="285" y="700"/>
      <point x="319" y="671"/>
    </contour>
  </outline>
</glyph>
<glyph name="uni0309" format="1">
  <advance width="612"/>
  <unicode hex="0309"/>
  <outline>
    <contour>
      <point x="231" y="546" type="line"/>
      <point x="211" y="638" type="line"/>
      <point x="211" y="644" type="line"/>
      <point x="287" y="644" type="line"/>
      <point x="294" y="630"/>
      <point x="312" y="630" type="qcurve"/>
      <point x="326" y="630"/>
      <point x="347" y="650"/>
      <point x="347" y="668" type="qcurve"/>
      <point x="347" y="690"/>
      <point x="322" y="710"/>
      <point x="307" y="710" type="qcurve"/>
      <point x="285" y="710"/>
      <point x="262" y="685"/>
      <point x="259" y="670" type="qcurve"/>
      <point x="211" y="688" type="line"/>
      <point x="219" y="718"/>
      <point x="265" y="758"/>
      <point x="308" y="758" type="qcurve"/>
      <point x="347" y="758"/>
      <point x="401" y="709"/>
      <point x="401" y="667" type="qcurve"/>
      <point x="401" y="632"/>
      <point x="360" y="582"/>
      <point x="325" y="582" type="qcurve"/>
      <point x="284" y="582"/>
      <point x="271" y="614" type="qcurve"/>
      <point x="265" y="614" type="line"/>
      <point x="280" y="546" type="line"/>
    </contour>
  </outline>
</glyph>
<glyph name="uni0323" format="1">
  <advance width="612"/>
  <unicode hex="0323"/>
  <outline>
    <contour>
      <point x="236" y="-134" type="qcurve"/>
      <point x="236" y="-105"/>
      <point x="277" y="-64"/>
      <point x="306" y="-64" type="qcurve"/>
      <point x="335" y="-64"/>
      <point x="376" y="-105"/>
      <point x="376" y="-134" type="qcurve"/>
      <point x="376" y="-163"/>
      <point x="335" y="-204"/>
      <point x="306" y="-204" type="qcurve"/>
      <point x="277" y="-204"/>
      <point x="236" y="-163"/>
    </contour>
  </outline>
</glyph>
<glyph name="uni1E5F" format="1">
  <advance width="612"/>
  <unicode hex="1E5F"/>
  <outline>
    <contour>
      <point x="365" y="-130" type="line"/>
      <point x="47" y="-130" type="line"/>
      <point x="47" y="-64" type="line"/>
      <point x="365" y="-64" type="line"/>
    </contour>
    <component base="r"/>
  </outline>
</glyph>
<glyph name="uni1EA3" format="1">
  <advance width="612"/>
  <unicode hex="1EA3"/>
  <outline>
    <contour>
      <point x="243" y="546" type="line"/>
      <point x="223" y="638" type="line"/>
      <point x="223" y="644" type="line"/>
      <point x="299" y="644" type="line"/>
      <point x="306" y="630"/>
      <point x="324" y="630" type="qcurve"/>
      <point x="338" y="630"/>
      <point x="359" y="650"/>
      <point x="359" y="668" type="qcurve"/>
      <point x="359" y="690"/>
      <point x="334" y="710"/>
      <point x="319" y="710" type="qcurve"/>
      <point x="297" y="710"/>
      <point x="274" y="685"/>
      <point x="271" y="670" type="qcurve"/>
      <point x="223" y="688" type="line"/>
      <point x="231" y="718"/>
      <point x="277" y="758"/>
      <point x="320" y="758" type="qcurve"/>
      <point x="359" y="758"/>
      <point x="413" y="709"/>
      <point x="413" y="667" type="qcurve"/>
      <point x="413" y="632"/>
      <point x="372" y="582"/>
      <point x="337" y="582" type="qcurve"/>
      <point x="296" y="582"/>
      <point x="283" y="614" type="qcurve"/>
      <point x="277" y="614" type="line"/>
      <point x="292" y="546" type="line"/>
    </contour>
    <component base="a"/>
  </outline>
</glyph>
<glyph name="uni1EA8" format="1">
  <advance width="612"/>
  <unicode hex="1EA8"/>
  <outline>
    <contour>
      <point x="424" y="858" type="line"/>
      <point x="404" y="950" type="line"/>
      <point x="404" y="956" type="line"/>
      <point x="480" y="956" type="line"/>
      <point x="487" y="942"/>
      <point x="505" y="942" type="qcurve"/>
      <point x="519" y="942"/>
      <point x="540" y="962"/>
      <point x="540" y="980" type="qcurve"/>
      <point x="540" y="1002"/>
      <point x="515" y="1022"/>
      <point x="500" y="1022" type="qcurve"/>
      <point x="478" y="1022"/>
      <point x="455" y="997"/>
      <point x="452" y="982" type="qcurve"/>
      <point x="404" y="1000" type="line"/>
      <point x="412" y="1030"/>
      <point x="458" y="1070"/>
      <point x="501" y="1070" type="qcurve"/>
      <point x="540" y="1070"/>
      <point x="594" y="1021"/>
      <point x="594" y="979" type="qcurve"/>
      <point x="594" y="944"/>
      <point x="553" y="894"/>
      <point x="518" y="894" type="qcurve"/>
      <point x="477" y="894"/>
      <point x="464" y="926" type="qcurve"/>
      <point x="458" y="926" type="line"/>
      <point x="473" y="858" type="line"/>
    </contour>
    <component base="A"/>
    <component base="circumflex" yOffset="204"/>
  </outline>
</glyph>
<glyph name="uni1EB3" format="1">
  <advance width="612"/>
  <unicode hex="1EB3"/>
  <outline>
    <contour>
      <point x="252" y="718" type="line"/>
      <point x="232" y="810" type="line"/>
      <point x="232" y="816" type="line"/>
      <point x="308" y="816" type="line"/>
      <point x="315" y="802"/>
      <point x="333" y="802" type="qcurve"/>
      <point x="347" y="802"/>
      <point x="368" y="822"/>
      <point x="368" y="840" type="qcurve"/>
      <point x="368" y="862"/>
      <point x="343" y="882"/>
      <point x="328" y="882" type="qcurve"/>
      <point x="306" y="882"/>
      <point x="283" y="857"/>
      <point x="280" y="842" type="qcurve"/>
      <point x="232" y="860" type="line"/>
      <point x="240" y="890"/>
      <point x="286" y="930"/>
      <point x="329" y="930" type="qcurve"/>
      <point x="368" y="930"/>
      <point x="422" y="881"/>
      <point x="422" y="839" type="qcurve"/>
      <point x="422" y="804"/>
      <point x="381" y="754"/>
      <point x="346" y="754" type="qcurve"/>
      <point x="305" y="754"/>
      <point x="292" y="786" type="qcurve"/>
      <point x="286" y="786" type="line"/>
      <point x="301" y="718" type="line"/>
    </contour>
    <component base="a"/>
    <component base="breve" xOffset="-29"/>
  </outline>
</glyph>
<glyph name="uni1EBA" format="1">
  <advance width="612"/>
  <unicode hex="1EBA"/>
  <outline>
    <contour>
      <point x="253" y="750" type="line"/>
      <point x="233" y="842" type="line"/>
      <point x="233" y="848" type="line"/>
      <point x="309" y="848" type="line"/>
      <point x="316" y="834"/>
      <point x="334" y="834" type="qcurve"/>
      <point x="348" y="834"/>
      <point x="369" y="854"/>
      <point x="369" y="872" type="qcurve"/>
      <point x="369" y="894"/>
      <point x="344" y="914"/>
      <point x="329" y="914" type="qcurve"/>
      <point x="307" y="914"/>
      <point x="284" y="889"/>
      <point x="281" y="874" type="qcurve"/>
      <point x="233" y="892" type="line"/>
      <point x="241" y="922"/>
      <point x="287" y="962"/>
      <point x="330" y="962" type="qcurve"/>
      <point x="369" y="962"/>
      <point x="423" y="913"/>
      <point x="423" y="871" type="qcurve"/>
      <point x="423" y="836"/>
      <point x="382" y="786"/>
      <point x="347" y="786" type="qcurve"/>
      <point x="306" y="786"/>
      <point x="293" y="818" type="qcurve"/>
      <point x="287" y="818" type="line"/>
      <point x="302" y="750" type="line"/>
    </contour>
    <component base="E"/>
  </outline>
</glyph>
<glyph name="uni1EC2" format="1">
  <advance width="612"/>
  <unicode hex="1EC2"/>
  <outline>
    <contour>
      <point x="430" y="858" type="line"/>
      <point x="410" y="950" type="line"/>
      <point x="410" y="956" type="line"/>
      <point x="486" y="956" type="line"/>
      <point x="493" y="942"/>
      <point x="511" y="942" type="qcurve"/>
      <point x="525" y="942"/>
      <point x="546" y="962"/>
      <point x="546" y="980" type="qcurve"/>
      <point x="546" y="1002"/>
      <point x="521" y="1022"/>
      <point x="506" y="1022" type="qcurve"/>
      <point x="484" y="1022"/>
      <point x="461" y="997"/>
      <point x="458" y="982" type="qcurve"/>
      <point x="410" y="1000" type="line"/>
      <point x="418" y="1030"/>
      <point x="464" y="1070"/>
      <point x="507" y="1070" type="qcurve"/>
      <point x="546" y="1070"/>
      <point x="600" y="1021"/>
      <point x="600" y="979" type="qcurve"/>
      <point x="600" y="944"/>
      <point x="559" y="894"/>
      <point x="524" y="894" type="qcurve"/>
      <point x="483" y="894"/>
      <point x="470" y="926" type="qcurve"/>
      <point x="464" y="926" type="line"/>
      <point x="479" y="858" type="line"/>
    </contour>
    <component base="E"/>
    <component base="circumflex" xOffset="3" yOffset="204"/>
  </outline>
</glyph>
<glyph name="uni1EC3" format="1">
  <advance width="612"/>
  <unicode hex="1EC3"/>
  <outline>
    <contour>
      <point x="427" y="658" type="line"/>
      <point x="407" y="750" type="line"/>
      <point x="407" y="756" type="line"/>
      <point x="483" y="756" type="line"/>
      <point x="490" y="742"/>
      <point x="508" y="742" type="qcurve"/>
      <point x="522" y="742"/>
      <point x="543" y="762"/>
      <point x="543" y="780" type="qcurve"/>
      <point x="543" y="802"/>
      <point x="518" y="822"/>
      <point x="503" y="822" type="qcurve"/>
      <point x="481" y="822"/>
      <point x="458" y="797"/>
      <point x="455" y="782" type="qcurve"/>
      <point x="407" y="800" type="line"/>
      <point x="415" y="830"/>
      <point x="461" y="870"/>
      <point x="504" y="870" type="qcurve"/>
      <point x="543" y="870"/>
      <point x="597" y="821"/>
      <point x="597" y="779" type="qcurve"/>
      <point x="597" y="744"/>
      <point x="556" y="694"/>
      <point x="521" y="694" type="qcurve"/>
      <point x="480" y="694"/>
      <point x="467" y="726" type="qcurve"/>
      <point x="461" y="726" type="line"/>
      <point x="476" y="658" type="line"/>
    </contour>
    <component base="e" xOffset="-1"/>
    <component base="circumflex" xOffset="3"/>
  </outline>
</glyph>
<glyph name="uni1EC9" format="1">
  <advance width="612"/>
  <unicode hex="1EC9"/>
  <outline>
    <contour>
      <point x="281" y="546" type="line"/>
      <point x="261" y="638" type="line"/>
      <point x="261" y="644" type="line"/>
      <point x="337" y="644" type="line"/>
      <point x="344" y="630"/>
      <point x="362" y="630" type="qcurve"/>
      <point x="376" y="630"/>
      <point x="397" y="650"/>
      <point x="397" y="668" type="qcurve"/>
      <point x="397" y="690"/>
      <point x="372" y="710"/>
      <point x="357" y="710" type="qcurve"/>
      <point x="335" y="710"/>
      <point x="312" y="685"/>
      <point x="309" y="670" type="qcurve"/>
      <point x="261" y="688" type="line"/>
      <point x="269" y="718"/>
      <point x="315" y="758"/>
      <point x="358" y="758" type="qcurve"/>
      <point x="397" y="758"/>
      <point x="451" y="709"/>
      <point x="451" y="667" type="qcurve"/>
      <point x="451" y="632"/>
      <point x="410" y="582"/>
      <point x="375" y="582" type="qcurve"/>
      <point x="334" y="582"/>
      <point x="321" y="614" type="qcurve"/>
      <point x="315" y="614" type="line"/>
      <point x="330" y="546" type="line"/>
    </contour>
    <component base="dotlessi"/>
  </outline>
</glyph>
<glyph name="uni1ECE" format="1">
  <advance width="612"/>
  <unicode hex="1ECE"/>
  <outline>
    <contour>
      <point x="272" y="750" type="line"/>
      <point x="252" y="842" type="line"/>
      <point x="252" y="848" type="line"/>
      <point x="328" y="848" type="line"/>
      <point x="335" y="834"/>
      <point x="353" y="834" type="qcurve"/>
      <point x="367" y="834"/>
      <point x="388" y="854"/>
      <point x="388" y="872" type="qcurve"/>
      <point x="388" y="894"/>
      <point x="363" y="914"/>
      <point x="348" y="914" type="qcurve"/>
      <point x="326" y="914"/>
      <point x="303" y="889"/>
      <point x="300" y="874" type="qcurve"/>
      <point x="252" y="892" type="line"/>
      <point x="260" y="922"/>
      <point x="306" y="962"/>
      <point x="349" y="962" type="qcurve"/>
      <point x="388" y="962"/>
      <point x="442" y="913"/>
      <point x="442" y="871" type="qcurve"/>
      <point x="442" y="836"/>
      <point x="401" y="786"/>
      <point x="366" y="786" type="qcurve"/>
      <point x="325" y="786"/>
      <point x="312" y="818" type="qcurve"/>
      <point x="306" y="818" type="line"/>
      <point x="321" y="750" type="line"/>
    </contour>
    <component base="O"/>
  </outline>
</glyph>
<glyph name="uni1EE7" format="1">
  <advance width="612"/>
  <unicode hex="1EE7"/>
  <outline>
    <contour>
      <point x="266" y="546" type="line"/>
      <point x="246" y="638" type="line"/>
      <point x="246" y="644" type="line"/>
      <point x="322" y="644" type="line"/>
      <point x="329" y="630"/>
      <point x="347" y="630" type="qcurve"/>
      <point x="361" y="630"/>
      <point x="382" y="650"/>
      <point x="382" y="668" type="qcurve"/>
      <point x="382" y="690"/>
      <point x="357" y="710"/>
      <point x="342" y="710" type="qcurve"/>
      <point x="320" y="710"/>
      <point x="297" y="685"/>
      <point x="294" y="670" type="qcurve"/>
      <point x="246" y="688" type="line"/>
      <point x="254" y="718"/>
      <point x="300" y="758"/>
      <point x="343" y="758" type="qcurve"/>
      <point x="382" y="758"/>
      <point x="436" y="709"/>
      <point x="436" y="667" type="qcurve"/>
      <point x="436" y="632"/>
      <point x="395" y="582"/>
      <point x="360" y="582" type="qcurve"/>
      <point x="319" y="582"/>
      <point x="306" y="614" type="qcurve"/>
      <point x="300" y="614" type="line"/>
      <point x="315" y="546" type="line"/>
    </contour>
    <component base="u"/>
  </outline>
</glyph>
<glyph name="uni1EEC" format="1">
  <advance width="612"/>
  <unicode hex="1EEC"/>
  <outline>
    <contour>
      <point x="210" y="750" type="line"/>
      <point x="190" y="842" type="line"/>
      <point x="190" y="848" type="line"/>
      <point x="266" y="848" type="line"/>
      <point x="273" y="834"/>
      <point x="291" y="834" type="qcurve"/>
      <point x="305" y="834"/>
      <point x="326" y="854"/>
      <point x="326" y="872" type="qcurve"/>
      <point x="326" y="894"/>
      <point x="301" y="914"/>
      <point x="286" y="914" type="qcurve"/>
      <point x="264" y="914"/>
      <point x="241" y="889"/>
      <point x="238" y="874" type="qcurve"/>
      <point x="190" y="892" type="line"/>
      <point x="198" y="922"/>
      <point x="244" y="962"/>
      <point x="287" y="962" type="qcurve"/>
      <point x="326" y="962"/>
      <point x="380" y="913"/>
      <point x="380" y="871" type="qcurve"/>
      <point x="380" y="836"/>
      <point x="339" y="786"/>
      <point x="304" y="786" type="qcurve"/>
      <point x="263" y="786"/>
      <point x="250" y="818" type="qcurve"/>
      <point x="244" y="818" type="line"/>
      <point x="259" y="750" type="line"/>
    </contour>
    <component base="uni01AF"/>
  </outline>
</glyph>
<glyph name="quoteright" format="1">
  <advance width="612"/>
  <unicode hex="2019"/>
  <outline>
    <contour>
      <point x="236" y="644" type="qcurve"/>
      <point x="236" y="673"/>
      <point x="277" y="714"/>
      <point x="306" y="714" type="qcurve"/>
      <point x="335" y="714"/>
      <point x="376" y="673"/>
      <point x="376" y="644" type="qcurve"/>
      <point x="376" y="546" type="line"/>
      <point x="376" y="512"/>
      <point x="333" y="468"/>
      <point x="299" y="468" type="qcurve"/>
      <point x="248" y="468" type="line"/>
      <point x="248" y="522" type="line"/>
      <point x="295" y="522" type="line"/>
      <point x="322" y="522"/>
      <point x="322" y="552" type="qcurve"/>
      <point x="322" y="577" type="line"/>
      <point x="314" y="574"/>
      <point x="305" y="574" type="qcurve"/>
      <point x="277" y="574"/>
      <point x="236" y="615"/>
    </contour>
  </outline>
</glyph>
<glyph name="quotesinglbase" format="1">
  <advance width="612"/>
  <unicode hex="201A"/>
  <outline>
    <contour>
      <point x="236" y="70" type="qcurve"/>
      <point x="236" y="99"/>
      <point x="277" y="140"/>
      <point x="306" y="140" type="qcurve"/>
      <point x="335" y="140"/>
      <point x="376" y="99"/>
      <point x="376" y="70" type="qcurve"/>
      <point x="376" y="-28" type="line"/>
      <point x="376" y="-62"/>
      <point x="333" y="-106"/>
      <point x="299" y="-106" type="qcurve"/>
      <point x="248" y="-106" type="line"/>
      <point x="248" y="-52" type="line"/>
      <point x="295" y="-52" type="line"/>
      <point x="322" y="-52"/>
      <point x="322" y="-22" type="qcurve"/>
      <point x="322" y="3" type="line"/>
      <point x="314" y="0"/>
      <point x="305" y="0" type="qcurve"/>
      <point x="277" y="0"/>
      <point x="236" y="41"/>
    </contour>
  </outline>
</glyph>
<glyph name="quotedblright" format="1">
  <advance width="612"/>
  <unicode hex="201D"/>
  <outline>
    <contour>
      <point x="327" y="644" type="qcurve"/>
      <point x="327" y="673"/>
      <point x="368" y="714"/>
      <point x="397" y="714" type="qcurve"/>
      <point x="426" y="714"/>
      <point x="467" y="673"/>
      <point x="467" y="644" type="qcurve"/>
      <point x="467" y="546" type="line"/>
      <point x="467" y="512"/>
      <point x="424" y="468"/>
      <point x="390" y="468" type="qcurve"/>
      <point x="339" y="468" type="line"/>
      <point x="339" y="522" type="line"/>
      <point x="386" y="522" type="line"/>
      <point x="413" y="522"/>
      <point x="413" y="552" type="qcurve"/>
      <point x="413" y="577" type="line"/>
      <point x="405" y="574"/>
      <point x="396" y="574" type="qcurve"/>
      <point x="368" y="574"/>
      <point x="327" y="615"/>
    </contour>
    <contour>
      <point x="145" y="644" type="qcurve"/>
      <point x="145" y="673"/>
      <point x="186" y="714"/>
      <point x="215" y="714" type="qcurve"/>
      <point x="244" y="714"/>
      <point x="285" y="673"/>
      <point x="285" y="644" type="qcurve"/>
      <point x="285" y="546" type="line"/>
      <point x="285" y="512"/>
      <point x="242" y="468"/>
      <point x="208" y="468" type="qcurve"/>
      <point x="157" y="468" type="line"/>
      <point x="157" y="522" type="line"/>
      <point x="204" y="522" type="line"/>
      <point x="231" y="522"/>
      <point x="231" y="552" type="qcurve"/>
      <point x="231" y="577" type="line"/>
      <point x="223" y="574"/>
      <point x="214" y="574" type="qcurve"/>
      <point x="186" y="574"/>
      <point x="145" y="615"/>
    </contour>
  </outline>
</glyph>
<glyph name="bullet" format="1">
  <advance width="612"/>
  <unicode hex="2022"/>
  <outline>
    <contour>
      <point x="188" y="350" type="qcurve"/>
      <point x="188" y="374"/>
      <point x="207" y="417"/>
      <point x="239" y="449"/>
      <point x="282" y="468"/>
      <point x="306" y="468" type="qcurve"/>
      <point x="330" y="468"/>
      <point x="373" y="449"/>
      <point x="405" y="417"/>
      <point x="424" y="374"/>
      <point x="424" y="350" type="qcurve"/>
      <point x="424" y="326"/>
      <point x="405" y="283"/>
      <point x="373" y="251"/>
      <point x="330" y="232"/>
      <point x="306" y="232" type="qcurve"/>
      <point x="282" y="232"/>
      <point x="239" y="251"/>
      <point x="207" y="283"/>
      <point x="188" y="326"/>
    </contour>
  </outline>
</glyph>
<glyph name="ellipsis" format="1">
  <advance width="612"/>
  <unicode hex="2026"/>
  <outline>
    <contour>
      <point x="60" y="56" type="qcurve"/>
      <point x="60" y="85"/>
      <point x="101" y="126"/>
      <point x="130" y="126" type="qcurve"/>
      <point x="159" y="126"/>
      <point x="200" y="85"/>
      <point x="200" y="56" type="qcurve"/>
      <point x="200" y="27"/>
      <point x="159" y="-14"/>
      <point x="130" y="-14" type="qcurve"/>
      <point x="101" y="-14"/>
      <point x="60" y="27"/>
    </contour>
    <contour>
      <point x="236" y="56" type="qcurve"/>
      <point x="236" y="85"/>
      <point x="277" y="126"/>
      <point x="306" y="126" type="qcurve"/>
      <point x="335" y="126"/>
      <point x="376" y="85"/>
      <point x="376" y="56" type="qcurve"/>
      <point x="376" y="27"/>
      <point x="335" y="-14"/>
      <point x="306" y="-14" type="qcurve"/>
      <point x="277" y="-14"/>
      <point x="236" y="27"/>
    </contour>
    <contour>
      <point x="412" y="56" type="qcurve"/>
      <point x="412" y="85"/>
      <point x="453" y="126"/>
      <point x="482" y="126" type="qcurve"/>
      <point x="511" y="126"/>
      <point x="552" y="85"/>
      <point x="552" y="56" type="qcurve"/>
      <point x="552" y="27"/>
      <point x="511" y="-14"/>
      <point x="482" y="-14" type="qcurve"/>
      <point x="453" y="-14"/>
      <point x="412" y="27"/>
    </contour>
  </outline>
</glyph>
<glyph name="perthousand" format="1">
  <advance width="612"/>
  <unicode hex="2030"/>
  <outline>
    <contour>
      <point x="268" y="198" type="line"/>
      <point x="268" y="242"/>
      <point x="312" y="294"/>
      <point x="356" y="294" type="qcurve"/>
      <point x="376" y="294"/>
      <point x="409" y="278"/>
      <point x="417" y="264" type="qcurve"/>
      <point x="423" y="264" type="line"/>
      <point x="431" y="278"/>
      <point x="463" y="294"/>
      <point x="484" y="294" type="qcurve"/>
      <point x="528" y="294"/>
      <point x="572" y="242"/>
      <point x="572" y="198" type="qcurve"/>
      <point x="572" y="90" type="line"/>
      <point x="572" y="46"/>
      <point x="528" y="-6"/>
      <point x="484" y="-6" type="qcurve"/>
      <point x="463" y="-6"/>
      <point x="431" y="10"/>
      <point x="423" y="24" type="qcurve"/>
      <point x="417" y="24" type="line"/>
      <point x="409" y="10"/>
      <point x="376" y="-6"/>
      <point x="356" y="-6" type="qcurve"/>
      <point x="312" y="-6"/>
      <point x="268" y="46"/>
      <point x="268" y="90" type="qcurve"/>
    </contour>
    <contour>
      <point x="359" y="240" type="qcurve"/>
      <point x="339" y="240"/>
      <point x="328" y="213"/>
      <point x="328" y="196" type="qcurve"/>
      <point x="328" y="92" type="line"/>
      <point x="328" y="75"/>
      <point x="339" y="48"/>
      <point x="359" y="48" type="qcurve"/>
      <point x="379" y="48"/>
      <point x="390" y="75"/>
      <point x="390" y="92" type="qcurve"/>
      <point x="390" y="196" type="line"/>
      <point x="390" y="213"/>
      <point x="379" y="240"/>
    </contour>
    <contour>
      <point x="338" y="556" type="qcurve"/>
      <point x="338" y="520"/>
      <point x="314" y="465"/>
      <point x="273" y="426"/>
      <point x="220" y="406"/>
      <point x="191" y="406" type="qcurve"/>
      <point x="162" y="406"/>
      <point x="109" y="426"/>
      <point x="68" y="465"/>
      <point x="44" y="520"/>
      <point x="44" y="556" type="qcurve"/>
      <point x="44" y="592"/>
      <point x="68" y="647"/>
      <point x="109" y="686"/>
      <point x="162" y="706"/>
      <point x="191" y="706" type="qcurve"/>
      <point x="220" y="706"/>
      <point x="273" y="686"/>
      <point x="314" y="647"/>
      <point x="338" y="592"/>
    </contour>
    <contour>
      <point x="191" y="460" type="qcurve"/>
      <point x="230" y="460"/>
      <point x="278" y="513"/>
      <point x="278" y="556" type="qcurve"/>
      <point x="278" y="599"/>
      <point x="230" y="652"/>
      <point x="191" y="652" type="qcurve"/>
      <point x="152" y="652"/>
      <point x="104" y="599"/>
      <point x="104" y="556" type="qcurve"/>
      <point x="104" y="508"/>
      <point x="152" y="460"/>
    </contour>
    <contour>
      <point x="481" y="240" type="qcurve"/>
      <point x="461" y="240"/>
      <point x="450" y="213"/>
      <point x="450" y="196" type="qcurve"/>
      <point x="450" y="92" type="line"/>
      <point x="450" y="75"/>
      <point x="461" y="48"/>
      <point x="481" y="48" type="qcurve"/>
      <point x="501" y="48"/>
      <point x="512" y="75"/>
      <point x="512" y="92" type="qcurve"/>
      <point x="512" y="196" type="line"/>
      <point x="512" y="213"/>
      <point x="501" y="240"/>
    </contour>
    <component base="fraction" xOffset="-8"/>
  </outline>
</glyph>
<glyph name="uni2033" format="1">
  <advance width="612"/>
  <unicode hex="2033"/>
  <outline>
    <contour>
      <point x="150" y="644" type="qcurve"/>
      <point x="150" y="673"/>
      <point x="191" y="714"/>
      <point x="220" y="714" type="qcurve"/>
      <point x="249" y="714"/>
      <point x="290" y="673"/>
      <point x="290" y="644" type="qcurve"/>
      <point x="290" y="619"/>
      <point x="258" y="580"/>
      <point x="234" y="575" type="qcurve"/>
      <point x="211" y="468" type="line"/>
      <point x="158" y="479" type="line"/>
      <point x="182" y="585" type="line"/>
      <point x="168" y="595"/>
      <point x="150" y="626"/>
    </contour>
    <contour>
      <point x="332" y="644" type="qcurve"/>
      <point x="332" y="673"/>
      <point x="373" y="714"/>
      <point x="402" y="714" type="qcurve"/>
      <point x="431" y="714"/>
      <point x="472" y="673"/>
      <point x="472" y="644" type="qcurve"/>
      <point x="472" y="619"/>
      <point x="440" y="580"/>
      <point x="416" y="575" type="qcurve"/>
      <point x="393" y="468" type="line"/>
      <point x="340" y="479" type="line"/>
      <point x="364" y="585" type="line"/>
      <point x="350" y="595"/>
      <point x="332" y="626"/>
    </contour>
  </outline>
</glyph>
<glyph name="uni2071" format="1">
  <advance width="612"/>
  <unicode hex="2071"/>
  <outline>
    <contour>
      <point x="364" y="785" type="qcurve"/>
      <point x="364" y="766"/>
      <point x="338" y="740"/>
      <point x="319" y="740" type="qcurve"/>
      <point x="300" y="740"/>
      <point x="274" y="766"/>
      <point x="274" y="785" type="qcurve"/>
      <point x="274" y="804"/>
      <point x="300" y="830"/>
      <point x="319" y="830" type="qcurve"/>
      <point x="338" y="830"/>
      <point x="364" y="804"/>
    </contour>
    <contour>
      <point x="196" y="460" type="line"/>
      <point x="292" y="460" type="line"/>
      <point x="292" y="652" type="line"/>
      <point x="204" y="652" type="line"/>
      <point x="204" y="700" type="line"/>
      <point x="346" y="700" type="line"/>
      <point x="346" y="460" type="line"/>
      <point x="436" y="460" type="line"/>
      <point x="436" y="412" type="line"/>
      <point x="196" y="412" type="line"/>
    </contour>
  </outline>
</glyph>
<glyph name="uni2079" format="1">
  <advance width="612"/>
  <unicode hex="2079"/>
  <outline>
    <contour>
      <point x="265" y="496" type="line"/>
      <point x="265" y="478"/>
      <point x="287" y="454"/>
      <point x="309" y="454" type="qcurve"/>
      <point x="330" y="454"/>
      <point x="352" y="480"/>
      <point x="352" y="502" type="qcurve"/>
      <point x="352" y="540" type="line"/>
      <point x="346" y="540" type="line"/>
      <point x="341" y="528"/>
      <point x="316" y="510"/>
      <point x="291" y="510" type="qcurve"/>
      <point x="252" y="510"/>
      <point x="206" y="565"/>
      <point x="206" y="606" type="qcurve"/>
      <point x="206" y="653"/>
      <point x="263" y="706"/>
      <point x="306" y="706" type="qcurve"/>
      <point x="351" y="706"/>
      <point x="406" y="654"/>
      <point x="406" y="610" type="qcurve"/>
      <point x="406" y="502" type="line"/>
      <point x="406" y="457"/>
      <point x="351" y="406"/>
      <point x="308" y="406" type="qcurve"/>
      <point x="264" y="406"/>
      <point x="211" y="454"/>
      <point x="211" y="496" type="qcurve"/>
    </contour>
    <contour>
      <point x="306" y="558" type="qcurve"/>
      <point x="327" y="558"/>
      <point x="352" y="585"/>
      <point x="352" y="608" type="qcurve"/>
      <point x="352" y="631"/>
      <point x="327" y="658"/>
      <point x="306" y="658" type="qcurve"/>
      <point x="285" y="658"/>
      <point x="260" y="631"/>
      <point x="260" y="608" type="qcurve"/>
      <point x="260" y="585"/>
      <point x="285" y="558"/>
    </contour>
  </outline>
</glyph>
<glyph name="uni207D" format="1">
  <advance width="612"/>
  <unicode hex="207D"/>
  <outline>
    <contour>
      <point x="404" y="351" type="line"/>
      <point x="404" y="303" type="line"/>
      <point x="386" y="303" type="line"/>
      <point x="350" y="303"/>
      <point x="285" y="329"/>
      <point x="237" y="378"/>
      <point x="208" y="448"/>
      <point x="208" y="493" type="qcurve"/>
      <point x="208" y="619" type="line"/>
      <point x="208" y="664"/>
      <point x="237" y="734"/>
      <point x="285" y="783"/>
      <point x="350" y="809"/>
      <point x="386" y="809" type="qcurve"/>
      <point x="404" y="809" type="line"/>
      <point x="404" y="761" type="line"/>
      <point x="386" y="761" type="line"/>
      <point x="359" y="761"/>
      <point x="312" y="740"/>
      <point x="276" y="702"/>
      <point x="256" y="649"/>
      <point x="256" y="617" type="qcurve"/>
      <point x="256" y="495" type="line"/>
      <point x="256" y="463"/>
      <point x="276" y="410"/>
      <point x="312" y="372"/>
      <point x="359" y="351"/>
      <point x="386" y="351" type="qcurve"/>
    </contour>
  </outline>
</glyph>
<glyph name="uni207F" format="1">
  <advance width="612"/>
  <unicode hex="207F"/>
  <outline>
    <contour>
      <point x="240" y="412" type="line"/>
      <point x="186" y="412" type="line"/>
      <point x="186" y="700" type="line"/>
      <point x="240" y="700" type="line"/>
      <point x="240" y="660" type="line"/>
      <point x="246" y="660" type="line"/>
      <point x="257" y="681"/>
      <point x="300" y="706"/>
      <point x="330" y="706" type="qcurve"/>
      <point x="381" y="706"/>
      <point x="438" y="646"/>
      <point x="438" y="586" type="qcurve"/>
      <point x="438" y="412" type="line"/>
      <point x="384" y="412" type="line"/>
      <point x="384" y="576" type="line"/>
      <point x="384" y="658"/>
      <point x="314" y="658" type="qcurve"/>
      <point x="275" y="658"/>
      <point x="240" y="607"/>
      <point x="240" y="566" type="qcurve"/>
    </contour>
  </outline>
</glyph>
<glyph name="uni208D" format="1">
  <advance width="612"/>
  <unicode hex="208D"/>
  <outline>
    <contour>
      <point x="404" y="-261" type="line"/>
      <point x="404" y="-309" type="line"/>
      <point x="386" y="-309" type="line"/>
      <point x="350" y="-309"/>
      <point x="285" y="-283"/>
      <point x="237" y="-234"/>
      <point x="208" y="-164"/>
      <point x="208" y="-119" type="qcurve"/>
      <point x="208" y="7" type="line"/>
      <point x="208" y="52"/>
      <point x="237" y="122"/>
      <point x="285" y="171"/>
      <point x="350" y="197"/>
      <point x="386" y="197" type="qcurve"/>
      <point x="404" y="197" type="line"/>
      <point x="404" y="149" type="line"/>
      <point x="386" y="149" type="line"/>
      <point x="359" y="149"/>
      <point x="312" y="128"/>
      <point x="276" y="90"/>
      <point x="256" y="37"/>
      <point x="256" y="5" type="qcurve"/>
      <point x="256" y="-117" type="line"/>
      <point x="256" y="-149"/>
      <point x="276" y="-202"/>
      <point x="312" y="-240"/>
      <point x="359" y="-261"/>
      <point x="386" y="-261" type="qcurve"/>
    </contour>
  </outline>
</glyph>
<glyph name="uni208E" format="1">
  <advance width="612"/>
  <unicode hex="208E"/>
  <outline>
    <contour>
      <point x="226" y="-261" type="line"/>
      <point x="253" y="-261"/>
      <point x="300" y="-240"/>
      <point x="336" y="-202"/>
      <point x="356" y="-149"/>
      <point x="356" y="-117" type="qcurve"/>
      <point x="356" y="5" type="line"/>
      <point x="356" y="37"/>
      <point x="336" y="90"/>
      <point x="300" y="128"/>
      <point x="253" y="149"/>
      <point x="226" y="149" type="qcurve"/>
      <point x="208" y="149" type="line"/>
      <point x="208" y="197" type="line"/>
      <point x="226" y="197" type="line"/>
      <point x="262" y="197"/>
      <point x="327" y="171"/>
      <point x="375" y="122"/>
      <point x="404" y="52"/>
      <point x="404" y="7" type="qcurve"/>
      <point x="404" y="-119" type="line"/>
      <point x="404" y="-164"/>
      <point x="375" y="-234"/>
      <point x="327" y="-283"/>
      <point x="262" y="-309"/>
      <point x="226" y="-309" type="qcurve"/>
      <point x="208" y="-309" type="line"/>
      <point x="208" y="-261" type="line"/>
    </contour>
  </outline>
</glyph>
<glyph name="uni2094" format="1">
  <advance width="612"/>
  <unicode hex="2094"/>
  <outline>
    <contour>
      <point x="389" y="-42" type="line"/>
      <point x="387" y="0"/>
      <point x="339" y="46"/>
      <point x="305" y="46" type="qcurve"/>
      <point x="270" y="46"/>
      <point x="233" y="12"/>
      <point x="224" y="-11" type="qcurve"/>
      <point x="177" y="9" type="line"/>
      <point x="193" y="49"/>
      <point x="257" y="94"/>
      <point x="303" y="94" type="qcurve"/>
      <point x="364" y="94"/>
      <point x="443" y="16"/>
      <point x="443" y="-51" type="qcurve"/>
      <point x="443" y="-65" type="line"/>
      <point x="443" y="-95"/>
      <point x="422" y="-147"/>
      <point x="385" y="-185"/>
      <point x="334" y="-206"/>
      <point x="303" y="-206" type="qcurve"/>
      <point x="268" y="-206"/>
      <point x="217" y="-181"/>
      <point x="184" y="-142"/>
      <point x="169" y="-95"/>
      <point x="169" y="-74" type="qcurve"/>
      <point x="169" y="-42" type="line"/>
    </contour>
    <contour>
      <point x="303" y="-158" type="qcurve"/>
      <point x="343" y="-158"/>
      <point x="382" y="-116"/>
      <point x="388" y="-90" type="qcurve"/>
      <point x="223" y="-90" type="line"/>
      <point x="226" y="-116"/>
      <point x="267" y="-158"/>
    </contour>
  </outline>
</glyph>
<glyph name="uni20A6" format="1">
  <advance width="612"/>
  <unicode hex="20A6"/>
  <outline>
    <contour>
      <point x="80" y="438" type="line"/>
      <point x="140" y="438" type="line"/>
      <point x="140" y="598" type="line"/>
      <point x="296" y="598" type="line"/>
      <point x="325" y="438" type="line"/>
      <point x="392" y="438" type="line"/>
      <point x="392" y="598" type="line"/>
      <point x="470" y="598" type="line"/>
      <point x="470" y="438" type="line"/>
      <point x="530" y="438" type="line"/>
      <point x="530" y="366" type="line"/>
      <point x="470" y="366" type="line"/>
      <point x="470" y="330" type="line"/>
      <point x="530" y="330" type="line"/>
      <point x="530" y="258" type="line"/>
      <point x="470" y="258" type="line"/>
      <point x="470" y="102" type="line"/>
      <point x="314" y="102" type="line"/>
      <point x="285" y="258" type="line"/>
      <point x="218" y="258" type="line"/>
      <point x="218" y="102" type="line"/>
      <point x="140" y="102" type="line"/>
      <point x="140" y="258" type="line"/>
      <point x="80" y="258" type="line"/>
      <point x="80" y="330" type="line"/>
      <point x="140" y="330" type="line"/>
      <point x="140" y="366" type="line"/>
      <point x="80" y="366" type="line"/>
    </contour>
    <contour>
      <point x="218" y="438" type="line"/>
      <point x="252" y="438" type="line"/>
      <point x="230" y="556" type="line"/>
      <point x="218" y="556" type="line"/>
    </contour>
    <contour>
      <point x="392" y="144" type="line"/>
      <point x="392" y="258" type="line"/>
      <point x="359" y="258" type="line"/>
      <point x="380" y="144" type="line"/>
    </contour>
    <contour>
      <point x="218" y="330" type="line"/>
      <point x="272" y="330" type="line"/>
      <point x="265" y="366" type="line"/>
      <point x="218" y="366" type="line"/>
    </contour>
    <contour>
      <point x="345" y="330" type="line"/>
      <point x="392" y="330" type="line"/>
      <point x="392" y="366" type="line"/>
      <point x="339" y="366" type="line"/>
    </contour>
  </outline>
</glyph>
<glyph name="uni20A7" format="1">
  <advance width="612"/>
  <unicode hex="20A7"/>
  <outline>
    <contour>
      <point x="86" y="479" type="line"/>
      <point x="146" y="479" type="line"/>
      <point x="146" y="598" type="line"/>
      <point x="318" y="598" type="line"/>
      <point x="384" y="598"/>
      <point x="463" y="529"/>
      <point x="471" y="479" type="qcurve"/>
      <point x="534" y="479" type="line"/>
      <point x="534" y="407" type="line"/>
      <point x="471" y="407" type="line"/>
      <point x="461" y="357"/>
      <point x="383" y="288"/>
      <point x="318" y="288" type="qcurve"/>
      <point x="224" y="288" type="line"/>
      <point x="224" y="102" type="line"/>
      <point x="146" y="102" type="line"/>
      <point x="146" y="407" type="line"/>
      <point x="86" y="407" type="line"/>
    </contour>
    <contour>
      <point x="312" y="360" type="line"/>
      <point x="373" y="360"/>
      <point x="390" y="407" type="qcurve"/>
      <point x="224" y="407" type="line"/>
      <point x="224" y="360" type="line"/>
    </contour>
    <contour>
      <point x="224" y="479" type="line"/>
      <point x="390" y="479" type="line"/>
      <point x="373" y="526"/>
      <point x="312" y="526" type="qcurve"/>
      <point x="224" y="526" type="line"/>
    </contour>
  </outline>
</glyph>
<glyph name="Euro" format="1">
  <advance width="612"/>
  <unicode hex="20AC"/>
  <outline>
    <contour>
      <point x="36" y="438" type="line"/>
      <point x="96" y="438" type="line"/>
      <point x="108" y="479"/>
      <point x="156" y="543"/>
      <point x="221" y="588"/>
      <point x="298" y="612"/>
      <point x="340" y="612" type="qcurve"/>
      <point x="387" y="612"/>
      <point x="467" y="584"/>
      <point x="528" y="533"/>
      <point x="567" y="463"/>
      <point x="574" y="422" type="qcurve"/>
      <point x="496" y="404" type="line"/>
      <point x="493" y="430"/>
      <point x="470" y="479"/>
      <point x="431" y="516"/>
      <point x="375" y="538"/>
      <point x="338" y="538" type="qcurve"/>
      <point x="286" y="538"/>
      <point x="203" y="484"/>
      <point x="182" y="438" type="qcurve"/>
      <point x="326" y="438" type="line"/>
      <point x="326" y="366" type="line"/>
      <point x="164" y="366" type="line"/>
      <point x="164" y="330" type="line"/>
      <point x="326" y="330" type="line"/>
      <point x="326" y="258" type="line"/>
      <point x="181" y="258" type="line"/>
      <point x="203" y="212"/>
      <point x="286" y="162"/>
      <point x="340" y="162" type="qcurve"/>
      <point x="377" y="162"/>
      <point x="432" y="185"/>
      <point x="471" y="222"/>
      <point x="494" y="270"/>
      <point x="498" y="296" type="qcurve"/>
      <point x="576" y="278" type="line"/>
      <point x="568" y="237"/>
      <point x="529" y="167"/>
      <point x="469" y="116"/>
      <point x="389" y="88"/>
      <point x="340" y="88" type="qcurve"/>
      <point x="298" y="88"/>
      <point x="221" y="110"/>
      <point x="156" y="153"/>
      <point x="108" y="217"/>
      <point x="96" y="258" type="qcurve"/>
      <point x="36" y="258" type="line"/>
      <point x="36" y="330" type="line"/>
      <point x="84" y="330" type="line"/>
      <point x="84" y="366" type="line"/>
      <point x="36" y="366" type="line"/>
    </contour>
  </outline>
</glyph>
<glyph name="uni20B9" format="1">
  <advance width="612"/>
  <unicode hex="20B9"/>
  <outline>
    <contour>
      <point x="128" y="598" type="line"/>
      <point x="494" y="598" type="line"/>
      <point x="494" y="526" type="line"/>
      <point x="415" y="526" type="line"/>
      <point x="415" y="520" type="line"/>
      <point x="429" y="506"/>
      <point x="432" y="485" type="qcurve"/>
      <point x="494" y="485" type="line"/>
      <point x="494" y="413" type="line"/>
      <point x="429" y="413" type="line"/>
      <point x="423" y="392"/>
      <point x="393" y="358"/>
      <point x="370" y="348" type="qcurve"/>
      <point x="370" y="336" type="line"/>
      <point x="391" y="333"/>
      <point x="416" y="306"/>
      <point x="416" y="283" type="qcurve"/>
      <point x="416" y="102" type="line"/>
      <point x="338" y="102" type="line"/>
      <point x="338" y="262" type="line"/>
      <point x="338" y="280"/>
      <point x="322" y="300"/>
      <point x="300" y="300" type="qcurve"/>
      <point x="128" y="300" type="line"/>
      <point x="128" y="372" type="line"/>
      <point x="270" y="372" type="line"/>
      <point x="332" y="372"/>
      <point x="349" y="413" type="qcurve"/>
      <point x="128" y="413" type="line"/>
      <point x="128" y="485" type="line"/>
      <point x="349" y="485" type="line"/>
      <point x="332" y="526"/>
      <point x="270" y="526" type="qcurve"/>
      <point x="128" y="526" type="line"/>
    </contour>
  </outline>
</glyph>
<glyph name="arrowup" format="1">
  <advance width="612"/>
  <unicode hex="2191"/>
  <outline>
    <contour>
      <point x="507" y="467" type="line"/>
      <point x="456" y="416" type="line"/>
      <point x="368" y="504" type="line"/>
      <point x="340" y="554" type="line"/>
      <point x="328" y="549" type="line"/>
      <point x="342" y="504" type="line"/>
      <point x="342" y="80" type="line"/>
      <point x="270" y="80" type="line"/>
      <point x="270" y="504" type="line"/>
      <point x="284" y="549" type="line"/>
      <point x="272" y="554" type="line"/>
      <point x="244" y="504" type="line"/>
      <point x="156" y="416" type="line"/>
      <point x="105" y="467" type="line"/>
      <point x="258" y="620" type="line"/>
      <point x="354" y="620" type="line"/>
    </contour>
  </outline>
</glyph>
<glyph name="summation" format="1">
  <advance width="612"/>
  <unicode hex="2211"/>
  <outline>
    <contour>
      <point x="316" y="356" type="line"/>
      <point x="72" y="572" type="line"/>
      <point x="72" y="700" type="line"/>
      <point x="540" y="700" type="line"/>
      <point x="540" y="622" type="line"/>
      <point x="144" y="622" type="line"/>
      <point x="144" y="610" type="line"/>
      <point x="388" y="392" type="line"/>
      <point x="388" y="308" type="line"/>
      <point x="144" y="90" type="line"/>
      <point x="144" y="78" type="line"/>
      <point x="540" y="78" type="line"/>
      <point x="540" y="0" type="line"/>
      <point x="72" y="0" type="line"/>
      <point x="72" y="128" type="line"/>
      <point x="316" y="344" type="line"/>
    </contour>
  </outline>
</glyph>
<glyph name="uni2215" format="1">
  <advance width="612"/>
  <unicode hex="2215"/>
  <outline>
    <contour>
      <point x="485" y="806" type="line"/>
      <point x="551" y="775" type="line"/>
      <point x="128" y="-106" type="line"/>
      <point x="61" y="-75" type="line"/>
    </contour>
  </outline>
</glyph>
<glyph name="approxequal" format="1">
  <advance width="612"/>
  <unicode hex="2248"/>
  <outline>
    <contour>
      <point x="338" y="252" type="qcurve"/>
      <point x="340" y="244"/>
      <point x="350" y="227"/>
      <point x="361" y="227" type="qcurve"/>
      <point x="369" y="227"/>
      <point x="381" y="236" type="qcurve"/>
      <point x="488" y="315" type="line"/>
      <point x="527" y="265" type="line"/>
      <point x="425" y="187" type="line"/>
      <point x="411" y="176"/>
      <point x="380" y="160"/>
      <point x="357" y="160" type="qcurve"/>
      <point x="318" y="160"/>
      <point x="284" y="201"/>
      <point x="273" y="236" type="qcurve"/>
      <point x="271" y="245"/>
      <point x="262" y="264"/>
      <point x="250" y="264" type="qcurve"/>
      <point x="241" y="264"/>
      <point x="227" y="253" type="qcurve"/>
      <point x="124" y="177" type="line"/>
      <point x="85" y="227" type="line"/>
      <point x="186" y="304" type="line"/>
      <point x="201" y="316"/>
      <point x="233" y="331"/>
      <point x="254" y="331" type="qcurve"/>
      <point x="292" y="331"/>
      <point x="327" y="288"/>
    </contour>
    <contour>
      <point x="338" y="423" type="qcurve"/>
      <point x="340" y="415"/>
      <point x="350" y="398"/>
      <point x="361" y="398" type="qcurve"/>
      <point x="369" y="398"/>
      <point x="381" y="407" type="qcurve"/>
      <point x="488" y="486" type="line"/>
      <point x="527" y="436" type="line"/>
      <point x="425" y="358" type="line"/>
      <point x="411" y="347"/>
      <point x="380" y="331"/>
      <point x="357" y="331" type="qcurve"/>
      <point x="318" y="331"/>
      <point x="284" y="372"/>
      <point x="273" y="407" type="qcurve"/>
      <point x="271" y="416"/>
      <point x="262" y="435"/>
      <point x="250" y="435" type="qcurve"/>
      <point x="241" y="435"/>
      <point x="227" y="424" type="qcurve"/>
      <point x="124" y="348" type="line"/>
      <point x="85" y="398" type="line"/>
      <point x="186" y="475" type="line"/>
      <point x="201" y="487"/>
      <point x="233" y="502"/>
      <point x="254" y="502" type="qcurve"/>
      <point x="292" y="502"/>
      <point x="327" y="459"/>
    </contour>
  </outline>
</glyph>
<glyph name="greaterequal" format="1">
  <advance width="612"/>
  <unicode hex="2265"/>
  <outline>
    <contour>
      <point x="97" y="130" type="line"/>
      <point x="97" y="214" type="line"/>
      <point x="485" y="344" type="line"/>
      <point x="485" y="356" type="line"/>
      <point x="97" y="486" type="line"/>
      <point x="97" y="570" type="line"/>
      <point x="515" y="426" type="line"/>
      <point x="515" y="274" type="line"/>
    </contour>
    <contour>
      <point x="515" y="0" type="line"/>
      <point x="97" y="0" type="line"/>
      <point x="97" y="72" type="line"/>
      <point x="515" y="72" type="line"/>
    </contour>
  </outline>
</glyph>
<glyph name="fl" format="1">
  <advance width="612"/>
  <unicode hex="FB02"/>
  <outline>
    <contour>
      <point x="416" y="628" type="line"/>
      <point x="270" y="628" type="line"/>
      <point x="243" y="628"/>
      <point x="243" y="598" type="qcurve"/>
      <point x="243" y="496" type="line"/>
      <point x="368" y="496" type="line"/>
      <point x="368" y="424" type="line"/>
      <point x="243" y="424" type="line"/>
      <point x="243" y="0" type="line"/>
      <point x="165" y="0" type="line"/>
      <point x="165" y="424" type="line"/>
      <point x="48" y="424" type="line"/>
      <point x="48" y="496" type="line"/>
      <point x="165" y="496" type="line"/>
      <point x="165" y="622" type="line"/>
      <point x="165" y="656"/>
      <point x="208" y="700"/>
      <point x="242" y="700" type="qcurve"/>
      <point x="494" y="700" type="line"/>
      <point x="494" y="0" type="line"/>
      <point x="416" y="0" type="line"/>
    </contour>
  </outline>
</glyph>
<glyph name="D.alt" format="1">
  <advance width="612"/>
  <outline>
    <contour>
      <point x="98" y="700" type="line"/>
      <point x="280" y="700" type="line"/>
      <point x="410" y="700"/>
      <point x="530" y="576"/>
      <point x="530" y="440" type="qcurve"/>
      <point x="530" y="260" type="line"/>
      <point x="530" y="124"/>
      <point x="410" y="0"/>
      <point x="280" y="0" type="qcurve"/>
      <point x="98" y="0" type="line"/>
    </contour>
    <contour>
      <point x="268" y="78" type="line"/>
      <point x="314" y="78"/>
      <point x="381" y="96"/>
      <point x="425" y="139"/>
      <point x="446" y="211"/>
      <point x="446" y="266" type="qcurve"/>
      <point x="446" y="434" type="line"/>
      <point x="446" y="489"/>
      <point x="425" y="561"/>
      <point x="381" y="604"/>
      <point x="314" y="622"/>
      <point x="268" y="622" type="qcurve"/>
      <point x="182" y="622" type="line"/>
      <point x="182" y="78" type="line"/>
    </contour>
  </outline>
</glyph>
<glyph name="IJ.alt" format="1">
  <advance width="612"/>
  <outline>
    <contour>
      <point x="90" y="700" type="line"/>
      <point x="174" y="700" type="line"/>
      <point x="174" y="342" type="line"/>
      <point x="90" y="342" type="line"/>
    </contour>
    <contour>
      <point x="522" y="210" type="line"/>
      <point x="522" y="101"/>
      <point x="415" y="-14"/>
      <point x="312" y="-14" type="qcurve"/>
      <point x="209" y="-14"/>
      <point x="90" y="101"/>
      <point x="90" y="210" type="qcurve"/>
      <point x="90" y="264" type="line"/>
      <point x="174" y="264" type="line"/>
      <point x="174" y="210" type="line"/>
      <point x="174" y="144"/>
      <point x="242" y="64"/>
      <point x="312" y="64" type="qcurve"/>
      <point x="382" y="64"/>
      <point x="438" y="144"/>
      <point x="438" y="210" type="qcurve"/>
      <point x="438" y="700" type="line"/>
      <point x="522" y="700" type="line"/>
    </contour>
  </outline>
</glyph>
<glyph name="IJacute.alt" format="1">
  <advance width="612"/>
  <outline>
    <contour>
      <point x="73" y="700" type="line"/>
      <point x="157" y="700" type="line"/>
      <point x="157" y="342" type="line"/>
      <point x="73" y="342" type="line"/>
    </contour>
    <contour>
      <point x="505" y="210" type="line"/>
      <point x="505" y="101"/>
      <point x="398" y="-14"/>
      <point x="295" y="-14" type="qcurve"/>
      <point x="192" y="-14"/>
      <point x="73" y="101"/>
      <point x="73" y="210" type="qcurve"/>
      <point x="73" y="264" type="line"/>
      <point x="157" y="264" type="line"/>
      <point x="157" y="210" type="line"/>
      <point x="157" y="144"/>
      <point x="225" y="64"/>
      <point x="295" y="64" type="qcurve"/>
      <point x="365" y="64"/>
      <point x="421" y="144"/>
      <point x="421" y="210" type="qcurve"/>
      <point x="421" y="700" type="line"/>
      <point x="505" y="700" type="line"/>
    </contour>
    <component base="acute" xOffset="-151" yOffset="204"/>
    <component base="acute" xOffset="197" yOffset="204"/>
  </outline>
</glyph>
<glyph name="at.cap" format="1">
  <advance width="612"/>
  <outline>
    <contour>
      <point x="547" y="0" type="line"/>
      <point x="515" y="0"/>
      <point x="475" y="31"/>
      <point x="470" y="60" type="qcurve"/>
      <point x="458" y="60" type="line"/>
      <point x="449" y="28"/>
      <point x="393" y="-14"/>
      <point x="342" y="-14" type="qcurve"/>
      <point x="301" y="-14"/>
      <point x="233" y="19"/>
      <point x="182" y="83"/>
      <point x="154" y="178"/>
      <point x="154" y="240" type="qcurve"/>
      <point x="154" y="256" type="line"/>
      <point x="154" y="320"/>
      <point x="183" y="415"/>
      <point x="234" y="478"/>
      <point x="302" y="510"/>
      <point x="340" y="510" type="qcurve"/>
      <point x="387" y="510"/>
      <point x="444" y="472"/>
      <point x="458" y="442" type="qcurve"/>
      <point x="470" y="442" type="line"/>
      <point x="470" y="522" type="line"/>
      <point x="470" y="582"/>
      <point x="413" y="642"/>
      <point x="350" y="642" type="qcurve"/>
      <point x="232" y="642" type="line"/>
      <point x="166" y="642"/>
      <point x="106" y="576"/>
      <point x="106" y="510" type="qcurve"/>
      <point x="106" y="4" type="line"/>
      <point x="106" y="-62"/>
      <point x="166" y="-128"/>
      <point x="232" y="-128" type="qcurve"/>
      <point x="600" y="-128" type="line"/>
      <point x="600" y="-200" type="line"/>
      <point x="226" y="-200" type="line"/>
      <point x="132" y="-200"/>
      <point x="28" y="-103"/>
      <point x="28" y="-2" type="qcurve"/>
      <point x="28" y="516" type="line"/>
      <point x="28" y="616"/>
      <point x="134" y="714"/>
      <point x="226" y="714" type="qcurve"/>
      <point x="358" y="714" type="line"/>
      <point x="449" y="714"/>
      <point x="548" y="624"/>
      <point x="548" y="530" type="qcurve"/>
      <point x="548" y="102" type="line"/>
      <point x="548" y="72"/>
      <point x="575" y="72" type="qcurve"/>
      <point x="600" y="72" type="line"/>
      <point x="600" y="0" type="line"/>
    </contour>
    <contour>
      <point x="350" y="60" type="qcurve"/>
      <point x="384" y="60"/>
      <point x="430" y="88"/>
      <point x="458" y="136"/>
      <point x="470" y="203"/>
      <point x="470" y="242" type="qcurve"/>
      <point x="470" y="254" type="line"/>
      <point x="470" y="291"/>
      <point x="459" y="358"/>
      <point x="432" y="407"/>
      <point x="386" y="436"/>
      <point x="352" y="436" type="qcurve"/>
      <point x="297" y="436"/>
      <point x="234" y="345"/>
      <point x="234" y="256" type="qcurve"/>
      <point x="234" y="240" type="line"/>
      <point x="234" y="152"/>
      <point x="295" y="60"/>
    </contour>
  </outline>
</glyph>
<glyph name="florin.cap" format="1">
  <advance width="612"/>
  <outline>
    <contour>
      <point x="264" y="438" type="line"/>
      <point x="264" y="622" type="line"/>
      <point x="264" y="656"/>
      <point x="307" y="700"/>
      <point x="341" y="700" type="qcurve"/>
      <point x="519" y="700" type="line"/>
      <point x="519" y="628" type="line"/>
      <point x="369" y="628" type="line"/>
      <point x="342" y="628"/>
      <point x="342" y="598" type="qcurve"/>
      <point x="342" y="438" type="line"/>
      <point x="483" y="438" type="line"/>
      <point x="483" y="366" type="line"/>
      <point x="342" y="366" type="line"/>
      <point x="342" y="78" type="line"/>
      <point x="342" y="44"/>
      <point x="299" y="0"/>
      <point x="265" y="0" type="qcurve"/>
      <point x="93" y="0" type="line"/>
      <point x="93" y="72" type="line"/>
      <point x="237" y="72" type="line"/>
      <point x="264" y="72"/>
      <point x="264" y="102" type="qcurve"/>
      <point x="264" y="366" type="line"/>
      <point x="129" y="366" type="line"/>
      <point x="129" y="438" type="line"/>
    </contour>
  </outline>
</glyph>
<glyph name="four.tosn" format="1">
  <advance width="612"/>
  <outline>
    <contour>
      <point x="296" y="496" type="line"/>
      <point x="456" y="496" type="line"/>
      <point x="456" y="78" type="line"/>
      <point x="558" y="78" type="line"/>
      <point x="558" y="0" type="line"/>
      <point x="456" y="0" type="line"/>
      <point x="456" y="-194" type="line"/>
      <point x="372" y="-194" type="line"/>
      <point x="372" y="0" type="line"/>
      <point x="60" y="0" type="line"/>
      <point x="60" y="114" type="line"/>
    </contour>
    <contour>
      <point x="132" y="90" type="line"/>
      <point x="132" y="78" type="line"/>
      <point x="372" y="78" type="line"/>
      <point x="372" y="460" type="line"/>
      <point x="360" y="460" type="line"/>
    </contour>
  </outline>
</glyph>
<glyph name="iogonek.alt" format="1">
  <advance width="612"/>
  <outline>
    <contour>
      <point x="334" y="-68" type="line"/>
      <point x="333" y="-73"/>
      <point x="333" y="-76" type="qcurve"/>
      <point x="333" y="-98"/>
      <point x="356" y="-98" type="qcurve"/>
      <point x="398" y="-98" type="line"/>
      <point x="398" y="-164" type="line"/>
      <point x="342" y="-164" type="line"/>
      <point x="313" y="-164"/>
      <point x="264" y="-127"/>
      <point x="264" y="-90" type="qcurve"/>
      <point x="264" y="-81"/>
      <point x="267" y="-66" type="qcurve"/>
      <point x="290" y="42" type="line"/>
      <point x="290" y="424" type="line"/>
      <point x="120" y="424" type="line"/>
      <point x="120" y="496" type="line"/>
      <point x="368" y="496" type="line"/>
      <point x="368" y="0" type="line"/>
      <point x="350" y="0" type="line"/>
    </contour>
    <contour>
      <point x="258" y="644" type="qcurve"/>
      <point x="258" y="673"/>
      <point x="299" y="714"/>
      <point x="328" y="714" type="qcurve"/>
      <point x="357" y="714"/>
      <point x="398" y="673"/>
      <point x="398" y="644" type="qcurve"/>
      <point x="398" y="615"/>
      <point x="357" y="574"/>
      <point x="328" y="574" type="qcurve"/>
      <point x="299" y="574"/>
      <point x="258" y="615"/>
    </contour>
  </outline>
</glyph>
<glyph name="one.tosn" format="1">
  <advance width="612"/>
  <outline>
    <contour>
      <point x="279" y="78" type="line"/>
      <point x="279" y="459" type="line"/>
      <point x="267" y="459" type="line"/>
      <point x="164" y="280" type="line"/>
      <point x="75" y="280" type="line"/>
      <point x="75" y="286" type="line"/>
      <point x="200" y="496" type="line"/>
      <point x="363" y="496" type="line"/>
      <point x="363" y="78" type="line"/>
      <point x="537" y="78" type="line"/>
      <point x="537" y="0" type="line"/>
      <point x="81" y="0" type="line"/>
      <point x="81" y="78" type="line"/>
    </contour>
  </outline>
</glyph>
<glyph name="section.cap" format="1">
  <advance width="612"/>
  <outline>
    <contour>
      <point x="129" y="400" type="line"/>
      <point x="129" y="444"/>
      <point x="152" y="478" type="qcurve"/>
      <point x="129" y="512"/>
      <point x="129" y="560" type="qcurve"/>
      <point x="129" y="566" type="line"/>
      <point x="129" y="599"/>
      <point x="155" y="653"/>
      <point x="202" y="692"/>
      <point x="267" y="714"/>
      <point x="307" y="714" type="qcurve"/>
      <point x="354" y="714"/>
      <point x="427" y="688"/>
      <point x="476" y="643"/>
      <point x="501" y="584"/>
      <point x="501" y="552" type="qcurve"/>
      <point x="501" y="520" type="line"/>
      <point x="423" y="520" type="line"/>
      <point x="423" y="546" type="line"/>
      <point x="423" y="591"/>
      <point x="356" y="642"/>
      <point x="307" y="642" type="qcurve"/>
      <point x="264" y="642"/>
      <point x="207" y="600"/>
      <point x="207" y="564" type="qcurve"/>
      <point x="207" y="544"/>
      <point x="221" y="514"/>
      <point x="253" y="493"/>
      <point x="302" y="478"/>
      <point x="338" y="473" type="qcurve"/>
      <point x="426" y="460"/>
      <point x="507" y="383"/>
      <point x="507" y="320" type="qcurve"/>
      <point x="507" y="314" type="line"/>
      <point x="507" y="268"/>
      <point x="487" y="233" type="qcurve"/>
      <point x="507" y="199"/>
      <point x="507" y="156" type="qcurve"/>
      <point x="507" y="148" type="line"/>
      <point x="507" y="76"/>
      <point x="411" y="-14"/>
      <point x="319" y="-14" type="qcurve"/>
      <point x="266" y="-14"/>
      <point x="186" y="16"/>
      <point x="132" y="70"/>
      <point x="105" y="142"/>
      <point x="105" y="184" type="qcurve"/>
      <point x="105" y="204" type="line"/>
      <point x="183" y="204" type="line"/>
      <point x="183" y="188" type="line"/>
      <point x="183" y="128"/>
      <point x="253" y="58"/>
      <point x="319" y="58" type="qcurve"/>
      <point x="372" y="58"/>
      <point x="429" y="106"/>
      <point x="429" y="148" type="qcurve"/>
      <point x="429" y="187"/>
      <point x="377" y="228"/>
      <point x="306" y="239" type="qcurve"/>
      <point x="226" y="251"/>
      <point x="129" y="323"/>
      <point x="129" y="394" type="qcurve"/>
    </contour>
    <contour>
      <point x="338" y="309" type="qcurve"/>
      <point x="389" y="301"/>
      <point x="423" y="285" type="qcurve"/>
      <point x="429" y="297"/>
      <point x="429" y="312" type="qcurve"/>
      <point x="429" y="351"/>
      <point x="377" y="392"/>
      <point x="306" y="403" type="qcurve"/>
      <point x="251" y="411"/>
      <point x="214" y="428" type="qcurve"/>
      <point x="207" y="415"/>
      <point x="207" y="398" type="qcurve"/>
      <point x="207" y="359"/>
      <point x="267" y="319"/>
    </contour>
  </outline>
</glyph>
<glyph name="seven.tosn" format="1">
  <advance width="612"/>
  <outline>
    <contour>
      <point x="70" y="496" type="line"/>
      <point x="532" y="496" type="line"/>
      <point x="532" y="374" type="line"/>
      <point x="243" y="-62" type="line"/>
      <point x="222" y="-94"/>
      <point x="200" y="-140"/>
      <point x="200" y="-164" type="qcurve"/>
      <point x="200" y="-194" type="line"/>
      <point x="118" y="-194" type="line"/>
      <point x="118" y="-158" type="line"/>
      <point x="118" y="-140"/>
      <point x="125" y="-108"/>
      <point x="140" y="-75"/>
      <point x="163" y="-38"/>
      <point x="179" y="-14" type="qcurve"/>
      <point x="460" y="406" type="line"/>
      <point x="460" y="418" type="line"/>
      <point x="70" y="418" type="line"/>
    </contour>
  </outline>
</glyph>
<glyph name="six.tosn" format="1">
  <advance width="612"/>
  <outline>
    <contour>
      <point x="458" y="498" type="line"/>
      <point x="453" y="561"/>
      <point x="374" y="640"/>
      <point x="302" y="640" type="qcurve"/>
      <point x="269" y="640"/>
      <point x="212" y="616"/>
      <point x="171" y="571"/>
      <point x="147" y="509"/>
      <point x="147" y="472" type="qcurve"/>
      <point x="147" y="368" type="line"/>
      <point x="159" y="368" type="line"/>
      <point x="183" y="412"/>
      <point x="272" y="462"/>
      <point x="327" y="462" type="qcurve"/>
      <point x="375" y="462"/>
      <point x="457" y="431"/>
      <point x="516" y="371"/>
      <point x="549" y="286"/>
      <point x="549" y="232" type="qcurve"/>
      <point x="549" y="220" type="line"/>
      <point x="549" y="168"/>
      <point x="512" y="82"/>
      <point x="447" y="20"/>
      <point x="358" y="-14"/>
      <point x="306" y="-14" type="qcurve"/>
      <point x="254" y="-14"/>
      <point x="165" y="20"/>
      <point x="100" y="81"/>
      <point x="63" y="166"/>
      <point x="63" y="217" type="qcurve"/>
      <point x="63" y="472" type="line"/>
      <point x="63" y="527"/>
      <point x="101" y="617"/>
      <point x="167" y="680"/>
      <point x="256" y="714"/>
      <point x="306" y="714" type="qcurve"/>
      <point x="355" y="714"/>
      <point x="437" y="684"/>
      <point x="497" y="630"/>
      <point x="533" y="554"/>
      <point x="538" y="508" type="qcurve"/>
    </contour>
    <contour>
      <point x="306" y="60" type="qcurve"/>
      <point x="342" y="60"/>
      <point x="401" y="83"/>
      <point x="443" y="125"/>
      <point x="465" y="183"/>
      <point x="465" y="218" type="qcurve"/>
      <point x="465" y="230" type="line"/>
      <point x="465" y="265"/>
      <point x="441" y="323"/>
      <point x="399" y="365"/>
      <point x="340" y="388"/>
      <point x="306" y="388" type="qcurve"/>
      <point x="272" y="388"/>
      <point x="214" y="364"/>
      <point x="171" y="322"/>
      <point x="147" y="266"/>
      <point x="147" y="234" type="qcurve"/>
      <point x="147" y="215" type="line"/>
      <point x="147" y="182"/>
      <point x="169" y="125"/>
      <point x="211" y="83"/>
      <point x="270" y="60"/>
    </contour>
  </outline>
</glyph>
<glyph name="uni0243.alt" format="1">
  <advance width="612"/>
  <outline>
    <contour>
      <point x="96" y="156" type="line"/>
      <point x="36" y="156" type="line"/>
      <point x="36" y="234" type="line"/>
      <point x="96" y="234" type="line"/>
      <point x="96" y="700" type="line"/>
      <point x="331" y="700" type="line"/>
      <point x="381" y="700"/>
      <point x="458" y="672"/>
      <point x="511" y="624"/>
      <point x="538" y="557"/>
      <point x="538" y="518" type="qcurve"/>
      <point x="538" y="506" type="line"/>
      <point x="538" y="477"/>
      <point x="520" y="429"/>
      <point x="488" y="391"/>
      <point x="445" y="364"/>
      <point x="420" y="357" type="qcurve"/>
      <point x="420" y="345" type="line"/>
      <point x="470" y="331"/>
      <point x="538" y="252"/>
      <point x="538" y="195" type="qcurve"/>
      <point x="538" y="183" type="line"/>
      <point x="538" y="144"/>
      <point x="511" y="77"/>
      <point x="458" y="28"/>
      <point x="381" y="0"/>
      <point x="331" y="0" type="qcurve"/>
      <point x="96" y="0" type="line"/>
    </contour>
    <contour>
      <point x="180" y="390" type="line"/>
      <point x="328" y="390" type="line"/>
      <point x="388" y="390"/>
      <point x="458" y="452"/>
      <point x="458" y="506" type="qcurve"/>
      <point x="458" y="512" type="line"/>
      <point x="458" y="563"/>
      <point x="384" y="622"/>
      <point x="325" y="622" type="qcurve"/>
      <point x="180" y="622" type="line"/>
    </contour>
    <contour>
      <point x="180" y="234" type="line"/>
      <point x="288" y="234" type="line"/>
      <point x="288" y="156" type="line"/>
      <point x="180" y="156" type="line"/>
      <point x="180" y="78" type="line"/>
      <point x="325" y="78" type="line"/>
      <point x="384" y="78"/>
      <point x="458" y="137"/>
      <point x="458" y="189" type="qcurve"/>
      <point x="458" y="195" type="line"/>
      <point x="458" y="249"/>
      <point x="388" y="312"/>
      <point x="328" y="312" type="qcurve"/>
      <point x="180" y="312" type="line"/>
    </contour>
  </outline>
</glyph>
<glyph name="uni1EA3.alt" format="1">
  <advance width="612"/>
  <outline>
    <contour>
      <point x="258" y="546" type="line"/>
      <point x="238" y="638" type="line"/>
      <point x="238" y="644" type="line"/>
      <point x="314" y="644" type="line"/>
      <point x="321" y="630"/>
      <point x="339" y="630" type="qcurve"/>
      <point x="353" y="630"/>
      <point x="374" y="650"/>
      <point x="374" y="668" type="qcurve"/>
      <point x="374" y="690"/>
      <point x="349" y="710"/>
      <point x="334" y="710" type="qcurve"/>
      <point x="312" y="710"/>
      <point x="289" y="685"/>
      <point x="286" y="670" type="qcurve"/>
      <point x="238" y="688" type="line"/>
      <point x="246" y="718"/>
      <point x="292" y="758"/>
      <point x="335" y="758" type="qcurve"/>
      <point x="374" y="758"/>
      <point x="428" y="709"/>
      <point x="428" y="667" type="qcurve"/>
      <point x="428" y="632"/>
      <point x="387" y="582"/>
      <point x="352" y="582" type="qcurve"/>
      <point x="311" y="582"/>
      <point x="298" y="614" type="qcurve"/>
      <point x="292" y="614" type="line"/>
      <point x="307" y="546" type="line"/>
    </contour>
    <component base="a.alt"/>
  </outline>
</glyph>
<glyph name="uni1EA9.alt" format="1">
  <advance width="612"/>
  <outline>
    <contour>
      <point x="411" y="658" type="line"/>
      <point x="391" y="750" type="line"/>
      <point x="391" y="756" type="line"/>
      <point x="467" y="756" type="line"/>
      <point x="474" y="742"/>
      <point x="492" y="742" type="qcurve"/>
      <point x="506" y="742"/>
      <point x="527" y="762"/>
      <point x="527" y="780" type="qcurve"/>
      <point x="527" y="802"/>
      <point x="502" y="822"/>
      <point x="487" y="822" type="qcurve"/>
      <point x="465" y="822"/>
      <point x="442" y="797"/>
      <point x="439" y="782" type="qcurve"/>
      <point x="391" y="800" type="line"/>
      <point x="399" y="830"/>
      <point x="445" y="870"/>
      <point x="488" y="870" type="qcurve"/>
      <point x="527" y="870"/>
      <point x="581" y="821"/>
      <point x="581" y="779" type="qcurve"/>
      <point x="581" y="744"/>
      <point x="540" y="694"/>
      <point x="505" y="694" type="qcurve"/>
      <point x="464" y="694"/>
      <point x="451" y="726" type="qcurve"/>
      <point x="445" y="726" type="line"/>
      <point x="460" y="658" type="line"/>
    </contour>
    <component base="a.alt"/>
    <component base="circumflex" xOffset="-14"/>
  </outline>
</glyph>
<glyph name="uni1EB3.alt" format="1">
  <advance width="612"/>
  <outline>
    <contour>
      <point x="267" y="718" type="line"/>
      <point x="247" y="810" type="line"/>
      <point x="247" y="816" type="line"/>
      <point x="323" y="816" type="line"/>
      <point x="330" y="802"/>
      <point x="348" y="802" type="qcurve"/>
      <point x="362" y="802"/>
      <point x="383" y="822"/>
      <point x="383" y="840" type="qcurve"/>
      <point x="383" y="862"/>
      <point x="358" y="882"/>
      <point x="343" y="882" type="qcurve"/>
      <point x="321" y="882"/>
      <point x="298" y="857"/>
      <point x="295" y="842" type="qcurve"/>
      <point x="247" y="860" type="line"/>
      <point x="255" y="890"/>
      <point x="301" y="930"/>
      <point x="344" y="930" type="qcurve"/>
      <point x="383" y="930"/>
      <point x="437" y="881"/>
      <point x="437" y="839" type="qcurve"/>
      <point x="437" y="804"/>
      <point x="396" y="754"/>
      <point x="361" y="754" type="qcurve"/>
      <point x="320" y="754"/>
      <point x="307" y="786" type="qcurve"/>
      <point x="301" y="786" type="line"/>
      <point x="316" y="718" type="line"/>
    </contour>
    <component base="a.alt"/>
    <component base="breve" xOffset="-14"/>
  </outline>
</glyph>
<glyph name="uni1EC9.alt" format="1">
  <advance width="612"/>
  <outline>
    <contour>
      <point x="304" y="546" type="line"/>
      <point x="284" y="638" type="line"/>
      <point x="284" y="644" type="line"/>
      <point x="360" y="644" type="line"/>
      <point x="367" y="630"/>
      <point x="385" y="630" type="qcurve"/>
      <point x="399" y="630"/>
      <point x="420" y="650"/>
      <point x="420" y="668" type="qcurve"/>
      <point x="420" y="690"/>
      <point x="395" y="710"/>
      <point x="380" y="710" type="qcurve"/>
      <point x="358" y="710"/>
      <point x="335" y="685"/>
      <point x="332" y="670" type="qcurve"/>
      <point x="284" y="688" type="line"/>
      <point x="292" y="718"/>
      <point x="338" y="758"/>
      <point x="381" y="758" type="qcurve"/>
      <point x="420" y="758"/>
      <point x="474" y="709"/>
      <point x="474" y="667" type="qcurve"/>
      <point x="474" y="632"/>
      <point x="433" y="582"/>
      <point x="398" y="582" type="qcurve"/>
      <point x="357" y="582"/>
      <point x="344" y="614" type="qcurve"/>
      <point x="338" y="614" type="line"/>
      <point x="353" y="546" type="line"/>
    </contour>
    <component base="dotlessi.alt"/>
  </outline>
</glyph>
<glyph name="uni1EF7.alt" format="1">
  <advance width="612"/>
  <outline>
    <contour>
      <point x="272" y="546" type="line"/>
      <point x="252" y="638" type="line"/>
      <point x="252" y="644" type="line"/>
      <point x="328" y="644" type="line"/>
      <point x="335" y="630"/>
      <point x="353" y="630" type="qcurve"/>
      <point x="367" y="630"/>
      <point x="388" y="650"/>
      <point x="388" y="668" type="qcurve"/>
      <point x="388" y="690"/>
      <point x="363" y="710"/>
      <point x="348" y="710" type="qcurve"/>
      <point x="326" y="710"/>
      <point x="303" y="685"/>
      <point x="300" y="670" type="qcurve"/>
      <point x="252" y="688" type="line"/>
      <point x="260" y="718"/>
      <point x="306" y="758"/>
      <point x="349" y="758" type="qcurve"/>
      <point x="388" y="758"/>
      <point x="442" y="709"/>
      <point x="442" y="667" type="qcurve"/>
      <point x="442" y="632"/>
      <point x="401" y="582"/>
      <point x="366" y="582" type="qcurve"/>
      <point x="325" y="582"/>
      <point x="312" y="614" type="qcurve"/>
      <point x="306" y="614" type="line"/>
      <point x="321" y="546" type="line"/>
    </contour>
    <component base="y.alt"/>
  </outline>
</glyph>
<glyph name="uni20A1.cap" format="1">
  <advance width="612"/>
  <outline>
    <contour>
      <point x="243" y="-9" type="line"/>
      <point x="210" y="0" type="line"/>
      <point x="190" y="-92" type="line"/>
      <point x="114" y="-76" type="line"/>
      <point x="139" y="41" type="line"/>
      <point x="56" y="113"/>
      <point x="56" y="272" type="qcurve"/>
      <point x="56" y="428" type="line"/>
      <point x="56" y="558"/>
      <point x="175" y="707"/>
      <point x="283" y="713" type="qcurve"/>
      <point x="300" y="792" type="line"/>
      <point x="376" y="776" type="line"/>
      <point x="361" y="708" type="line"/>
      <point x="370" y="706"/>
      <point x="387" y="701"/>
      <point x="395" y="699" type="qcurve"/>
      <point x="415" y="792" type="line"/>
      <point x="491" y="776" type="line"/>
      <point x="466" y="658" type="line"/>
      <point x="507" y="623"/>
      <point x="548" y="521"/>
      <point x="548" y="460" type="qcurve"/>
      <point x="548" y="448" type="line"/>
      <point x="464" y="448" type="line"/>
      <point x="464" y="460" type="line"/>
      <point x="463" y="485"/>
      <point x="454" y="532"/>
      <point x="443" y="553" type="qcurve"/>
      <point x="339" y="67" type="line"/>
      <point x="372" y="73"/>
      <point x="419" y="106"/>
      <point x="449" y="153"/>
      <point x="464" y="210"/>
      <point x="464" y="240" type="qcurve"/>
      <point x="464" y="252" type="line"/>
      <point x="548" y="252" type="line"/>
      <point x="548" y="240" type="line"/>
      <point x="548" y="189"/>
      <point x="519" y="100"/>
      <point x="462" y="32"/>
      <point x="377" y="-10"/>
      <point x="322" y="-13" type="qcurve"/>
      <point x="305" y="-92" type="line"/>
      <point x="229" y="-76" type="line"/>
    </contour>
    <contour>
      <point x="140" y="278" type="line"/>
      <point x="140" y="201"/>
      <point x="162" y="151" type="qcurve"/>
      <point x="265" y="632" type="line"/>
      <point x="202" y="619"/>
      <point x="140" y="507"/>
      <point x="140" y="422" type="qcurve"/>
    </contour>
    <contour>
      <point x="227" y="80" type="line"/>
      <point x="242" y="72"/>
      <point x="260" y="68" type="qcurve"/>
      <point x="378" y="620" type="line"/>
      <point x="361" y="628"/>
      <point x="345" y="631" type="qcurve"/>
    </contour>
  </outline>
</glyph>
<glyph name="uni20A6.cap" format="1">
  <advance width="612"/>
  <outline>
    <contour>
      <point x="323" y="444" type="line"/>
      <point x="443" y="444" type="line"/>
      <point x="443" y="700" type="line"/>
      <point x="527" y="700" type="line"/>
      <point x="527" y="444" type="line"/>
      <point x="599" y="444" type="line"/>
      <point x="599" y="366" type="line"/>
      <point x="527" y="366" type="line"/>
      <point x="527" y="330" type="line"/>
      <point x="599" y="330" type="line"/>
      <point x="599" y="252" type="line"/>
      <point x="527" y="252" type="line"/>
      <point x="527" y="0" type="line"/>
      <point x="357" y="0" type="line"/>
      <point x="290" y="252" type="line"/>
      <point x="169" y="252" type="line"/>
      <point x="169" y="0" type="line"/>
      <point x="85" y="0" type="line"/>
      <point x="85" y="252" type="line"/>
      <point x="13" y="252" type="line"/>
      <point x="13" y="330" type="line"/>
      <point x="85" y="330" type="line"/>
      <point x="85" y="366" type="line"/>
      <point x="13" y="366" type="line"/>
      <point x="13" y="444" type="line"/>
      <point x="85" y="444" type="line"/>
      <point x="85" y="700" type="line"/>
      <point x="255" y="700" type="line"/>
    </contour>
    <contour>
      <point x="169" y="444" type="line"/>
      <point x="239" y="444" type="line"/>
      <point x="181" y="664" type="line"/>
      <point x="169" y="664" type="line"/>
    </contour>
    <contour>
      <point x="443" y="36" type="line"/>
      <point x="443" y="252" type="line"/>
      <point x="373" y="252" type="line"/>
      <point x="431" y="36" type="line"/>
    </contour>
    <contour>
      <point x="169" y="330" type="line"/>
      <point x="269" y="330" type="line"/>
      <point x="260" y="366" type="line"/>
      <point x="169" y="366" type="line"/>
    </contour>
    <contour>
      <point x="353" y="330" type="line"/>
      <point x="443" y="330" type="line"/>
      <point x="443" y="366" type="line"/>
      <point x="343" y="366" type="line"/>
    </contour>
  </outline>
</glyph>
<glyph name="uni20A7.cap" format="1">
  <advance width="612"/>
  <outline>
    <contour>
      <point x="26" y="533" type="line"/>
      <point x="86" y="533" type="line"/>
      <point x="86" y="700" type="line"/>
      <point x="312" y="700" type="line"/>
      <point x="361" y="700"/>
      <point x="438" y="673"/>
      <point x="491" y="628"/>
      <point x="521" y="567"/>
      <point x="525" y="533" type="qcurve"/>
      <point x="586" y="533" type="line"/>
      <point x="586" y="455" type="line"/>
      <point x="524" y="455" type="line"/>
      <point x="520" y="421"/>
      <point x="489" y="360"/>
      <point x="436" y="315"/>
      <point x="361" y="288"/>
      <point x="312" y="288" type="qcurve"/>
      <point x="170" y="288" type="line"/>
      <point x="170" y="0" type="line"/>
      <point x="86" y="0" type="line"/>
      <point x="86" y="455" type="line"/>
      <point x="26" y="455" type="line"/>
    </contour>
    <contour>
      <point x="302" y="366" type="line"/>
      <point x="423" y="366"/>
      <point x="439" y="455" type="qcurve"/>
      <point x="170" y="455" type="line"/>
      <point x="170" y="366" type="line"/>
    </contour>
    <contour>
      <point x="170" y="533" type="line"/>
      <point x="439" y="533" type="line"/>
      <point x="430" y="574"/>
      <point x="362" y="622"/>
      <point x="302" y="622" type="qcurve"/>
      <point x="170" y="622" type="line"/>
    </contour>
  </outline>
</glyph>
<glyph name="uni20B5.cap" format="1">
  <advance width="612"/>
  <outline>
    <contour>
      <point x="352" y="711" type="line"/>
      <point x="402" y="704"/>
      <point x="478" y="660"/>
      <point x="530" y="594"/>
      <point x="556" y="508"/>
      <point x="556" y="460" type="qcurve"/>
      <point x="556" y="448" type="line"/>
      <point x="472" y="448" type="line"/>
      <point x="472" y="460" type="line"/>
      <point x="471" y="490"/>
      <point x="457" y="546"/>
      <point x="428" y="592"/>
      <point x="383" y="625"/>
      <point x="352" y="632" type="qcurve"/>
      <point x="352" y="68" type="line"/>
      <point x="383" y="75"/>
      <point x="429" y="108"/>
      <point x="458" y="154"/>
      <point x="472" y="210"/>
      <point x="472" y="240" type="qcurve"/>
      <point x="472" y="252" type="line"/>
      <point x="556" y="252" type="line"/>
      <point x="556" y="240" type="line"/>
      <point x="556" y="192"/>
      <point x="530" y="106"/>
      <point x="478" y="40"/>
      <point x="402" y="-4"/>
      <point x="352" y="-11" type="qcurve"/>
      <point x="352" y="-92" type="line"/>
      <point x="274" y="-92" type="line"/>
      <point x="274" y="-12" type="line"/>
      <point x="174" y="-1"/>
      <point x="64" y="143"/>
      <point x="64" y="272" type="qcurve"/>
      <point x="64" y="428" type="line"/>
      <point x="64" y="553"/>
      <point x="174" y="700"/>
      <point x="274" y="712" type="qcurve"/>
      <point x="274" y="792" type="line"/>
      <point x="352" y="792" type="line"/>
    </contour>
    <contour>
      <point x="148" y="278" type="line"/>
      <point x="148" y="187"/>
      <point x="211" y="79"/>
      <point x="274" y="67" type="qcurve"/>
      <point x="274" y="633" type="line"/>
      <point x="211" y="620"/>
      <point x="148" y="507"/>
      <point x="148" y="422" type="qcurve"/>
    </contour>
  </outline>
</glyph>
<glyph name="zero.tosn" format="1">
  <advance width="612"/>
  <outline>
    <contour>
      <point x="242" y="248" type="qcurve"/>
      <point x="242" y="274"/>
      <point x="280" y="312"/>
      <point x="306" y="312" type="qcurve"/>
      <point x="332" y="312"/>
      <point x="370" y="274"/>
      <point x="370" y="248" type="qcurve"/>
      <point x="370" y="222"/>
      <point x="332" y="184"/>
      <point x="306" y="184" type="qcurve"/>
      <point x="280" y="184"/>
      <point x="242" y="222"/>
    </contour>
    <contour>
      <point x="555" y="236" type="line"/>
      <point x="555" y="177"/>
      <point x="515" y="84"/>
      <point x="447" y="20"/>
      <point x="356" y="-14"/>
      <point x="306" y="-14" type="qcurve"/>
      <point x="256" y="-14"/>
      <point x="165" y="20"/>
      <point x="97" y="84"/>
      <point x="57" y="177"/>
      <point x="57" y="236" type="qcurve"/>
      <point x="57" y="260" type="line"/>
      <point x="57" y="319"/>
      <point x="97" y="412"/>
      <point x="165" y="476"/>
      <point x="256" y="510"/>
      <point x="306" y="510" type="qcurve"/>
      <point x="356" y="510"/>
      <point x="447" y="476"/>
      <point x="515" y="412"/>
      <point x="555" y="319"/>
      <point x="555" y="260" type="qcurve"/>
    </contour>
    <contour>
      <point x="306" y="60" type="qcurve"/>
      <point x="341" y="60"/>
      <point x="403" y="84"/>
      <point x="449" y="129"/>
      <point x="475" y="195"/>
      <point x="475" y="236" type="qcurve"/>
      <point x="475" y="260" type="line"/>
      <point x="475" y="301"/>
      <point x="449" y="367"/>
      <point x="403" y="412"/>
      <point x="341" y="436"/>
      <point x="306" y="436" type="qcurve"/>
      <point x="271" y="436"/>
      <point x="209" y="412"/>
      <point x="163" y="367"/>
      <point x="137" y="301"/>
      <point x="137" y="260" type="qcurve"/>
      <point x="137" y="236" type="line"/>
      <point x="137" y="195"/>
      <point x="163" y="129"/>
      <point x="209" y="84"/>
      <point x="271" y="60"/>
    </contour>
  </outline>
</glyph>
